<svg width="37" height="43" viewBox="0 0 37 43" fill="none" xmlns="http://www.w3.org/2000/svg">
<path d="M21.288 10.5442L22.8185 9.91551C24.0632 9.41988 25.6697 8.91776 27.5685 9.23693C31.4557 9.89028 34.1376 11.9892 35.7347 14.7732C36.3502 15.8461 35.8529 17.2594 34.7013 17.7106C32.7856 18.4607 31.435 20.3246 31.435 22.4986C31.435 24.7758 32.9176 26.7124 34.9757 27.3851C36.0413 27.7336 36.6399 28.9163 36.29 29.9812C35.3826 32.7416 34.074 35.2886 32.5258 37.3444C30.9975 39.3741 29.1306 41.062 27.0521 41.8847C25.6969 42.4211 24.2403 42.2208 22.8474 41.8752L22.0206 41.6552L20.7936 41.2987C20.2366 41.1377 19.6649 40.9976 19.1 40.9976C18.535 40.9976 17.9633 41.1377 17.4063 41.2987L16.1795 41.6552L15.3527 41.8752C13.9598 42.2208 12.5031 42.4211 11.148 41.8847C8.53032 40.8486 6.22145 38.4309 4.4778 35.5807C2.70322 32.6797 1.35842 29.083 0.810131 25.3305C0.343231 22.1347 0.595276 18.5483 2.07402 15.5126C3.59694 12.3863 6.38241 9.95121 10.6314 9.23693C12.3578 8.94671 13.8425 9.33533 15.0333 9.78078L15.7121 10.0499L16.9121 10.5442C17.7339 10.8662 18.3836 11.0558 19.1 11.0558C19.8165 11.0558 20.4662 10.8662 21.288 10.5442ZM18.6226 2.49073C20.6297 0.483604 23.7106 0.310195 24.4373 1.03706C25.1643 1.7639 24.9907 4.84468 22.9836 6.85182C20.9765 8.85895 17.8956 9.03236 17.1689 8.30552C16.442 7.57868 16.6155 4.49787 18.6226 2.49073Z" fill="#081139"/>
</svg>
