<svg width="70" height="69" viewBox="0 0 70 69" fill="none" xmlns="http://www.w3.org/2000/svg">
<g filter="url(#filter0_dd_0_1)">
<path d="M53.7344 21.0047C53.7344 12.8323 46.283 6.68684 38.26 8.24231L12.9373 13.1518C6.82542 14.3368 2.41162 19.6885 2.41162 25.9142V40.9988C2.41162 48.1785 8.23192 53.9988 15.4116 53.9988H40.7344C47.9141 53.9988 53.7344 48.1785 53.7344 40.9988V21.0047Z" fill="url(#paint0_linear_0_1)" shape-rendering="crispEdges"/>
</g>
<g filter="url(#filter1_i_0_1)">
<path d="M32.6352 21.4961C35.7846 21.4961 38.3377 24.0492 38.3377 27.1986V36.3227C38.3377 39.4721 35.7846 42.0252 32.6352 42.0252H23.5111C20.3617 42.0252 17.8086 39.4721 17.8086 36.3227V27.1986C17.8086 24.0492 20.3617 21.4961 23.5111 21.4961H32.6352ZM28.0731 27.1986C25.5536 27.1986 23.5111 29.2411 23.5111 31.7606C23.5111 34.2801 25.5536 36.3227 28.0731 36.3227C30.5926 36.3227 32.6352 34.2801 32.6352 31.7606C32.6352 29.2411 30.5926 27.1986 28.0731 27.1986ZM28.0731 29.4796C29.3329 29.4796 30.3542 30.5008 30.3542 31.7606C30.3542 33.0204 29.3329 34.0417 28.0731 34.0417C26.8133 34.0417 25.7921 33.0204 25.7921 31.7606C25.7921 30.5008 26.8133 29.4796 28.0731 29.4796ZM33.2054 25.4879C32.5755 25.4879 32.0649 25.9985 32.0649 26.6284C32.0649 27.2582 32.5755 27.7689 33.2054 27.7689C33.8353 27.7689 34.3459 27.2582 34.3459 26.6284C34.3459 25.9985 33.8353 25.4879 33.2054 25.4879Z" fill="url(#paint1_linear_0_1)"/>
</g>
<defs>
<filter id="filter0_dd_0_1" x="0.411621" y="0" width="69.3228" height="69" filterUnits="userSpaceOnUse" color-interpolation-filters="sRGB">
<feFlood flood-opacity="0" result="BackgroundImageFix"/>
<feColorMatrix in="SourceAlpha" type="matrix" values="0 0 0 0 0 0 0 0 0 0 0 0 0 0 0 0 0 0 127 0" result="hardAlpha"/>
<feOffset dx="7" dy="6"/>
<feGaussianBlur stdDeviation="4.5"/>
<feComposite in2="hardAlpha" operator="out"/>
<feColorMatrix type="matrix" values="0 0 0 0 0.479167 0 0 0 0 0.479167 0 0 0 0 0.479167 0 0 0 0.21 0"/>
<feBlend mode="normal" in2="BackgroundImageFix" result="effect1_dropShadow_0_1"/>
<feColorMatrix in="SourceAlpha" type="matrix" values="0 0 0 0 0 0 0 0 0 0 0 0 0 0 0 0 0 0 127 0" result="hardAlpha"/>
<feOffset dx="2" dy="-4"/>
<feGaussianBlur stdDeviation="2"/>
<feComposite in2="hardAlpha" operator="out"/>
<feColorMatrix type="matrix" values="0 0 0 0 1 0 0 0 0 1 0 0 0 0 1 0 0 0 0.49 0"/>
<feBlend mode="normal" in2="effect1_dropShadow_0_1" result="effect2_dropShadow_0_1"/>
<feBlend mode="normal" in="SourceGraphic" in2="effect2_dropShadow_0_1" result="shape"/>
</filter>
<filter id="filter1_i_0_1" x="17.8086" y="21.4961" width="20.5291" height="24.5273" filterUnits="userSpaceOnUse" color-interpolation-filters="sRGB">
<feFlood flood-opacity="0" result="BackgroundImageFix"/>
<feBlend mode="normal" in="SourceGraphic" in2="BackgroundImageFix" result="shape"/>
<feColorMatrix in="SourceAlpha" type="matrix" values="0 0 0 0 0 0 0 0 0 0 0 0 0 0 0 0 0 0 127 0" result="hardAlpha"/>
<feOffset dy="4"/>
<feGaussianBlur stdDeviation="2"/>
<feComposite in2="hardAlpha" operator="arithmetic" k2="-1" k3="1"/>
<feColorMatrix type="matrix" values="0 0 0 0 1 0 0 0 0 1 0 0 0 0 1 0 0 0 0.47 0"/>
<feBlend mode="normal" in2="shape" result="effect1_innerShadow_0_1"/>
</filter>
<linearGradient id="paint0_linear_0_1" x1="28.073" y1="5.24219" x2="28.073" y2="53.9988" gradientUnits="userSpaceOnUse">
<stop stop-color="#E1E1E1"/>
<stop offset="1" stop-color="#E1E1E1" stop-opacity="0"/>
</linearGradient>
<linearGradient id="paint1_linear_0_1" x1="28.0731" y1="21.4961" x2="28.0731" y2="42.0252" gradientUnits="userSpaceOnUse">
<stop stop-color="#497DAF"/>
<stop offset="1" stop-color="#6F0174"/>
</linearGradient>
</defs>
</svg>
