<svg width="71" height="69" viewBox="0 0 71 69" fill="none" xmlns="http://www.w3.org/2000/svg">
<g filter="url(#filter0_dd_0_1)">
<path d="M54.293 21.0047C54.293 12.8323 46.8416 6.68684 38.8186 8.24231L13.4959 13.1518C7.38402 14.3368 2.97022 19.6885 2.97022 25.9142V40.9988C2.97022 48.1785 8.79052 53.9988 15.9702 53.9988H41.293C48.4727 53.9988 54.293 48.1785 54.293 40.9988V21.0047Z" fill="url(#paint0_linear_0_1)" shape-rendering="crispEdges"/>
</g>
<path d="M38.8959 23.0056V40.5157C38.8959 40.916 38.7369 41.3 38.4538 41.5831C38.1707 41.8662 37.7868 42.0252 37.3864 42.0252H19.8763C19.476 42.0252 19.092 41.8662 18.8089 41.5831C18.5259 41.3 18.3668 40.916 18.3668 40.5157V23.0056C18.3668 22.6052 18.5259 22.2213 18.8089 21.9382C19.092 21.6551 19.476 21.4961 19.8763 21.4961H37.3864C37.7868 21.4961 38.1707 21.6551 38.4538 21.9382C38.7369 22.2213 38.8959 22.6052 38.8959 23.0056ZM24.4048 29.3455H21.3858V39.0062H24.4048V29.3455ZM24.6765 26.0246C24.6781 25.7962 24.6347 25.5698 24.5488 25.3582C24.4628 25.1466 24.3361 24.954 24.1757 24.7914C24.0154 24.6288 23.8246 24.4994 23.6142 24.4105C23.4038 24.3217 23.178 24.2751 22.9496 24.2736H22.8953C22.4309 24.2736 21.9855 24.458 21.6571 24.7864C21.3288 25.1148 21.1443 25.5602 21.1443 26.0246C21.1443 26.489 21.3288 26.9343 21.6571 27.2627C21.9855 27.5911 22.4309 27.7756 22.8953 27.7756C23.1237 27.7812 23.3509 27.7418 23.5641 27.6595C23.7772 27.5773 23.972 27.4539 24.1374 27.2963C24.3029 27.1387 24.4356 26.9501 24.5281 26.7412C24.6206 26.5324 24.671 26.3073 24.6765 26.0789V26.0246ZM35.8769 33.1373C35.8769 30.233 34.0293 29.1039 32.1938 29.1039C31.5928 29.0738 30.9944 29.2018 30.4583 29.4752C29.9222 29.7485 29.4672 30.1576 29.1386 30.6617H29.054V29.3455H26.2162V39.0062H29.2352V33.8679C29.1915 33.3416 29.3573 32.8194 29.6965 32.4147C30.0356 32.01 30.5208 31.7554 31.0466 31.7063H31.1613C32.1213 31.7063 32.8338 32.3101 32.8338 33.8317V39.0062H35.8528L35.8769 33.1373Z" fill="url(#paint1_linear_0_1)"/>
<defs>
<filter id="filter0_dd_0_1" x="0.970215" y="0" width="69.3228" height="69" filterUnits="userSpaceOnUse" color-interpolation-filters="sRGB">
<feFlood flood-opacity="0" result="BackgroundImageFix"/>
<feColorMatrix in="SourceAlpha" type="matrix" values="0 0 0 0 0 0 0 0 0 0 0 0 0 0 0 0 0 0 127 0" result="hardAlpha"/>
<feOffset dx="7" dy="6"/>
<feGaussianBlur stdDeviation="4.5"/>
<feComposite in2="hardAlpha" operator="out"/>
<feColorMatrix type="matrix" values="0 0 0 0 0.479167 0 0 0 0 0.479167 0 0 0 0 0.479167 0 0 0 0.21 0"/>
<feBlend mode="normal" in2="BackgroundImageFix" result="effect1_dropShadow_0_1"/>
<feColorMatrix in="SourceAlpha" type="matrix" values="0 0 0 0 0 0 0 0 0 0 0 0 0 0 0 0 0 0 127 0" result="hardAlpha"/>
<feOffset dx="2" dy="-4"/>
<feGaussianBlur stdDeviation="2"/>
<feComposite in2="hardAlpha" operator="out"/>
<feColorMatrix type="matrix" values="0 0 0 0 1 0 0 0 0 1 0 0 0 0 1 0 0 0 0.49 0"/>
<feBlend mode="normal" in2="effect1_dropShadow_0_1" result="effect2_dropShadow_0_1"/>
<feBlend mode="normal" in="SourceGraphic" in2="effect2_dropShadow_0_1" result="shape"/>
</filter>
<linearGradient id="paint0_linear_0_1" x1="28.6316" y1="5.24219" x2="28.6316" y2="53.9988" gradientUnits="userSpaceOnUse">
<stop stop-color="#E1E1E1"/>
<stop offset="1" stop-color="#E1E1E1" stop-opacity="0"/>
</linearGradient>
<linearGradient id="paint1_linear_0_1" x1="28.6314" y1="21.4961" x2="28.6314" y2="42.0252" gradientUnits="userSpaceOnUse">
<stop stop-color="#497DAF"/>
<stop offset="1" stop-color="#6F0174"/>
</linearGradient>
</defs>
</svg>
