<svg width="70" height="69" viewBox="0 0 70 69" fill="none" xmlns="http://www.w3.org/2000/svg">
<g filter="url(#filter0_dd_0_1)">
<path d="M53.4414 21.0047C53.4414 12.8323 45.99 6.68684 37.9671 8.24231L12.6443 13.1518C6.53246 14.3368 2.11866 19.6885 2.11866 25.9142V40.9988C2.11866 48.1785 7.93895 53.9988 15.1187 53.9988H40.4414C47.6211 53.9988 53.4414 48.1785 53.4414 40.9988V21.0047Z" fill="url(#paint0_linear_0_1)" shape-rendering="crispEdges"/>
</g>
<g filter="url(#filter1_i_0_1)">
<path d="M27.7751 20.3555C21.4697 20.3555 16.3748 25.4598 16.3748 31.7558C16.3748 36.5881 19.3773 40.7166 23.6184 42.3774C23.5152 41.4766 23.4308 40.0879 23.656 39.1027C23.8624 38.2113 24.9884 33.4354 24.9884 33.4354C24.9884 33.4354 24.6506 32.7504 24.6506 31.7465C24.6506 30.1607 25.5701 28.9785 26.7148 28.9785C27.6907 28.9785 28.1598 29.7103 28.1598 30.583C28.1598 31.5588 27.5405 33.0225 27.2121 34.3831C26.94 35.5184 27.7845 36.4473 28.9011 36.4473C30.9278 36.4473 32.4854 34.308 32.4854 31.2304C32.4854 28.4999 30.5243 26.5952 27.7188 26.5952C24.4723 26.5952 22.5675 29.0254 22.5675 31.54C22.5675 32.5159 22.9429 33.5667 23.412 34.1391C23.5059 34.2517 23.5152 34.3549 23.4871 34.4675C23.4026 34.8241 23.2056 35.6029 23.1681 35.7624C23.1211 35.9688 22.9992 36.0157 22.7833 35.9125C21.3759 35.2369 20.4939 33.1539 20.4939 31.4837C20.4939 27.89 23.1024 24.5872 28.0285 24.5872C31.9787 24.5872 35.0564 27.4021 35.0564 31.1741C35.0564 35.1056 32.5792 38.2677 29.145 38.2677C27.9909 38.2677 26.9025 37.6671 26.5366 36.954C26.5366 36.954 25.9642 39.1309 25.8235 39.6657C25.5701 40.6603 24.8758 41.8989 24.4066 42.6589C25.4763 42.9873 26.6022 43.1656 27.7845 43.1656C34.0805 43.1656 39.1849 38.0612 39.1849 31.7652C39.1755 25.4598 34.0711 20.3555 27.7751 20.3555Z" fill="url(#paint1_linear_0_1)"/>
</g>
<defs>
<filter id="filter0_dd_0_1" x="0.118652" y="0" width="69.3228" height="69" filterUnits="userSpaceOnUse" color-interpolation-filters="sRGB">
<feFlood flood-opacity="0" result="BackgroundImageFix"/>
<feColorMatrix in="SourceAlpha" type="matrix" values="0 0 0 0 0 0 0 0 0 0 0 0 0 0 0 0 0 0 127 0" result="hardAlpha"/>
<feOffset dx="7" dy="6"/>
<feGaussianBlur stdDeviation="4.5"/>
<feComposite in2="hardAlpha" operator="out"/>
<feColorMatrix type="matrix" values="0 0 0 0 0.479167 0 0 0 0 0.479167 0 0 0 0 0.479167 0 0 0 0.21 0"/>
<feBlend mode="normal" in2="BackgroundImageFix" result="effect1_dropShadow_0_1"/>
<feColorMatrix in="SourceAlpha" type="matrix" values="0 0 0 0 0 0 0 0 0 0 0 0 0 0 0 0 0 0 127 0" result="hardAlpha"/>
<feOffset dx="2" dy="-4"/>
<feGaussianBlur stdDeviation="2"/>
<feComposite in2="hardAlpha" operator="out"/>
<feColorMatrix type="matrix" values="0 0 0 0 1 0 0 0 0 1 0 0 0 0 1 0 0 0 0.49 0"/>
<feBlend mode="normal" in2="effect1_dropShadow_0_1" result="effect2_dropShadow_0_1"/>
<feBlend mode="normal" in="SourceGraphic" in2="effect2_dropShadow_0_1" result="shape"/>
</filter>
<filter id="filter1_i_0_1" x="16.3748" y="20.3555" width="22.8101" height="26.8086" filterUnits="userSpaceOnUse" color-interpolation-filters="sRGB">
<feFlood flood-opacity="0" result="BackgroundImageFix"/>
<feBlend mode="normal" in="SourceGraphic" in2="BackgroundImageFix" result="shape"/>
<feColorMatrix in="SourceAlpha" type="matrix" values="0 0 0 0 0 0 0 0 0 0 0 0 0 0 0 0 0 0 127 0" result="hardAlpha"/>
<feOffset dy="4"/>
<feGaussianBlur stdDeviation="2"/>
<feComposite in2="hardAlpha" operator="arithmetic" k2="-1" k3="1"/>
<feColorMatrix type="matrix" values="0 0 0 0 1 0 0 0 0 1 0 0 0 0 1 0 0 0 0.25 0"/>
<feBlend mode="normal" in2="shape" result="effect1_innerShadow_0_1"/>
</filter>
<linearGradient id="paint0_linear_0_1" x1="27.78" y1="5.24219" x2="27.78" y2="53.9988" gradientUnits="userSpaceOnUse">
<stop stop-color="#E1E1E1"/>
<stop offset="1" stop-color="#E1E1E1" stop-opacity="0"/>
</linearGradient>
<linearGradient id="paint1_linear_0_1" x1="27.7798" y1="20.3555" x2="27.7798" y2="43.1656" gradientUnits="userSpaceOnUse">
<stop stop-color="#497DAF"/>
<stop offset="1" stop-color="#6F0174"/>
</linearGradient>
</defs>
</svg>
