<svg width="71" height="69" viewBox="0 0 71 69" fill="none" xmlns="http://www.w3.org/2000/svg">
<g filter="url(#filter0_dd_0_1)">
<path d="M54.1748 21.0047C54.1748 12.8323 46.7234 6.68684 38.7005 8.24231L13.3777 13.1518C7.26585 14.3368 2.85205 19.6885 2.85205 25.9142V40.9988C2.85205 48.1785 8.67235 53.9988 15.8521 53.9988H41.1748C48.3545 53.9988 54.1748 48.1785 54.1748 40.9988V21.0047Z" fill="url(#paint0_linear_0_1)" shape-rendering="crispEdges"/>
</g>
<path d="M20.0667 23.7593C20.4877 23.7102 20.9012 23.8987 21.1404 24.2486C22.8231 26.7107 24.8441 27.735 27.0867 27.968C27.1968 27.0086 27.4556 26.0607 27.9423 25.2261C28.6561 24.0016 29.8172 23.1001 31.4757 22.767C33.7674 22.3067 35.5124 23.1366 36.5249 24.1531L38.5685 23.771C39.0051 23.6895 39.4492 23.8686 39.707 24.2303C39.9646 24.5919 39.989 25.0702 39.7693 25.4562L37.8082 28.9029C37.9871 33.8771 36.6048 37.3484 33.6576 39.7401C32.0942 41.0087 29.8571 41.7282 27.4015 41.9504C24.9267 42.1743 22.1292 41.9035 19.3483 41.0915C18.8604 40.949 18.5256 40.5009 18.5274 39.9927C18.5292 39.4844 18.8671 39.0387 19.356 38.8996C20.7545 38.5019 21.8189 38.1581 22.7811 37.5576C21.4143 36.8319 20.4071 35.8832 19.6943 34.8017C18.7036 33.2984 18.3363 31.6225 18.2633 30.111C18.1904 28.5997 18.4088 27.1998 18.6388 26.1896C18.7698 25.6144 18.9227 25.0367 19.1335 24.4847C19.2866 24.0869 19.6457 23.8084 20.0667 23.7593Z" fill="url(#paint1_linear_0_1)"/>
<defs>
<filter id="filter0_dd_0_1" x="0.852051" y="0" width="69.3228" height="69" filterUnits="userSpaceOnUse" color-interpolation-filters="sRGB">
<feFlood flood-opacity="0" result="BackgroundImageFix"/>
<feColorMatrix in="SourceAlpha" type="matrix" values="0 0 0 0 0 0 0 0 0 0 0 0 0 0 0 0 0 0 127 0" result="hardAlpha"/>
<feOffset dx="7" dy="6"/>
<feGaussianBlur stdDeviation="4.5"/>
<feComposite in2="hardAlpha" operator="out"/>
<feColorMatrix type="matrix" values="0 0 0 0 0.479167 0 0 0 0 0.479167 0 0 0 0 0.479167 0 0 0 0.21 0"/>
<feBlend mode="normal" in2="BackgroundImageFix" result="effect1_dropShadow_0_1"/>
<feColorMatrix in="SourceAlpha" type="matrix" values="0 0 0 0 0 0 0 0 0 0 0 0 0 0 0 0 0 0 127 0" result="hardAlpha"/>
<feOffset dx="2" dy="-4"/>
<feGaussianBlur stdDeviation="2"/>
<feComposite in2="hardAlpha" operator="out"/>
<feColorMatrix type="matrix" values="0 0 0 0 1 0 0 0 0 1 0 0 0 0 1 0 0 0 0.49 0"/>
<feBlend mode="normal" in2="effect1_dropShadow_0_1" result="effect2_dropShadow_0_1"/>
<feBlend mode="normal" in="SourceGraphic" in2="effect2_dropShadow_0_1" result="shape"/>
</filter>
<linearGradient id="paint0_linear_0_1" x1="28.5134" y1="5.24219" x2="28.5134" y2="53.9988" gradientUnits="userSpaceOnUse">
<stop stop-color="#E1E1E1"/>
<stop offset="1" stop-color="#E1E1E1" stop-opacity="0"/>
</linearGradient>
<linearGradient id="paint1_linear_0_1" x1="29.0838" y1="22.6367" x2="29.0838" y2="42.0258" gradientUnits="userSpaceOnUse">
<stop stop-color="#497DAF"/>
<stop offset="1" stop-color="#6F0174"/>
</linearGradient>
</defs>
</svg>
