<svg width="1512" height="346" viewBox="0 0 1512 346" fill="none" xmlns="http://www.w3.org/2000/svg">
<path d="M359.448 20C359.448 24.4183 363.03 28 367.448 28C371.867 28 375.448 24.4183 375.448 20C375.448 15.5817 371.867 12 367.448 12C363.03 12 359.448 15.5817 359.448 20ZM256.945 110.562L257.896 111.723L256.945 110.562ZM157.397 121.339L158.341 122.505L157.397 121.339ZM-53.92 294.166L158.341 122.505L156.454 120.172L-55.8065 291.833L-53.92 294.166ZM172.489 117.5H241.733V114.5H172.489V117.5ZM257.896 111.723L368.399 21.1602L366.497 18.8398L255.995 109.402L257.896 111.723ZM241.733 117.5C247.626 117.5 253.338 115.458 257.896 111.723L255.995 109.402C251.973 112.699 246.933 114.5 241.733 114.5V117.5ZM158.341 122.505C162.345 119.267 167.339 117.5 172.489 117.5V114.5C166.652 114.5 160.992 116.502 156.454 120.172L158.341 122.505Z" fill="url(#paint0_linear_0_1)"/>
<path d="M513.576 23C513.576 27.4183 517.158 31 521.576 31C525.994 31 529.576 27.4183 529.576 23C529.576 18.5817 525.994 15 521.576 15C517.158 15 513.576 18.5817 513.576 23ZM451.558 93.8678L450.491 92.8135L451.558 93.8678ZM311.24 107.33L310.224 106.226L311.24 107.33ZM269.527 145.67L270.542 146.774L269.527 145.67ZM166.603 157.461L165.651 156.303L166.603 157.461ZM-4.59033 300.158L167.556 158.62L165.651 156.303L-6.49561 297.841L-4.59033 300.158ZM181.845 153.5H253.286V150.5H181.845V153.5ZM270.542 146.774L312.255 108.434L310.224 106.226L268.512 144.565L270.542 146.774ZM327.481 102.5H434.486V99.4999H327.481V102.5ZM452.625 94.922L522.643 24.0542L520.509 21.9458L450.491 92.8135L452.625 94.922ZM434.486 102.5C441.302 102.5 447.835 99.7709 452.625 94.922L450.491 92.8135C446.264 97.092 440.5 99.4999 434.486 99.4999V102.5ZM312.255 108.434C316.407 104.618 321.841 102.5 327.481 102.5V99.4999C321.089 99.4999 314.93 101.9 310.224 106.226L312.255 108.434ZM253.286 153.5C259.678 153.5 265.836 151.1 270.542 146.774L268.512 144.565C264.36 148.382 258.926 150.5 253.286 150.5V153.5ZM167.556 158.62C171.582 155.31 176.633 153.5 181.845 153.5V150.5C175.938 150.5 170.214 152.551 165.651 156.303L167.556 158.62Z" fill="url(#paint1_linear_0_1)"/>
<path d="M32.6973 305C32.6973 309.418 36.279 313 40.6973 313C45.1155 313 48.6973 309.418 48.6973 305C48.6973 300.581 45.1155 297 40.6973 297C36.279 297 32.6973 300.581 32.6973 305ZM581.394 29C581.394 33.4183 584.976 37 589.394 37C593.812 37 597.394 33.4183 597.394 29C597.394 24.5817 593.812 21 589.394 21C584.976 21 581.394 24.5817 581.394 29ZM683.119 11C683.119 15.4183 686.701 19 691.119 19C695.537 19 699.119 15.4183 699.119 11C699.119 6.58172 695.537 3 691.119 3C686.701 3 683.119 6.58172 683.119 11ZM513.358 119.444L512.21 118.479L513.358 119.444ZM354.296 134.801L355.343 135.876L354.296 134.801ZM642.833 69.7402L641.674 68.7877L642.833 69.7402ZM318.951 169.199L317.905 168.124L318.951 169.199ZM188.14 181.595L187.177 180.445L188.14 181.595ZM41.66 306.15L189.103 182.746L187.177 180.445L39.7345 303.849L41.66 306.15ZM203.544 177.5H302.212V174.5H203.544V177.5ZM319.997 170.274L355.343 135.876L353.25 133.726L317.905 168.124L319.997 170.274ZM371.035 129.5H494.987V126.5H371.035V129.5ZM514.506 120.409L548.928 79.4652L546.631 77.5347L512.21 118.479L514.506 120.409ZM548.928 79.4652L590.542 29.9652L588.246 28.0347L546.631 77.5347L548.928 79.4652ZM547.779 79.9999H624.293V76.9999H547.779V79.9999ZM643.992 70.6927L692.278 11.9525L689.96 10.0475L641.674 68.7877L643.992 70.6927ZM494.987 129.5C502.516 129.5 509.661 126.173 514.506 120.409L512.21 118.479C507.934 123.564 501.631 126.5 494.987 126.5V129.5ZM355.343 135.876C359.543 131.787 365.173 129.5 371.035 129.5V126.5C364.392 126.5 358.011 129.092 353.25 133.726L355.343 135.876ZM624.293 79.9999C631.921 79.9999 639.148 76.5852 643.992 70.6927L641.674 68.7877C637.401 73.987 631.024 76.9999 624.293 76.9999V79.9999ZM302.212 177.5C308.855 177.5 315.236 174.907 319.997 170.274L317.905 168.124C313.704 172.212 308.074 174.5 302.212 174.5V177.5ZM189.103 182.746C193.152 179.357 198.264 177.5 203.544 177.5V174.5C197.56 174.5 191.766 176.604 187.177 180.445L189.103 182.746Z" fill="url(#paint2_linear_0_1)"/>
<path d="M223.816 8C223.816 12.4183 227.398 16 231.816 16C236.234 16 239.816 12.4183 239.816 8C239.816 3.58172 236.234 0 231.816 0C227.398 0 223.816 3.58172 223.816 8ZM-147.535 293.832L-147.34 295.319L-147.535 293.832ZM-136.078 289.105L-135.167 290.297L-136.078 289.105ZM-507.805 342.487L-147.34 295.319L-147.73 292.345L-508.195 339.512L-507.805 342.487ZM-135.167 290.297L232.727 9.19189L230.905 6.80811L-136.988 287.913L-135.167 290.297ZM-147.34 295.319C-142.913 294.74 -138.715 293.008 -135.167 290.297L-136.988 287.913C-140.119 290.305 -143.823 291.834 -147.73 292.345L-147.34 295.319Z" fill="url(#paint3_linear_0_1)"/>
<path d="M1152.25 23C1152.25 27.4183 1148.67 31 1144.25 31C1139.84 31 1136.25 27.4183 1136.25 23C1136.25 18.5817 1139.84 15 1144.25 15C1148.67 15 1152.25 18.5817 1152.25 23ZM1254.76 113.562L1253.81 114.723L1254.76 113.562ZM1354.31 124.339L1353.36 125.505L1354.31 124.339ZM1565.62 297.166L1353.36 125.505L1355.25 123.172L1567.51 294.833L1565.62 297.166ZM1339.21 120.5H1269.97V117.5H1339.21V120.5ZM1253.81 114.723L1143.3 24.1602L1145.21 21.8398L1255.71 112.402L1253.81 114.723ZM1269.97 120.5C1264.08 120.5 1258.37 118.458 1253.81 114.723L1255.71 112.402C1259.73 115.699 1264.77 117.5 1269.97 117.5V120.5ZM1353.36 125.505C1349.36 122.267 1344.36 120.5 1339.21 120.5V117.5C1345.05 117.5 1350.71 119.502 1355.25 123.172L1353.36 125.505Z" fill="url(#paint4_linear_0_1)"/>
<path d="M998.127 26C998.127 30.4183 994.546 34 990.127 34C985.709 34 982.127 30.4183 982.127 26C982.127 21.5817 985.709 18 990.127 18C994.546 18 998.127 21.5817 998.127 26ZM1060.14 96.8678L1061.21 95.8135L1060.14 96.8678ZM1200.46 110.33L1201.48 109.226L1200.46 110.33ZM1242.18 148.67L1241.16 149.774L1242.18 148.67ZM1345.1 160.461L1346.05 159.303L1345.1 160.461ZM1516.29 303.158L1344.15 161.62L1346.05 159.303L1518.2 300.841L1516.29 303.158ZM1329.86 156.5H1258.42V153.5H1329.86V156.5ZM1241.16 149.774L1199.45 111.434L1201.48 109.226L1243.19 147.565L1241.16 149.774ZM1184.22 105.5H1077.22V102.5H1184.22V105.5ZM1059.08 97.922L989.06 27.0542L991.194 24.9458L1061.21 95.8135L1059.08 97.922ZM1077.22 105.5C1070.4 105.5 1063.87 102.771 1059.08 97.922L1061.21 95.8135C1065.44 100.092 1071.2 102.5 1077.22 102.5V105.5ZM1199.45 111.434C1195.3 107.618 1189.86 105.5 1184.22 105.5V102.5C1190.61 102.5 1196.77 104.9 1201.48 109.226L1199.45 111.434ZM1258.42 156.5C1252.03 156.5 1245.87 154.1 1241.16 149.774L1243.19 147.565C1247.34 151.382 1252.78 153.5 1258.42 153.5V156.5ZM1344.15 161.62C1340.12 158.31 1335.07 156.5 1329.86 156.5V153.5C1335.77 153.5 1341.49 155.551 1346.05 159.303L1344.15 161.62Z" fill="url(#paint5_linear_0_1)"/>
<path d="M1479.01 308C1479.01 312.418 1475.42 316 1471.01 316C1466.59 316 1463.01 312.418 1463.01 308C1463.01 303.581 1466.59 300 1471.01 300C1475.42 300 1479.01 303.581 1479.01 308ZM930.309 32C930.309 36.4183 926.727 40 922.309 40C917.891 40 914.309 36.4183 914.309 32C914.309 27.5817 917.891 24 922.309 24C926.727 24 930.309 27.5817 930.309 32ZM828.584 14C828.584 18.4183 825.003 22 820.584 22C816.166 22 812.584 18.4183 812.584 14C812.584 9.58172 816.166 6 820.584 6C825.003 6 828.584 9.58172 828.584 14ZM998.345 122.444L999.494 121.479L998.345 122.444ZM1157.41 137.801L1156.36 138.876L1157.41 137.801ZM868.87 72.7402L870.029 71.7877L868.87 72.7402ZM1192.75 172.199L1193.8 171.124L1192.75 172.199ZM1323.56 184.595L1324.53 183.445L1323.56 184.595ZM1470.04 309.15L1322.6 185.746L1324.53 183.445L1471.97 306.849L1470.04 309.15ZM1308.16 180.5H1209.49V177.5H1308.16V180.5ZM1191.71 173.274L1156.36 138.876L1158.45 136.726L1193.8 171.124L1191.71 173.274ZM1140.67 132.5H1016.72V129.5H1140.67V132.5ZM997.197 123.409L962.776 82.4652L965.072 80.5347L999.494 121.479L997.197 123.409ZM962.776 82.4652L921.161 32.9652L923.457 31.0347L965.072 80.5347L962.776 82.4652ZM963.924 82.9999H887.41V79.9999H963.924V82.9999ZM867.711 73.6927L819.426 14.9525L821.743 13.0475L870.029 71.7877L867.711 73.6927ZM1016.72 132.5C1009.19 132.5 1002.04 129.173 997.197 123.409L999.494 121.479C1003.77 126.564 1010.07 129.5 1016.72 129.5V132.5ZM1156.36 138.876C1152.16 134.787 1146.53 132.5 1140.67 132.5V129.5C1147.31 129.5 1153.69 132.092 1158.45 136.726L1156.36 138.876ZM887.41 82.9999C879.782 82.9999 872.555 79.5852 867.711 73.6927L870.029 71.7877C874.302 76.987 880.68 79.9999 887.41 79.9999V82.9999ZM1209.49 180.5C1202.85 180.5 1196.47 177.907 1191.71 173.274L1193.8 171.124C1198 175.212 1203.63 177.5 1209.49 177.5V180.5ZM1322.6 185.746C1318.55 182.357 1313.44 180.5 1308.16 180.5V177.5C1314.14 177.5 1319.94 179.604 1324.53 183.445L1322.6 185.746Z" fill="url(#paint6_linear_0_1)"/>
<path d="M1287.89 11C1287.89 15.4183 1284.31 19 1279.89 19C1275.47 19 1271.89 15.4183 1271.89 11C1271.89 6.58172 1275.47 3 1279.89 3C1284.31 3 1287.89 6.58172 1287.89 11ZM1659.24 296.832L1659.04 298.319L1659.24 296.832ZM1647.78 292.105L1646.87 293.297L1647.78 292.105ZM2019.51 345.487L1659.04 298.319L1659.43 295.345L2019.9 342.512L2019.51 345.487ZM1646.87 293.297L1278.98 12.1919L1280.8 9.80811L1648.69 290.913L1646.87 293.297ZM1659.04 298.319C1654.62 297.74 1650.42 296.008 1646.87 293.297L1648.69 290.913C1651.82 293.305 1655.53 294.834 1659.43 295.345L1659.04 298.319Z" fill="url(#paint7_linear_0_1)"/>
<defs>
<linearGradient id="paint0_linear_0_1" x1="156.293" y1="20" x2="156.293" y2="293" gradientUnits="userSpaceOnUse">
<stop stop-color="#D24BD9"/>
<stop offset="1" stop-color="#62DAF3"/>
</linearGradient>
<linearGradient id="paint1_linear_0_1" x1="258.016" y1="23" x2="258.016" y2="299" gradientUnits="userSpaceOnUse">
<stop stop-color="#D24BD9"/>
<stop offset="1" stop-color="#62DAF3"/>
</linearGradient>
<linearGradient id="paint2_linear_0_1" x1="365.908" y1="11" x2="365.908" y2="305" gradientUnits="userSpaceOnUse">
<stop stop-color="#D24BD9"/>
<stop offset="1" stop-color="#62DAF3"/>
</linearGradient>
<linearGradient id="paint3_linear_0_1" x1="-138.092" y1="8" x2="-138.092" y2="341" gradientUnits="userSpaceOnUse">
<stop stop-color="#D24BD9"/>
<stop offset="1" stop-color="#62DAF3"/>
</linearGradient>
<linearGradient id="paint4_linear_0_1" x1="1355.41" y1="23" x2="1355.41" y2="296" gradientUnits="userSpaceOnUse">
<stop stop-color="#D24BD9"/>
<stop offset="1" stop-color="#62DAF3"/>
</linearGradient>
<linearGradient id="paint5_linear_0_1" x1="1253.69" y1="26" x2="1253.69" y2="302" gradientUnits="userSpaceOnUse">
<stop stop-color="#D24BD9"/>
<stop offset="1" stop-color="#62DAF3"/>
</linearGradient>
<linearGradient id="paint6_linear_0_1" x1="1145.8" y1="14" x2="1145.8" y2="308" gradientUnits="userSpaceOnUse">
<stop stop-color="#D24BD9"/>
<stop offset="1" stop-color="#62DAF3"/>
</linearGradient>
<linearGradient id="paint7_linear_0_1" x1="1649.8" y1="11" x2="1649.8" y2="344" gradientUnits="userSpaceOnUse">
<stop stop-color="#D24BD9"/>
<stop offset="1" stop-color="#62DAF3"/>
</linearGradient>
</defs>
</svg>
