<svg width="89" height="98" viewBox="0 0 89 98" fill="none" xmlns="http://www.w3.org/2000/svg">
<g filter="url(#filter0_dd_219_7830)">
<circle cx="44.4547" cy="43.4547" r="30.4547" fill="url(#paint0_linear_219_7830)"/>
</g>
<path d="M56.3507 45.3327H33.5007C32.8563 45.3327 32.334 44.8103 32.334 44.166C32.334 43.5217 32.8563 42.9993 33.5007 42.9993H56.3507L49.009 35.6576C48.5534 35.202 48.5534 34.4633 49.009 34.0077C49.4646 33.5521 50.2033 33.5521 50.6589 34.0077L59.9923 43.3411C60.4479 43.7967 60.4479 44.5354 59.9923 44.991L50.6589 54.3243C50.2033 54.7799 49.4646 54.7799 49.009 54.3243C48.5534 53.8687 48.5534 53.13 49.009 52.6744L56.3507 45.3327Z" fill="white"/>
<defs>
<filter id="filter0_dd_219_7830" x="0" y="0" width="88.9102" height="97.9102" filterUnits="userSpaceOnUse" color-interpolation-filters="sRGB">
<feFlood flood-opacity="0" result="BackgroundImageFix"/>
<feColorMatrix in="SourceAlpha" type="matrix" values="0 0 0 0 0 0 0 0 0 0 0 0 0 0 0 0 0 0 127 0" result="hardAlpha"/>
<feOffset dy="10"/>
<feGaussianBlur stdDeviation="7"/>
<feComposite in2="hardAlpha" operator="out"/>
<feColorMatrix type="matrix" values="0 0 0 0 0 0 0 0 0 0 0 0 0 0 0 0 0 0 0.21 0"/>
<feBlend mode="normal" in2="BackgroundImageFix" result="effect1_dropShadow_219_7830"/>
<feColorMatrix in="SourceAlpha" type="matrix" values="0 0 0 0 0 0 0 0 0 0 0 0 0 0 0 0 0 0 127 0" result="hardAlpha"/>
<feOffset dx="-2" dy="-3"/>
<feGaussianBlur stdDeviation="5"/>
<feComposite in2="hardAlpha" operator="out"/>
<feColorMatrix type="matrix" values="0 0 0 0 1 0 0 0 0 1 0 0 0 0 1 0 0 0 0.68 0"/>
<feBlend mode="normal" in2="effect1_dropShadow_219_7830" result="effect2_dropShadow_219_7830"/>
<feBlend mode="normal" in="SourceGraphic" in2="effect2_dropShadow_219_7830" result="shape"/>
</filter>
<linearGradient id="paint0_linear_219_7830" x1="44.4547" y1="73.917" x2="44.4547" y2="13" gradientUnits="userSpaceOnUse">
<stop stop-color="#152982"/>
<stop offset="1" stop-color="#677DDD"/>
</linearGradient>
</defs>
</svg>
