<svg width="242" height="30" viewBox="0 0 242 30" fill="none" xmlns="http://www.w3.org/2000/svg">
<path d="M26.6858 21.44L26.6858 22.94L26.1974 22.94L25.8026 22.6524L26.6858 21.44ZM241.82 21.44C241.82 25.8583 238.238 29.44 233.82 29.44C229.402 29.44 225.82 25.8583 225.82 21.44C225.82 17.0217 229.402 13.44 233.82 13.44C238.238 13.44 241.82 17.0218 241.82 21.44ZM0.883026 0.787568L27.569 20.2276L25.8026 22.6524L-0.883392 3.21239L0.883026 0.787568ZM26.6858 19.94L233.82 19.94L233.82 22.94L26.6858 22.94L26.6858 19.94Z" fill="url(#paint0_linear_103_25750)"/>
<defs>
<linearGradient id="paint0_linear_103_25750" x1="41.3876" y1="-33.6399" x2="237.403" y2="1.38854" gradientUnits="userSpaceOnUse">
<stop stop-color="#002FFF"/>
<stop offset="1" stop-color="#8613CC"/>
</linearGradient>
</defs>
</svg>
