<svg width="70" height="70" viewBox="0 0 70 70" fill="none" xmlns="http://www.w3.org/2000/svg">
<g filter="url(#filter0_ii_182_14728)">
<path d="M0 17.5C0 15.1794 0.921872 12.9538 2.56282 11.3128C4.20376 9.67187 6.42936 8.75 8.75 8.75H61.25C63.5706 8.75 65.7962 9.67187 67.4372 11.3128C69.0781 12.9538 70 15.1794 70 17.5V39.375H0V17.5ZM50.3125 21.875C49.7323 21.875 49.1759 22.1055 48.7657 22.5157C48.3555 22.9259 48.125 23.4823 48.125 24.0625V28.4375C48.125 29.0177 48.3555 29.5741 48.7657 29.9843C49.1759 30.3945 49.7323 30.625 50.3125 30.625H59.0625C59.6427 30.625 60.1991 30.3945 60.6093 29.9843C61.0195 29.5741 61.25 29.0177 61.25 28.4375V24.0625C61.25 23.4823 61.0195 22.9259 60.6093 22.5157C60.1991 22.1055 59.6427 21.875 59.0625 21.875H50.3125ZM0 48.125V52.5C0 54.8206 0.921872 57.0462 2.56282 58.6872C4.20376 60.3281 6.42936 61.25 8.75 61.25H61.25C63.5706 61.25 65.7962 60.3281 67.4372 58.6872C69.0781 57.0462 70 54.8206 70 52.5V48.125H0Z" fill="url(#paint0_linear_182_14728)"/>
</g>
<defs>
<filter id="filter0_ii_182_14728" x="0" y="-4" width="72" height="78" filterUnits="userSpaceOnUse" color-interpolation-filters="sRGB">
<feFlood flood-opacity="0" result="BackgroundImageFix"/>
<feBlend mode="normal" in="SourceGraphic" in2="BackgroundImageFix" result="shape"/>
<feColorMatrix in="SourceAlpha" type="matrix" values="0 0 0 0 0 0 0 0 0 0 0 0 0 0 0 0 0 0 127 0" result="hardAlpha"/>
<feOffset dx="2" dy="4"/>
<feGaussianBlur stdDeviation="4"/>
<feComposite in2="hardAlpha" operator="arithmetic" k2="-1" k3="1"/>
<feColorMatrix type="matrix" values="0 0 0 0 1 0 0 0 0 1 0 0 0 0 1 0 0 0 0.65 0"/>
<feBlend mode="normal" in2="shape" result="effect1_innerShadow_182_14728"/>
<feColorMatrix in="SourceAlpha" type="matrix" values="0 0 0 0 0 0 0 0 0 0 0 0 0 0 0 0 0 0 127 0" result="hardAlpha"/>
<feOffset dy="-4"/>
<feGaussianBlur stdDeviation="2"/>
<feComposite in2="hardAlpha" operator="arithmetic" k2="-1" k3="1"/>
<feColorMatrix type="matrix" values="0 0 0 0 0 0 0 0 0 0 0 0 0 0 0 0 0 0 0.25 0"/>
<feBlend mode="normal" in2="effect1_innerShadow_182_14728" result="effect2_innerShadow_182_14728"/>
</filter>
<linearGradient id="paint0_linear_182_14728" x1="35" y1="8.75" x2="35" y2="61.25" gradientUnits="userSpaceOnUse">
<stop stop-color="#62DAF3"/>
<stop offset="1" stop-color="#2289AC"/>
</linearGradient>
</defs>
</svg>
