<svg width="400" height="447" viewBox="0 0 400 447" fill="none" xmlns="http://www.w3.org/2000/svg">
<path d="M0 57.5423C0 27.1685 26.8592 3.81083 56.939 8.02612L356.939 50.0671C381.631 53.5274 400 74.6501 400 99.5833V396.232C400 423.847 377.614 446.232 350 446.232H50C22.3858 446.232 0 423.847 0 396.232V57.5423Z" fill="white"/>
<mask id="mask0_0_1" style="mask-type:alpha" maskUnits="userSpaceOnUse" x="0" y="7" width="400" height="440">
<path d="M0 57.5423C0 27.1685 26.8592 3.81083 56.939 8.02613L356.939 50.0671C381.631 53.5274 400 74.6501 400 99.5833V396.232C400 423.847 377.614 446.232 350 446.232H50C22.3858 446.232 0 423.847 0 396.232V57.5423Z" fill="white"/>
</mask>
<g mask="url(#mask0_0_1)">
<path d="M139.881 180.34C174.094 89.1058 125.626 18.7792 97.1148 -4.97976C76.9197 -21.611 26.5507 -48.4587 -13.3644 -22.799C-51.5725 1.76335 -31.8716 292.794 -15.5292 453.618C-14.3159 465.557 -4.48514 474.617 7.51236 474.919C136.566 478.169 359.058 479.86 359.058 463.666C359.058 442.283 323.419 385.261 241.451 385.261C159.482 385.261 97.1148 294.383 139.881 180.34Z" fill="url(#paint0_linear_0_1)"/>
</g>
<defs>
<linearGradient id="paint0_linear_0_1" x1="41.8752" y1="-13.8894" x2="205.812" y2="477.03" gradientUnits="userSpaceOnUse">
<stop stop-color="white"/>
<stop offset="1" stop-color="#C4C4C4" stop-opacity="0"/>
</linearGradient>
</defs>
</svg>
