<svg width="543" height="62" viewBox="0 0 543 62" fill="none" xmlns="http://www.w3.org/2000/svg">
<path d="M507.457 21.9999V17.9999L508.525 17.9999L509.452 18.5332L507.457 21.9999ZM0.666666 21.9999C0.666666 10.2179 10.2179 0.666615 22 0.666615C33.7821 0.666615 43.3333 10.2179 43.3333 21.9999C43.3333 33.782 33.7821 43.3333 22 43.3333C10.2179 43.3333 0.666666 33.782 0.666666 21.9999ZM568.005 61.4667L505.461 25.4667L509.452 18.5332L571.995 54.5333L568.005 61.4667ZM507.457 25.9999L22 25.9999L22 17.9999L507.457 17.9999V25.9999Z" fill="url(#paint0_linear_16_9752)"/>
<defs>
<linearGradient id="paint0_linear_16_9752" x1="473" y1="124" x2="22" y2="21.9999" gradientUnits="userSpaceOnUse">
<stop stop-color="#62DAF3"/>
<stop offset="1" stop-color="#6F0174"/>
</linearGradient>
</defs>
</svg>
