<svg width="428" height="46" viewBox="0 0 428 46" fill="none" xmlns="http://www.w3.org/2000/svg">
<path d="M395.125 38L395.125 39.5L395.61 39.5L396.003 39.2163L395.125 38ZM3.14722e-06 38.0001C3.53348e-06 42.4183 3.58173 46.0001 8 46.0001C12.4183 46.0001 16 42.4183 16 38.0001C16 33.5818 12.4183 30.0001 8 30.0001C3.58172 30.0001 2.76097e-06 33.5818 3.14722e-06 38.0001ZM444.122 0.783703L394.247 36.7838L396.003 39.2163L445.878 3.21622L444.122 0.783703ZM395.125 36.5L8 36.5001L8 39.5001L395.125 39.5L395.125 36.5Z" fill="url(#paint0_linear_1077_12605)"/>
<defs>
<linearGradient id="paint0_linear_1077_12605" x1="367.648" y1="-63.9998" x2="1.51338" y2="2.03374" gradientUnits="userSpaceOnUse">
<stop stop-color="#002FFF"/>
<stop offset="1" stop-color="#8613CC"/>
</linearGradient>
</defs>
</svg>
