<svg width="288" height="45" viewBox="0 0 288 45" fill="none" xmlns="http://www.w3.org/2000/svg">
<path d="M26.9451 8.00054L26.9451 6.50054L26.6238 6.50054L26.3307 6.63216L26.9451 8.00054ZM288 8.00054C288 3.58226 284.418 0.000541301 280 0.000541687C275.582 0.000542073 272 3.58226 272 8.00054C272 12.4188 275.582 16.0005 280 16.0005C284.418 16.0005 288 12.4188 288 8.00054ZM-50.3856 44.3684L27.5596 9.36893L26.3307 6.63216L-51.6145 41.6316L-50.3856 44.3684ZM26.9451 9.50054L280 9.50054L280 6.50054L26.9451 6.50054L26.9451 9.50054Z" fill="url(#paint0_linear_497_1474)"/>
<defs>
<linearGradient id="paint0_linear_497_1474" x1="-201.552" y1="110" x2="276.74" y2="-5.50018" gradientUnits="userSpaceOnUse">
<stop stop-color="#002FFF"/>
<stop offset="1" stop-color="#8613CC"/>
</linearGradient>
</defs>
</svg>
