<svg width="77" height="52" viewBox="0 0 77 52" fill="none" xmlns="http://www.w3.org/2000/svg">
<g style="mix-blend-mode:multiply" opacity="0.49">
<path opacity="0.01" d="M73.8711 6.99982C69.4571 -1.92736 49.7181 -1.13382 29.7311 8.73567C9.74419 18.6052 -2.85306 33.831 1.56094 42.7085C5.97493 51.5861 35.5338 55.9009 55.4712 46.0314C75.4086 36.162 78.2851 15.927 73.8711 6.99982Z" fill="#FDFDFD"/>
<path opacity="0.02" d="M73.5528 7.10232C69.1884 -1.77526 49.499 -1.03133 29.6609 8.78857C9.82268 18.6085 -2.77456 33.5863 1.63943 42.6623C6.05342 51.7382 35.4139 55.805 55.2521 45.9851C75.0903 36.1653 77.9668 16.0295 73.5528 7.10232Z" fill="#FBFBFB"/>
<path opacity="0.02" d="M73.2453 7.24412C68.8809 -1.63346 49.2907 -0.889538 29.5021 8.88076C9.71352 18.6511 -2.73494 33.6785 1.62946 42.6553C5.99386 51.632 35.2056 55.6989 54.9942 45.9286C74.7827 36.1583 77.6097 16.1217 73.2453 7.24412Z" fill="#F9F9F9"/>
<path opacity="0.03" d="M72.896 7.34185C68.5316 -1.48614 49.0406 -0.742222 29.4008 8.97849C9.76101 18.6992 -2.73704 33.7762 1.62736 42.6042C5.99176 51.4322 35.0547 55.5982 54.7441 45.8775C74.4335 36.1568 77.3596 16.1698 72.896 7.34185Z" fill="#F7F7F7"/>
<path opacity="0.04" d="M72.4001 7.49146C68.0357 -1.33652 48.6439 -0.592594 29.0537 9.07852C9.46353 18.7496 -2.88574 33.8762 1.47866 42.5554C5.84306 51.2346 34.7076 55.4998 54.2978 45.8287C73.888 36.1576 76.9629 16.2699 72.4001 7.49146Z" fill="#F5F5F5"/>
<path opacity="0.05" d="M72.4051 7.58903C68.0407 -1.13977 48.7481 -0.445437 29.2075 9.17608C9.66686 18.7976 -2.53362 33.7258 1.78119 42.5042C6.09599 51.2826 34.8613 55.399 54.3524 45.7775C73.8434 36.156 76.6207 16.3674 72.4051 7.58903Z" fill="#F3F3F3"/>
<path opacity="0.05" d="M71.9386 7.73852C67.6238 -0.990282 48.3808 -0.345535 28.989 9.27598C9.59715 18.8975 -2.65292 33.7265 1.66188 42.4553C5.97668 51.1841 34.5933 55.3005 53.9851 45.7286C73.3769 36.1567 76.2534 16.4673 71.9386 7.73852Z" fill="#F1F1F1"/>
<path opacity="0.06" d="M71.6772 7.84794C67.3624 -0.831267 48.2186 -0.186519 28.8764 9.3854C9.53413 18.9573 -2.56716 33.7368 1.74764 42.416C6.06245 51.0952 34.431 55.2116 53.7733 45.6893C73.1155 36.1669 75.9424 16.5767 71.6772 7.84794Z" fill="#F0F0F0"/>
<path opacity="0.07" d="M71.3279 7.98787C67.0627 -0.691333 47.9685 -0.0465961 28.775 9.47573C9.58158 18.9981 -2.5693 33.6783 1.7455 42.3575C6.0603 51.0367 34.2801 55.1035 53.5231 45.6308C72.7662 36.1581 75.6427 16.6671 71.3279 7.98787Z" fill="#EEEEEE"/>
<path opacity="0.08" d="M71.0204 8.09074C66.7056 -0.538866 47.7601 0.105879 28.6163 9.52901C9.47241 18.9521 -2.52968 33.682 1.73552 42.3116C6.00073 50.9412 34.1213 55.008 53.2156 45.5849C72.3098 36.1618 75.2856 16.7699 71.0204 8.09074Z" fill="#ECECEC"/>
<path opacity="0.08" d="M70.663 8.24242C66.3978 -0.387188 47.502 0.257566 28.5069 9.6311C9.51185 19.0046 -2.49024 33.6849 1.77496 42.3145C6.04017 50.9441 33.9624 54.9613 52.9575 45.5382C71.9525 36.1151 74.9282 16.872 70.663 8.24242Z" fill="#EAEAEA"/>
<path opacity="0.09" d="M70.3707 8.33808C66.1054 -0.241933 47.3088 0.353225 28.3633 9.72676C9.41785 19.1003 -2.48506 33.6318 1.78015 42.2614C6.04536 50.891 33.7692 54.8586 52.5659 45.3859C71.3626 35.9132 74.5863 16.9677 70.3707 8.33808Z" fill="#E8E8E8"/>
<path opacity="0.1" d="M70.0086 8.48981C65.793 -0.0902057 47.0955 0.504942 28.2492 9.82889C9.40294 19.1528 -2.45037 33.6347 1.76524 42.2147C5.98085 50.7947 33.6055 54.7623 52.551 45.3888C71.4964 36.0153 74.2738 17.0698 70.0086 8.48981Z" fill="#E6E6E6"/>
<path opacity="0.11" d="M69.698 8.58749C65.4823 0.0570767 46.8345 0.652206 28.0874 9.92655C9.34031 19.2009 -2.4138 33.6332 1.80181 42.1636C6.01742 50.694 33.4437 54.6616 52.1908 45.3873C70.9379 36.113 73.9136 17.1675 69.698 8.58749Z" fill="#E4E4E4"/>
<path opacity="0.11" d="M69.3511 8.73727C65.1354 0.206858 46.6363 0.801995 27.9885 10.0267C9.34057 19.2515 -2.41355 33.6342 1.80206 42.115C6.01768 50.5958 33.2952 54.5635 51.9431 45.3387C70.5909 36.114 73.5667 17.2677 69.3511 8.73727Z" fill="#E2E2E2"/>
<path opacity="0.12" d="M69.088 8.8369C64.8724 0.356081 46.4228 0.951218 27.8742 10.1264C9.32546 19.3015 -2.32947 33.585 1.83655 42.0659C6.00256 50.5467 33.1809 54.4647 51.7296 45.2895C70.2783 36.1144 73.254 17.3177 69.088 8.8369Z" fill="#E0E0E0"/>
<path opacity="0.13" d="M68.7329 8.98672C64.5668 0.505898 46.2165 1.05145 27.7174 10.2266C9.21832 19.4018 -2.03984 33.5861 1.8782 42.0173C5.79624 50.4485 32.9745 54.3666 51.4736 45.241C69.9727 36.1154 72.8989 17.4179 68.7329 8.98672Z" fill="#DEDEDE"/>
<path opacity="0.14" d="M68.4241 9.07805C64.2581 0.696422 45.9574 1.19237 27.6071 10.2683C9.25675 19.3443 -2.1502 33.5782 1.86703 42.0094C5.88426 50.4406 32.8146 54.2595 51.4625 45.1835C70.1104 36.1076 72.3918 17.5093 68.4241 9.07805Z" fill="#DCDCDC"/>
<path opacity="0.14" d="M68.0964 9.22989C63.98 0.848257 45.7785 1.34421 27.4778 10.3706C9.17705 19.397 -2.27949 33.5317 1.88653 41.9629C6.05254 50.3941 32.6853 54.1634 50.986 45.137C69.2867 36.1106 72.4112 17.6115 68.0964 9.22989Z" fill="#DADADA"/>
<path opacity="0.15" d="M67.7934 9.32949C63.6274 0.997458 45.5747 1.49341 27.3731 10.4702C9.17161 19.447 -1.98736 33.5321 1.93068 41.9137C5.84872 50.2953 32.5311 54.0646 50.683 45.0878C68.8349 36.111 71.9098 17.7111 67.7934 9.32949Z" fill="#D8D8D8"/>
<path opacity="0.16" d="M67.449 9.47939C63.3325 1.14736 45.3294 1.64332 27.2271 10.5705C9.12473 19.4977 -1.98465 33.5332 1.93339 41.8652C5.85143 50.1973 32.385 53.9665 50.4377 45.0393C68.4905 36.1122 71.5654 17.8114 67.449 9.47939Z" fill="#D6D6D6"/>
<path opacity="0.17" d="M67.1516 9.57522C63.0352 1.29279 45.1313 1.73915 27.1281 10.6663C9.12497 19.5935 -1.9844 33.5298 1.93364 41.8123C5.85168 50.0947 32.1869 53.8639 50.19 44.9864C68.1932 36.1088 71.2681 17.9073 67.1516 9.57522Z" fill="#D5D5D5"/>
<path opacity="0.17" d="M66.7919 9.72713C62.7251 1.44469 44.8707 1.89105 27.1155 10.7686C9.36037 19.6462 -1.99698 33.4833 1.97065 41.7658C5.93829 50.0482 32.0255 53.7679 49.9294 44.9399C67.8334 36.1119 70.9083 18.0096 66.7919 9.72713Z" fill="#D3D3D3"/>
<path opacity="0.18" d="M66.5142 9.82672C62.4474 1.59388 44.6922 2.04023 26.8378 10.8682C8.98348 19.6962 -1.97711 33.4837 1.99052 41.7166C5.95816 49.9494 31.7478 53.6691 49.7013 44.8907C67.6549 36.1123 70.581 18.1092 66.5142 9.82672Z" fill="#D1D1D1"/>
<path opacity="0.19" d="M66.1648 9.97473C62.098 1.74189 44.442 2.18825 26.7365 10.9666C9.0309 19.745 -1.97929 33.483 1.98835 41.6662C5.95598 49.8495 31.7456 53.5691 49.4512 44.8403C67.1568 36.1115 70.2317 18.2076 66.1648 9.97473Z" fill="#CFCFCF"/>
<path opacity="0.2" d="M65.8614 10.07C61.7945 1.88677 44.2378 2.33312 26.6314 11.0123C9.02499 19.6915 -2.0348 33.4295 1.83365 41.6623C5.70209 49.8951 31.5909 53.466 48.9989 44.7868C66.4069 36.1076 69.9282 18.3029 65.8614 10.07Z" fill="#CDCDCD"/>
<path opacity="0.2" d="M65.494 10.222C61.4768 2.03872 44.0192 2.48508 26.4624 11.1147C8.90564 19.7443 -2.00536 33.4326 2.01187 41.6159C6.0291 49.7991 31.3724 53.37 48.9292 44.7404C66.486 36.1108 69.5609 18.4052 65.494 10.222Z" fill="#CBCBCB"/>
<path opacity="0.21" d="M65.207 10.3179C61.1898 2.18426 43.7818 2.58102 26.3242 11.2106C8.86661 19.8402 -1.99479 33.4294 2.07204 41.563C6.13886 49.6967 31.2342 53.2676 48.6917 44.6876C66.1493 36.1075 69.2243 18.4516 65.207 10.3179Z" fill="#C9C9C9"/>
<path opacity="0.22" d="M64.8601 10.6711C60.8925 2.53744 43.5837 2.9342 26.2253 11.5142C8.86689 20.0942 -1.9945 33.4354 2.07232 41.5195C6.13915 49.6035 31.0857 53.1744 48.4441 44.644C65.8025 36.1136 68.8774 18.5568 64.8601 10.6711Z" fill="#C7C7C7"/>
<path opacity="0.23" d="M64.5656 10.6733C60.5979 2.63883 43.3387 2.98599 26.0795 11.5164C8.82031 20.0468 -1.9915 33.388 2.07533 41.4721C6.14215 49.5561 30.9399 53.0774 48.1495 44.5966C65.3591 36.1157 68.5828 18.6582 64.5656 10.6733Z" fill="#C5C5C5"/>
<path opacity="0.23" d="M64.2762 10.671C60.2589 2.63658 43.1485 2.98375 25.9885 11.4646C8.82846 19.9454 -1.98335 33.3858 2.13307 41.4202C6.24949 49.4547 30.7496 53.0256 47.9097 44.5447C65.0697 36.0639 68.2438 18.7551 64.2762 10.671Z" fill="#C3C3C3"/>
<path opacity="0.24" d="M63.9243 10.671C59.9566 2.68613 42.8958 3.0333 25.835 11.4645C8.77413 19.8958 -1.83929 33.2369 2.12834 41.2218C6.09598 49.2067 30.5961 52.7775 47.657 44.3463C64.7178 35.9151 67.8919 18.8542 63.9243 10.671Z" fill="#C1C1C1"/>
<path opacity="0.25" d="M63.6115 10.9619C59.6438 2.97705 42.6822 3.27462 25.7206 11.6563C8.75892 20.0379 -1.80491 33.3295 2.11313 41.4135C6.03117 49.4976 30.4321 52.9197 47.3938 44.538C64.3554 36.1564 67.4303 18.9468 63.6115 10.9619Z" fill="#BFBFBF"/>
<path opacity="0.26" d="M63.2776 11.0712C59.3596 3.13597 42.4971 3.43354 25.5851 11.7656C8.67303 20.0976 -1.79161 33.3396 2.17603 41.5228C6.14366 49.7061 30.2966 52.9298 47.1591 44.5482C64.0215 36.1665 67.4436 19.0561 63.2776 11.0712Z" fill="#BDBDBD"/>
<path opacity="0.27" d="M62.9622 11.2117C59.0441 3.27639 42.2313 3.57397 25.468 11.8564C8.70473 20.1389 -1.75991 33.3312 2.15813 41.2665C6.07617 49.2018 30.13 52.6239 46.794 44.2918C63.4581 35.9598 66.8802 19.1469 62.9622 11.2117Z" fill="#BBBBBB"/>
<path opacity="0.27" d="M62.4643 11.3093C58.5463 3.4236 41.8822 3.72116 25.1686 11.954C8.45489 20.1868 -1.91056 33.3296 2.00748 41.2153C5.92552 49.101 29.7809 52.5231 46.6434 44.2406C63.5058 35.9582 66.5312 19.2445 62.4643 11.3093Z" fill="#B9B9B9"/>
<path opacity="0.28" d="M62.4692 11.4614C58.5511 3.57577 41.9366 3.87333 25.3718 12.0566C8.80689 20.2398 -1.55856 33.2834 2.35948 41.1691C6.27752 49.0548 29.9345 52.4273 46.549 44.1944C63.1635 35.9616 66.1888 19.3471 62.4692 11.4614Z" fill="#B8B8B8"/>
<path opacity="0.29" d="M61.9948 11.5576C58.1264 3.72151 41.6111 3.96948 25.0958 12.1527C8.58053 20.336 -1.63613 33.2804 2.23232 41.1165C6.10076 48.9525 29.6586 52.325 46.1739 44.1418C62.6892 35.9585 65.8633 19.4433 61.9948 11.5576Z" fill="#B6B6B6"/>
<path opacity="0.3" d="M61.7003 11.7098C57.8319 3.87372 41.3662 4.1217 24.9501 12.2554C8.53399 20.389 -1.63308 33.2838 2.23537 41.0703C6.10381 48.8568 29.5129 52.2293 45.929 44.0956C62.345 35.962 65.5687 19.5459 61.7003 11.7098Z" fill="#B4B4B4"/>
<path opacity="0.3" d="M61.3457 11.8074C57.5268 4.02091 41.1603 4.26889 24.8434 12.3529C8.52653 20.437 -1.59094 33.2326 2.27751 41.0191C6.14595 48.8056 29.307 52.1285 45.6735 44.0444C62.04 35.9604 65.2141 19.5939 61.3457 11.8074Z" fill="#B2B2B2"/>
<path opacity="0.31" d="M61.0381 11.9562C57.1697 4.21932 40.952 4.4177 24.6847 12.4026C8.41737 20.3874 -1.55131 33.2327 2.26754 41.0191C6.08638 48.8056 29.1483 52.0293 45.366 43.9949C61.5837 35.9604 64.857 19.6931 61.0381 11.9562Z" fill="#B0B0B0"/>
<path opacity="0.32" d="M60.6966 12.0538C56.8777 4.3665 40.8584 4.56488 24.5911 12.5002C8.3238 20.4354 -1.54569 33.2311 2.27316 40.9679C6.09201 48.7048 29.0051 51.9285 45.1236 43.9437C61.2421 35.9588 64.5154 19.7907 60.6966 12.0538Z" fill="#AEAEAE"/>
<path opacity="0.33" d="M60.3918 12.2048C56.5729 4.51755 40.5536 4.66632 24.4351 12.6016C8.31657 20.5369 -1.50333 33.2333 2.31552 40.9206C6.13437 48.6079 28.8491 51.8316 44.8684 43.8963C60.8877 35.9611 64.2106 19.8921 60.3918 12.2048Z" fill="#ACACAC"/>
<path opacity="0.33" d="M60.0603 12.3024C56.291 4.66472 40.2221 4.8135 24.3515 12.6992C8.48099 20.5848 -1.4381 33.1821 2.33115 40.8694C6.10041 48.5567 28.7159 51.7308 44.6361 43.8451C60.5562 35.9594 63.8791 19.9897 60.0603 12.3024Z" fill="#AAAAAA"/>
<path opacity="0.34" d="M59.7631 12.4528C55.9939 4.81514 39.9249 4.96393 24.2032 12.8C8.48143 20.6361 -1.43766 33.1837 2.3316 40.8214C6.10085 48.4591 28.518 51.6332 44.3885 43.7972C60.2591 35.9611 63.5324 20.0905 59.7631 12.4528Z" fill="#A8A8A8"/>
<path opacity="0.35" d="M59.4138 12.5524C55.6446 4.96427 39.8236 5.11305 24.1019 12.8995C8.38011 20.686 -1.39019 33.1841 2.37906 40.7722C6.14832 48.3603 28.3671 51.5344 44.1384 43.7479C59.9098 35.9614 63.1831 20.1901 59.4138 12.5524Z" fill="#A6A6A6"/>
<path opacity="0.36" d="M59.1221 12.7028C55.3528 5.11471 39.6311 5.26351 23.9589 13.0004C8.28677 20.7373 -1.38434 33.1361 2.38491 40.7242C6.15417 48.3124 28.2241 51.4369 43.8963 43.7C59.5685 35.9631 62.8418 20.2909 59.1221 12.7028Z" fill="#A4A4A4"/>
<path opacity="0.36" d="M58.7457 12.8012C55.0261 5.26265 39.4035 5.36184 24.0289 13.0987C8.65434 20.8356 -1.16555 32.9369 2.5541 40.6738C6.27376 48.4107 28.2445 51.3368 43.8175 43.6495C59.3905 35.9622 62.4654 20.5876 58.7457 12.8012Z" fill="#A2A2A2"/>
<path opacity="0.37" d="M58.4594 12.9527C54.7398 5.41418 39.1668 5.51337 23.7426 12.9527C8.31845 20.392 -1.05509 32.7909 2.46619 40.4781C5.98747 48.1654 27.9582 51.042 43.432 43.4043C58.9058 35.7666 62.1791 20.5904 58.4594 12.9527Z" fill="#A0A0A0"/>
<path opacity="0.38" d="M58.101 13.0522C54.4309 5.56329 38.9571 5.66248 23.3842 13.0522C7.8112 20.4419 -1.41355 32.8904 2.25651 40.4289C5.92658 47.9674 27.5502 50.9927 42.9744 43.355C58.3985 35.7173 61.8206 20.5907 58.101 13.0522Z" fill="#9E9E9E"/>
<path opacity="0.39" d="M57.8321 13.1967C54.162 5.70783 38.7378 5.80702 23.4624 13.1967C8.18702 20.5865 -1.33531 33.0349 2.43395 40.4246C6.2032 47.8144 27.7772 51.0877 42.6558 43.4996C57.5345 35.9115 61.5021 20.5865 57.8321 13.1967Z" fill="#9C9C9C"/>
<path opacity="0.39" d="M57.5295 13.2943C53.8594 5.85499 38.584 5.95418 23.3582 13.2943C8.13243 20.6344 -1.14192 33.1325 2.52814 40.3734C6.1982 47.6144 27.3259 50.8381 42.6509 43.2996C57.9758 35.7611 61.1996 20.5848 57.5295 13.2943Z" fill="#9B9B9B"/>
<path opacity="0.4" d="M57.1904 13.4485C53.5203 6.05882 38.2945 6.05882 23.2175 13.4485C8.14052 20.8383 -1.18342 33.0883 2.48664 40.4285C6.1567 47.7686 27.2844 50.8435 42.163 43.3546C57.0416 35.8657 60.8605 20.8383 57.1904 13.4485Z" fill="#999999"/>
<path opacity="0.41" d="M56.8829 13.5481C53.2128 6.20794 38.0862 6.20794 23.0588 13.5481C8.03137 20.8882 -1.14378 33.0391 2.47668 40.4288C6.09715 47.8185 27.2744 50.7942 42.153 43.3549C57.0317 35.9156 60.5034 20.9378 56.8829 13.5481Z" fill="#979797"/>
<path opacity="0.42" d="M56.5444 13.6945C52.924 6.35442 37.8966 6.35442 22.9683 13.6945C8.0401 21.0347 -1.13505 33.0368 2.53501 40.4265C6.20507 47.8162 26.936 50.7423 41.8642 43.3526C56.7924 35.9629 60.1649 21.0347 56.5444 13.6945Z" fill="#959595"/>
<path opacity="0.42" d="M56.2369 13.7957C52.5669 6.50517 37.6882 6.50516 22.8096 13.8453C7.93098 21.1854 -1.0954 33.0387 2.52507 40.4284C6.14554 47.8182 26.7772 50.6947 41.6063 43.3546C56.4353 36.0145 59.8574 21.1358 56.2369 13.7957Z" fill="#939393"/>
<path opacity="0.43" d="M55.8713 13.9464C52.2508 6.65588 37.4218 6.65588 22.6919 13.9464C7.96209 21.2369 -1.06428 33.0407 2.50659 40.4304C6.07746 47.8201 26.61 50.5975 41.3398 43.3069C56.0697 36.0164 59.4918 21.2369 55.8713 13.9464Z" fill="#919191"/>
<path opacity="0.44" d="M55.5651 14.045C51.9447 6.80408 37.1652 6.75449 22.5346 14.045C7.90391 21.3355 -1.07286 33.0401 2.69639 40.3306C6.46564 47.6211 26.6014 50.2497 41.2321 43.2071C55.8627 36.1646 59.136 21.3355 55.5651 14.045Z" fill="#8F8F8F"/>
<path opacity="0.45" d="M55.2226 14.1895C51.6517 6.94861 36.9714 6.89902 22.44 14.1895C7.90851 21.4801 -1.01867 32.9862 2.5522 40.4255C6.12307 47.8649 26.2588 50.3446 40.8399 43.3021C55.4209 36.2595 58.7934 21.4305 55.2226 14.1895Z" fill="#8D8D8D"/>
<path opacity="0.45" d="M54.9513 14.2871C51.3804 7.09578 36.7498 7.04618 22.3175 14.2871C7.88523 21.5281 -0.942759 32.9846 2.57852 40.4239C6.09979 47.8632 26.1364 50.343 40.6182 43.3005C55.1001 36.2579 58.4726 21.5281 54.9513 14.2871Z" fill="#8B8B8B"/>
<path opacity="0.46" d="M54.5799 14.4336C51.0586 7.24226 36.5271 7.19267 22.1444 14.4336C7.76177 21.6745 -0.967029 33.0815 2.60384 40.2728C6.17472 47.4642 25.9633 50.1919 40.2964 43.1494C54.6295 36.1068 58.1507 21.6249 54.5799 14.4336Z" fill="#898989"/>
<path opacity="0.47" d="M54.2977 14.5409C50.7268 7.39919 36.3442 7.3496 22.0607 14.5409C7.77718 21.7323 -0.902029 33.0896 2.61925 40.2314C6.14052 47.3731 25.8299 50.1505 40.0638 43.1079C54.2977 36.0654 57.819 21.7323 54.2977 14.5409Z" fill="#878787"/>
<path opacity="0.48" d="M53.9378 14.6865C50.4165 7.54479 36.0834 7.4456 21.8991 14.6865C7.7148 21.9275 -0.865216 33.136 2.60646 40.2282C6.07815 47.3203 25.6683 50.1473 39.803 43.1047C53.9377 36.0622 57.5086 21.8283 53.9378 14.6865Z" fill="#858585"/>
<path opacity="0.48" d="M53.657 14.7841C50.1357 7.69196 35.9019 7.59277 21.8168 14.7841C7.73165 21.9754 -0.84836 33.1344 2.67292 40.177C6.19419 47.2195 25.4868 50.096 39.5719 43.0535C53.657 36.0109 57.1287 21.8763 53.657 14.7841Z" fill="#838383"/>
<path opacity="0.49" d="M53.297 14.9309C49.8254 7.88838 35.6411 7.73959 21.6552 14.6334C7.66924 21.5271 -0.81158 32.8845 2.6601 39.9766C6.13178 47.0688 25.3252 49.8957 39.3111 42.8036C53.297 35.7114 56.8183 21.9735 53.297 14.9309Z" fill="#818181"/>
<path opacity="0.5" d="M52.9998 15.0285C49.5281 8.03556 35.443 7.88677 21.5563 14.7309C7.66959 21.5751 -0.811236 32.8829 2.66045 39.9254C6.13213 46.968 25.1768 49.8445 39.0635 42.7524C52.9502 35.6602 56.4715 22.0711 52.9998 15.0285Z" fill="#808080"/>
<path opacity="0.51" d="M52.5627 15.1815C49.091 8.18856 35.1051 8.03978 21.3176 14.8344C7.53006 21.6289 -0.851571 32.8871 2.62011 39.6321C6.09179 46.3771 24.9381 49.2536 38.7256 42.459C52.5131 35.6644 56.1336 22.1745 52.5627 15.1815Z" fill="#7E7E7E"/>
<path opacity="0.52" d="M52.5617 15.2791C49.09 8.33574 35.2033 8.18695 21.515 14.9319C7.82662 21.6769 -0.50541 32.8359 2.91668 39.7297C6.33876 46.6234 25.0362 49.3016 38.7742 42.5566C52.5121 35.8116 55.7854 22.2721 52.5617 15.2791Z" fill="#7C7C7C"/>
<path opacity="0.52" d="M52.0034 15.623C48.5813 8.67964 34.7938 8.48125 21.155 15.2262C7.51628 21.9712 -0.716558 33.031 2.75512 40.024C6.2268 47.0169 24.6763 49.5959 38.3151 42.8509C51.9538 36.1059 55.4751 22.368 52.0034 15.623Z" fill="#7A7A7A"/>
<path opacity="0.53" d="M51.7181 15.6249C48.296 8.73112 34.558 8.53273 21.0681 15.2281C7.57811 21.9235 -0.654735 32.9337 2.76735 40.0258C6.18944 47.118 24.5397 49.5482 38.0793 42.8528C51.6189 36.1574 55.1401 22.4691 51.7181 15.6249Z" fill="#787878"/>
<path opacity="0.54" d="M51.3592 15.6315C47.9868 8.73775 34.348 8.53937 20.9076 15.1852C7.46728 21.8309 -0.616777 32.8411 2.95409 39.6853C6.52497 46.5295 24.5777 49.158 37.9685 42.5122C51.3592 35.8664 54.7813 22.5749 51.3592 15.6315Z" fill="#767676"/>
<path opacity="0.55" d="M51.0655 15.6236C47.693 8.77947 34.1039 8.58108 20.7627 15.1773C7.42152 21.7735 -0.612945 32.7837 2.95793 39.6774C6.5288 46.5712 24.3832 49.051 37.6747 42.4548C50.9663 35.8586 54.438 22.6662 51.0655 15.6236Z" fill="#747474"/>
<path opacity="0.55" d="M50.741 15.928C47.3685 9.08387 33.9281 8.88549 20.6861 15.3825C7.44416 21.8795 -0.540702 32.7905 2.98057 39.6347C6.50185 46.4788 24.2074 48.9586 37.6974 42.412C51.1873 35.8654 54.1135 22.7722 50.741 15.928Z" fill="#727272"/>
<path opacity="0.56" d="M50.4277 16.0272C47.0552 9.23261 33.6644 8.98463 20.6704 15.4816C7.67641 21.9786 -0.556437 32.7904 2.96484 39.585C6.48612 46.3796 24.0429 48.8594 37.1857 42.3624C50.3285 35.8654 53.8002 22.8714 50.4277 16.0272Z" fill="#707070"/>
<path opacity="0.57" d="M50.097 16.1785C46.7741 9.38393 33.4826 9.13595 20.3398 15.5834C7.19697 22.0308 -0.490324 32.7434 2.98136 39.538C6.45304 46.3325 23.861 48.7627 36.9046 42.3153C49.9482 35.8679 53.4695 22.9731 50.097 16.1785Z" fill="#6E6E6E"/>
<path opacity="0.58" d="M49.7715 16.2781C46.4486 9.53309 33.2562 9.2851 20.0142 15.6829C6.77226 22.0807 -0.468668 32.7438 2.95342 39.4887C6.3755 46.2337 23.6843 48.6639 36.6287 42.2661C49.5731 35.8683 53.0944 23.0231 49.7715 16.2781Z" fill="#6C6C6C"/>
<path opacity="0.58" d="M49.4263 16.4213C46.153 9.72589 33.0103 9.42831 20.165 15.7765C7.31981 22.1247 -0.466672 32.7382 2.95541 39.4336C6.3775 46.1289 23.5375 48.5591 36.3827 42.2109C49.228 35.8627 52.5509 23.1167 49.4263 16.4213Z" fill="#6A6A6A"/>
<path opacity="0.59" d="M49.119 16.5208C45.7961 9.87506 32.8021 9.57748 20.0065 15.8761C7.21083 22.1747 -0.426869 32.7386 2.94562 39.3843C6.31811 46.0301 23.2798 48.4603 36.0754 42.1617C48.871 35.8631 52.5411 23.2162 49.119 16.5208Z" fill="#686868"/>
<path opacity="0.6" d="M48.8488 16.6721C45.5259 10.0263 32.5815 9.67911 19.9346 15.9777C7.28779 22.2764 -0.349912 32.6914 2.97298 39.3372C6.29588 45.983 23.1583 48.3636 35.8548 42.1145C48.5512 35.8655 52.1221 23.3179 48.8488 16.6721Z" fill="#666666"/>
<path opacity="0.61" d="M48.5085 16.7716C45.2352 10.1755 32.39 9.82829 19.7928 16.0773C7.19553 22.3263 -0.342979 32.6918 2.97992 39.3376C6.30281 45.9834 22.8181 48.2648 35.6137 42.0653C48.4093 35.8659 51.7818 23.4174 48.5085 16.7716Z" fill="#646464"/>
<path opacity="0.61" d="M48.2121 16.9205C44.9388 10.3243 32.1431 9.97711 19.6947 16.1269C7.24623 22.2768 -0.143486 32.6918 2.98103 39.288C6.10554 45.8842 22.8192 48.1656 35.2677 42.0158C47.7161 35.8659 51.4358 23.5167 48.2121 16.9205Z" fill="#636363"/>
<path opacity="0.62" d="M47.8512 17.0181C44.6275 10.4715 31.9311 10.1243 19.5322 16.2246C7.13335 22.3248 -0.305963 32.6407 2.96734 39.2369C6.24064 45.8331 22.8055 48.0649 35.006 41.9646C47.2065 35.8644 51.1245 23.6143 47.8512 17.0181Z" fill="#616161"/>
<path opacity="0.63" d="M47.6116 17.1717C44.3383 10.6251 31.7906 10.2779 19.4414 16.3286C7.09211 22.3792 -0.396801 32.6455 3.02528 39.1921C6.44737 45.7387 22.5163 47.9705 34.816 41.9198C47.1156 35.8692 50.7857 23.7183 47.6116 17.1717Z" fill="#5F5F5F"/>
<path opacity="0.64" d="M47.2084 17.2693C43.9847 10.7723 31.4867 10.3755 19.2862 16.4261C7.08571 22.4768 -0.204824 32.6439 2.96928 39.1409C6.14339 45.6379 22.2619 47.8697 34.4624 41.8686C46.6629 35.8676 50.4321 23.8159 47.2084 17.2693Z" fill="#5D5D5D"/>
<path opacity="0.64" d="M46.9178 17.4132C43.6941 10.9162 31.2952 10.5194 19.1443 16.5205C6.99344 22.5215 -0.197896 32.639 2.97621 39.0864C6.15032 45.5338 22.1201 47.7656 34.2213 41.8141C46.3226 35.8627 50.0919 23.9102 46.9178 17.4132Z" fill="#5B5B5B"/>
<path opacity="0.65" d="M46.5511 17.5108C43.377 11.0634 31.0277 10.6667 19.0256 16.6181C7.02355 22.5696 -0.167792 32.5879 2.95672 39.0353C6.08123 45.4827 21.9518 47.6649 33.9539 41.763C45.956 35.8612 49.7748 24.0078 46.5511 17.5108Z" fill="#595959"/>
<path opacity="0.66" d="M46.2437 17.6626C43.0696 11.2152 30.8195 10.8184 18.867 16.7203C6.91454 22.6222 -0.128017 32.5908 2.9469 38.9886C6.02182 45.3865 21.694 47.5687 33.6465 41.7164C45.599 35.8641 49.4178 24.11 46.2437 17.6626Z" fill="#575757"/>
<path opacity="0.67" d="M45.9329 17.7623C42.7588 11.4141 30.6079 10.9677 18.8042 16.82C7.00045 22.6723 -0.0916948 32.5913 2.98322 38.9892C6.05814 45.387 21.5815 47.5196 33.4348 41.6673C45.2881 35.8151 49.107 24.1601 45.9329 17.7623Z" fill="#555555"/>
<path opacity="0.67" d="M45.6255 17.9139C42.4514 11.5657 30.3997 11.0697 18.6456 16.8724C6.89144 22.6751 -0.0519233 32.5446 2.9734 38.9424C5.99872 45.3402 21.4229 47.4232 33.177 41.6205C44.9311 35.8179 48.75 24.2621 45.6255 17.9139Z" fill="#535353"/>
<path opacity="0.68" d="M45.2746 18.0136C42.1501 11.715 30.396 11.219 18.5427 16.9721C6.68938 22.7252 -0.00600696 32.545 2.96972 38.8933C5.94545 45.2415 21.2208 47.3245 32.727 41.5714C44.2331 35.8183 48.3991 24.3618 45.2746 18.0136Z" fill="#515151"/>
<path opacity="0.69" d="M44.9777 18.1558C41.8532 11.8572 30.099 11.3613 18.3945 17.0647C6.68999 22.7682 -0.00539875 32.5385 2.97033 38.8371C5.94605 45.1358 21.0231 47.2188 32.7276 41.5153C44.4321 35.8118 48.1022 24.4545 44.9777 18.1558Z" fill="#4F4F4F"/>
<path opacity="0.7" d="M44.6438 18.2536C41.5689 12.0045 29.7652 11.5086 18.3086 17.1625C6.8521 22.8164 0.057524 32.5371 2.98365 38.7861C5.90979 45.0351 20.8876 47.1181 32.3442 41.4642C43.8007 35.8104 47.6195 24.5522 44.6438 18.2536Z" fill="#4D4D4D"/>
<path opacity="0.7" d="M44.3078 18.4076C41.2328 12.1586 29.4291 11.6626 18.1214 17.2669C6.81361 22.8712 0.0190375 32.4927 2.94517 38.7417C5.8713 44.9908 20.6507 47.0242 32.0081 41.3703C43.3655 35.7164 47.5811 24.6566 44.3078 18.4076Z" fill="#4B4B4B"/>
<path opacity="0.71" d="M43.97 18.5056C40.8951 12.3062 29.0914 11.7606 17.982 17.3649C6.87265 22.9692 0.0780737 32.2436 3.1034 38.691C6.12872 45.1384 20.6602 46.9238 31.9183 41.3195C43.1765 35.7153 47.045 24.7547 43.97 18.5056Z" fill="#494949"/>
<path opacity="0.72" d="M43.67 18.65C40.5951 12.4506 28.7914 11.905 17.8804 17.4597C6.96941 23.0144 0.125238 32.3383 3.00177 38.6866C5.87831 45.0348 20.4098 46.8202 31.5687 41.2655C42.7277 35.7108 46.745 24.8494 43.67 18.65Z" fill="#474747"/>
<path opacity="0.73" d="M43.3465 18.7575C40.3211 12.6077 28.8646 12.0621 17.7552 17.5672C6.64582 23.0723 0.148822 32.4459 3.22374 38.6453C6.29866 44.8447 20.3838 46.7294 31.4931 41.2243C42.6025 35.7192 46.4214 24.957 43.3465 18.7575Z" fill="#464646"/>
<path opacity="0.73" d="M43.0286 18.898C40.0033 12.7482 28.5964 12.2026 17.6358 17.6085C6.67518 23.0144 0.178175 32.4872 3.2035 38.5874C6.22882 44.6876 20.2147 46.6219 31.2249 41.1664C42.2351 35.7109 46.054 25.0478 43.0286 18.898Z" fill="#444444"/>
<path opacity="0.74" d="M42.6328 18.9978C39.657 12.8975 28.3493 12.352 17.4383 17.7083C6.52728 23.0646 0.179059 32.5869 3.15479 38.5384C6.13051 44.4898 20.0172 46.5232 30.9282 41.1173C41.8392 35.7114 45.7077 25.1476 42.6328 18.9978Z" fill="#424242"/>
<path opacity="0.75" d="M42.6417 19.1506C39.6163 13.0504 28.4574 12.4552 17.844 17.8115C7.23053 23.1679 0.683929 32.6902 3.70925 38.4929C6.73457 44.2955 20.3733 46.4281 31.1851 41.0718C41.9969 35.7155 45.419 25.2509 42.6417 19.1506Z" fill="#404040"/>
<path opacity="0.76" d="M42.064 19.2531C39.0882 13.252 27.9789 12.6073 17.2663 17.914C6.55364 23.2207 0.30461 32.3959 3.28034 38.4465C6.25606 44.4972 19.7956 46.3322 30.5082 41.0255C41.2209 35.7188 45.0893 25.5517 42.064 19.2531Z" fill="#3E3E3E"/>
<path opacity="0.77" d="M41.7452 19.3958C38.7695 13.3948 27.7593 12.7501 16.9475 18.0072C6.13567 23.2643 0.0850317 32.3899 3.06076 38.3909C6.03648 44.392 19.3777 46.227 30.0407 40.9699C40.7037 35.7128 44.7209 25.5457 41.7452 19.3958Z" fill="#3C3C3C"/>
<path opacity="0.77" d="M41.4669 19.4957C38.4911 13.5442 27.5305 12.8995 17.0163 18.107C6.50207 23.3145 0.352235 32.3905 3.32796 38.3419C6.30369 44.2934 19.4465 46.1284 29.9607 40.9209C40.4749 35.7134 44.393 25.5463 41.4669 19.4957Z" fill="#3A3A3A"/>
<path opacity="0.78" d="M41.1027 19.6483C38.1766 13.6968 27.3152 13.0521 16.9002 18.21C6.48513 23.3679 0.384887 32.3447 3.31102 38.3458C6.23715 44.3468 19.2808 46.033 29.6958 40.8751C40.1108 35.7172 44.0289 25.5501 41.1027 19.6483Z" fill="#383838"/>
<path opacity="0.79" d="M40.8095 19.7488C37.8337 13.8469 27.0715 13.1526 16.7557 18.3105C6.43983 23.4684 0.389192 32.346 3.31532 38.1487C6.24145 43.9514 19.1363 45.7864 29.4521 40.678C39.768 35.5697 43.7356 25.5515 40.8095 19.7488Z" fill="#363636"/>
<path opacity="0.8" d="M40.4637 19.8902C37.5376 13.9884 26.8746 13.294 16.6083 18.3528C6.34205 23.4115 0.440194 32.3387 3.36632 38.191C6.29246 44.0432 18.9393 45.7791 29.2055 40.7203C39.4718 35.6616 43.3898 25.7921 40.4637 19.8902Z" fill="#343434"/>
<path opacity="0.8" d="M40.1491 19.9901C37.2229 14.1379 26.6591 13.4435 16.492 18.4527C6.32497 23.4618 0.472708 32.3394 3.34924 38.2909C6.22578 44.2423 18.7734 45.8294 28.9405 40.8202C39.1076 35.8111 43.0256 25.892 40.1491 19.9901Z" fill="#323232"/>
<path opacity="0.81" d="M39.8063 20.143C36.9298 14.2907 26.4156 13.5964 16.3477 18.556C6.27982 23.5155 0.477152 32.2939 3.35369 38.1462C6.23022 43.9984 18.6291 45.6847 28.697 40.6755C38.7648 35.6664 42.6333 25.9953 39.8063 20.143Z" fill="#303030"/>
<path opacity="0.82" d="M39.5027 20.241C36.6262 14.4383 26.2112 13.744 16.2425 18.6539C6.27379 23.5639 0.520714 32.2927 3.39725 38.0953C6.27379 43.898 18.2759 45.5843 28.443 40.6247C38.61 35.6652 42.6272 26.0933 39.5027 20.241Z" fill="#2E2E2E"/>
<path opacity="0.83" d="M39.1815 20.5901C36.3049 14.7875 25.9891 14.0435 16.1196 18.9535C6.25009 23.8634 0.596211 32.493 3.42315 38.2461C6.25009 43.9992 18.3018 45.6854 28.2209 40.7755C38.14 35.8655 42.058 26.1944 39.1815 20.5901Z" fill="#2C2C2C"/>
<path opacity="0.83" d="M38.8566 20.5925C35.9801 14.8394 25.7634 14.0954 15.9931 18.9558C6.22283 23.8162 0.568948 32.3466 3.44548 38.0996C6.32202 43.8527 18.1257 45.3902 27.7472 40.4306C37.3688 35.4711 41.6836 26.2959 38.8566 20.5925Z" fill="#2B2B2B"/>
<path opacity="0.84" d="M38.5354 20.5912C35.7084 14.8382 25.5413 14.0942 15.8702 18.905C6.19912 23.7158 0.644431 32.1966 3.47137 37.9496C6.29831 43.7027 17.8541 45.389 27.7731 40.4294C37.6922 35.4699 41.3623 26.3443 38.5354 20.5912Z" fill="#292929"/>
<path opacity="0.85" d="M38.2283 20.5872C35.4013 14.9333 25.3335 14.1398 15.7615 18.9009C6.18962 23.6621 0.882908 32.0933 3.46187 37.7968C6.04083 43.5003 17.8446 45.3849 27.4165 40.4254C36.9884 35.4658 41.0552 26.4394 38.2283 20.5872Z" fill="#272727"/>
<path opacity="0.86" d="M37.6801 20.8859C34.9028 15.232 24.9341 14.4385 15.4118 19.1005C5.88945 23.7624 0.533144 32.2433 3.31049 37.8972C6.08783 43.551 17.4948 45.0885 26.9675 40.3769C36.4402 35.6654 40.7055 26.5398 37.6801 20.8859Z" fill="#252525"/>
<path opacity="0.86" d="M37.6886 20.9841C34.9112 15.3798 24.9922 14.5863 15.6186 19.1986C6.24508 23.811 0.739985 32.1926 3.61652 37.8465C6.49306 43.5004 17.652 44.9883 27.0256 40.3263C36.3991 35.6643 40.3667 26.6379 37.6886 20.9841Z" fill="#232323"/>
<path opacity="0.87" d="M37.236 21.1288C34.4587 15.5246 24.6884 14.6814 15.3645 19.2938C6.04052 23.9062 0.733807 32.1886 3.51115 37.7929C6.2885 43.3972 17.3483 44.8851 26.6722 40.2727C35.9962 35.6603 40.0134 26.7331 37.236 21.1288Z" fill="#212121"/>
<path opacity="0.88" d="M36.9371 21.229C34.1598 15.6743 24.4391 14.8312 15.2143 19.394C5.98956 23.9567 0.782033 32.1896 3.55938 37.7443C6.33672 43.299 17.1981 44.7868 26.4229 40.2241C35.6476 35.6613 39.6649 26.8333 36.9371 21.229Z" fill="#1F1F1F"/>
<path opacity="0.89" d="M36.6115 21.3826C33.8838 15.8279 24.2622 14.9847 15.1367 19.4979C6.01111 24.0111 0.853186 32.1448 3.58094 37.6995C6.30869 43.2542 17.0709 44.6924 26.1965 40.1792C35.322 35.6661 39.3888 26.9372 36.6115 21.3826Z" fill="#1D1D1D"/>
<path opacity="0.89" d="M36.2798 21.4828C33.552 15.9777 23.9801 15.1345 14.9537 19.5981C5.92737 24.0617 0.819038 32.1458 3.54679 37.7005C6.27454 43.2552 16.888 44.5942 25.9143 40.1306C34.9407 35.6671 39.0075 27.0375 36.2798 21.4828Z" fill="#1B1B1B"/>
<path opacity="0.9" d="M35.9583 21.6267C33.2802 16.1216 23.8074 15.2784 14.8802 19.6924C5.95307 24.1064 0.894333 32.1409 3.62208 37.646C6.34983 43.1511 16.7153 44.4902 25.6921 40.0762C34.6688 35.6622 38.6861 27.1318 35.9583 21.6267Z" fill="#191919"/>
<path opacity="0.91" d="M35.6387 21.7748C32.7126 16.2697 23.587 15.6249 14.7094 19.7414C5.83185 23.8578 0.872303 32.1402 3.60005 37.5957C6.3278 43.0512 16.5445 44.3903 25.422 40.0259C34.2996 35.6615 38.3169 27.2303 35.6387 21.7748Z" fill="#171717"/>
<path opacity="0.92" d="M35.301 21.8816C32.6228 16.4261 23.3485 15.5334 14.6197 19.8482C5.8909 24.163 0.931352 32.0983 3.60951 37.5538C6.28766 43.0093 16.4051 44.2987 25.1835 39.9839C33.9619 35.6691 38.0287 27.3371 35.301 21.8816Z" fill="#151515"/>
<path opacity="0.92" d="M35.0145 22.0278C32.3363 16.5723 23.1612 15.6795 14.482 19.9448C5.80277 24.21 0.992015 32.0956 3.67017 37.5015C6.34832 42.9074 16.2674 44.1969 24.897 39.9317C33.5266 35.6665 37.6926 27.4337 35.0145 22.0278Z" fill="#131313"/>
<path opacity="0.93" d="M34.6554 22.1266C32.0268 16.7703 22.8021 15.6296 14.3709 20.0436C5.93964 24.4576 0.980089 32.0953 3.65824 37.4516C6.3364 42.8079 16.1067 44.0974 24.6371 39.8818C33.1675 35.6662 37.3336 27.4829 34.6554 22.1266Z" fill="#111111"/>
<path opacity="0.94" d="M34.3572 22.2748C31.7287 16.9185 22.7023 15.9762 14.2215 20.1422C5.74065 24.3082 1.02908 32.0451 3.65764 37.4014C6.28619 42.7577 15.9077 43.9976 24.3885 39.8316C32.8694 35.6656 36.9858 27.5815 34.3572 22.2748Z" fill="#0F0F0F"/>
<path opacity="0.95" d="M34.017 22.3768C31.3884 17.0701 22.4612 16.0782 14.1788 20.2442C5.89635 24.4102 1.13519 32.048 3.76375 37.3547C6.3923 42.6614 15.8154 43.9013 24.1971 39.7848C32.5787 35.6684 36.6951 27.6835 34.017 22.3768Z" fill="#0E0E0E"/>
<path opacity="0.95" d="M33.7034 22.5214C31.0748 17.2147 22.2469 16.2228 13.8652 20.3392C5.48359 24.4556 0.970408 32.0437 3.59897 37.3505C6.22752 42.6572 15.5019 43.8475 23.7843 39.731C32.0667 35.6146 36.332 27.7785 33.7034 22.5214Z" fill="#0C0C0C"/>
<path opacity="0.96" d="M33.4198 22.622C30.7912 17.3649 22.0624 16.373 13.5816 20.4398C5.10077 24.5066 0.885157 32.0451 3.6625 37.3022C6.43985 42.5593 15.4166 43.7496 23.5007 39.6828C31.5847 35.616 35.9987 27.8791 33.4198 22.622Z" fill="#0A0A0A"/>
<path opacity="0.97" d="M33.0736 22.767C30.4946 17.5099 21.8154 16.518 13.7314 20.4856C5.64732 24.4532 1.13414 31.9917 3.81229 37.2489C6.49044 42.506 15.368 43.6467 23.6505 39.6294C31.9329 35.6122 35.6526 27.9745 33.0736 22.767Z" fill="#080808"/>
<path opacity="0.98" d="M32.7362 22.8677C30.1573 17.6601 21.5773 16.6682 13.5428 20.5863C5.50834 24.5043 1.14394 31.9932 3.62371 37.2007C6.10348 42.4083 14.9811 43.549 23.0155 39.5813C31.05 35.6137 35.3152 28.0752 32.7362 22.8677Z" fill="#060606"/>
<path opacity="0.98" d="M32.4208 23.0144C29.8418 17.8068 21.361 16.7653 13.4753 20.6834C5.58962 24.6014 1.22522 31.9911 3.55621 37.1491C5.88719 42.307 14.7648 43.4477 22.7 39.5296C30.6353 35.6116 34.9997 28.1723 32.4208 23.0144Z" fill="#040404"/>
<path opacity="0.99" d="M32.1104 23.1139C29.5315 18.1544 21.1498 16.9145 13.3137 20.7829C5.47766 24.6514 1.21246 31.9419 3.79142 37.0998C6.37038 42.2578 14.8016 43.3489 22.6377 39.4804C30.4738 35.612 34.6398 28.2718 32.1104 23.1139Z" fill="#020202"/>
<path d="M31.7874 23.2711C29.258 18.3116 20.926 17.0717 13.2387 20.8905C5.55138 24.7094 1.28617 31.9503 3.81554 37.0587C6.34491 42.167 14.6769 43.2581 22.3642 39.4392C30.0515 35.6204 34.3167 28.3795 31.7874 23.2711Z" fill="black"/>
</g>
</svg>
