<svg width="20" height="20" viewBox="0 0 20 20" fill="none"
    xmlns="http://www.w3.org/2000/svg">
    <path d="M11.7069 5.00138C12.5265 5.163 13.2786 5.56724 13.8655 6.16164C14.4525 6.75604 14.8473 7.51316 14.9985 8.33472L11.7069 5.00138ZM11.7069 1.66805C13.4054 1.84702 14.992 2.60038 16.2043 3.80353C17.4165 5.00669 18.1818 6.58756 18.3735 8.28472L11.7069 1.66805ZM18.3735 14.1181V16.6181C18.3735 17.0601 18.1979 17.484 17.8854 17.7966C17.5728 18.1091 17.1489 18.2847 16.7069 18.2847H16.5485C13.9842 18.0061 11.521 17.1298 9.35688 15.7264C7.34374 14.4465 5.63675 12.7395 4.35688 10.7264C2.93515 8.55008 2.04718 6.06892 1.76521 3.48472C1.74456 3.26632 1.76724 3.046 1.83193 2.83638C1.89662 2.62677 2.00205 2.43199 2.14218 2.26321C2.28232 2.09443 2.45439 1.95498 2.64853 1.85285C2.84268 1.75072 3.05508 1.68792 3.27354 1.66805H5.92354C6.32797 1.66407 6.72004 1.80728 7.02668 2.07099C7.33332 2.33471 7.53361 2.70092 7.59021 3.10138C7.69684 3.90123 7.8925 4.68665 8.17354 5.44305C8.28566 5.74132 8.30993 6.06548 8.24347 6.37712C8.177 6.68875 8.0226 6.97481 7.79854 7.20138L6.74021 8.25972C7.92651 10.346 9.65392 12.0734 11.7402 13.2597L12.7985 12.2014C13.0251 11.9773 13.3112 11.8229 13.6228 11.7565C13.9344 11.69 14.2586 11.7143 14.5569 11.8264C15.3133 12.1074 16.0987 12.3031 16.8985 12.4097C17.3033 12.4668 17.673 12.6707 17.9373 12.9826C18.2016 13.2945 18.342 13.6927 18.3319 14.1014L18.3735 14.1181Z" stroke="url(#paint0_linear_687_4452)" stroke-width="2" stroke-linecap="round" stroke-linejoin="round"/>
    <defs>
        <linearGradient id="paint0_linear_687_4452" x1="10.0657" y1="1.66797" x2="10.0657" y2="18.2847" gradientUnits="userSpaceOnUse">
            <stop stop-color="white"/>
            <stop offset="1" stop-color="#ABF0F4"/>
        </linearGradient>
    </defs>
</svg>
