<svg width="73" height="76" viewBox="0 0 73 76" fill="none"
    xmlns="http://www.w3.org/2000/svg">
    <rect x="7" y="17.8359" width="51.4186" height="51.4186" rx="12" stroke="url(#paint0_linear_687_4487)" stroke-width="8"/>
    <path d="M64.599 2.67116L65.0993 2.17089C65.4758 1.79456 65.9228 1.49608 66.4147 1.2925C66.9066 1.08892 67.4338 0.984219 67.9661 0.984375C68.4985 0.984531 69.0256 1.08954 69.5174 1.29341C70.0092 1.49728 70.456 1.79602 70.8323 2.17256C71.2086 2.54911 71.5071 2.99609 71.7107 3.48799C71.9143 3.97989 72.019 4.50707 72.0188 5.03943C72.0187 5.57179 71.9137 6.09891 71.7098 6.59068C71.5059 7.08246 71.2072 7.52927 70.8306 7.90559L70.3304 8.40251C71.1861 9.36231 71.6424 10.6131 71.6056 11.8985C71.5687 13.1839 71.0416 14.4065 70.1323 15.3157L35.5763 49.8751C35.3602 50.09 35.0898 50.242 34.794 50.3149L21.3637 53.6725C21.0827 53.7425 20.7883 53.7385 20.5092 53.6611C20.2301 53.5836 19.9758 53.4353 19.771 53.2305C19.5662 53.0257 19.4179 52.7714 19.3404 52.4923C19.263 52.2132 19.2591 51.9188 19.329 51.6378L22.6866 38.2076C22.7601 37.9129 22.9121 37.6437 23.1264 37.4286L55.5 5.05503C55.1762 4.82715 54.7823 4.72104 54.3879 4.75544C53.9935 4.78985 53.6239 4.96256 53.3445 5.24305L42.2914 16.2995C42.1353 16.4556 41.95 16.5794 41.7461 16.6639C41.5421 16.7483 41.3235 16.7918 41.1028 16.7918C40.8821 16.7918 40.6635 16.7483 40.4596 16.6639C40.2556 16.5794 40.0703 16.4556 39.9142 16.2995C39.7581 16.1434 39.6343 15.9581 39.5499 15.7542C39.4654 15.5502 39.4219 15.3317 39.4219 15.1109C39.4219 14.8902 39.4654 14.6716 39.5499 14.4677C39.6343 14.2637 39.7581 14.0784 39.9142 13.9223L50.974 2.86926C51.8838 1.95941 53.1074 1.43229 54.3936 1.39608C55.6798 1.35987 56.931 1.8173 57.8906 2.67452C58.8131 1.85003 60.0069 1.39399 61.2442 1.39337C62.4814 1.39275 63.6756 1.8476 64.599 2.67116Z" fill="url(#paint1_linear_687_4487)"/>
    <defs>
        <linearGradient id="paint0_linear_687_4487" x1="32.7093" y1="13.8359" x2="32.7093" y2="73.2545" gradientUnits="userSpaceOnUse">
            <stop stop-color="#D24BD9"/>
            <stop offset="1" stop-color="#910082"/>
        </linearGradient>
        <linearGradient id="paint1_linear_687_4487" x1="45.6491" y1="0.984375" x2="45.6491" y2="53.7222" gradientUnits="userSpaceOnUse">
            <stop stop-color="#D24BD9"/>
            <stop offset="1" stop-color="#810287"/>
        </linearGradient>
    </defs>
</svg>
