<svg width="82" height="82" viewBox="0 0 82 82" fill="none"
    xmlns="http://www.w3.org/2000/svg">
    <g clip-path="url(#clip0_687_4714)" filter="url(#filter0_ii_687_4714)">
        <path d="M46.125 43.5625H60.4391L64.8107 47.9393C65.0492 48.1771 65.3321 48.3655 65.6434 48.4939C65.9547 48.6223 66.2883 48.6881 66.625 48.6875H71.75C72.4296 48.6875 73.0814 48.4175 73.562 47.937C74.0425 47.4564 74.3125 46.8046 74.3125 46.125V41C74.3125 40.3204 74.0425 39.6686 73.562 39.188C73.0814 38.7075 72.4296 38.4375 71.75 38.4375H46.125V43.5625Z" fill="url(#paint0_linear_687_4714)"/>
        <path d="M61.5 15.375H20.5C15.0631 15.375 9.84881 17.5348 6.00431 21.3793C2.15982 25.2238 0 30.4381 0 35.875L0 66.625C0 67.9842 0.539954 69.2878 1.50108 70.2489C2.4622 71.21 3.76577 71.75 5.125 71.75H76.875C78.2342 71.75 79.5378 71.21 80.4989 70.2489C81.46 69.2878 82 67.9842 82 66.625V35.875C82 30.4381 79.8402 25.2238 75.9957 21.3793C72.1512 17.5348 66.9369 15.375 61.5 15.375ZM41 35.875C41.0035 32.9661 40.3862 30.09 39.1896 27.4386C37.993 24.7873 36.2444 22.4218 34.0607 20.5H61.5C65.5777 20.5 69.4884 22.1199 72.3718 25.0032C75.2551 27.8866 76.875 31.7973 76.875 35.875V66.625H41V35.875ZM23.4981 36.6796C22.6525 36.3209 21.6173 35.875 20.5 35.875C19.3827 35.875 18.3475 36.3158 17.5019 36.6796C16.2155 37.228 15.375 37.5868 15.375 35.875C15.375 34.5158 15.915 33.2122 16.8761 32.2511C17.8372 31.29 19.1408 30.75 20.5 30.75C21.8592 30.75 23.1628 31.29 24.1239 32.2511C25.085 33.2122 25.625 34.5158 25.625 35.875C25.625 37.5868 24.7845 37.228 23.4981 36.6796Z" fill="url(#paint1_linear_687_4714)"/>
    </g>
    <defs>
        <filter id="filter0_ii_687_4714" x="0" y="-4" width="84" height="90" filterUnits="userSpaceOnUse" color-interpolation-filters="sRGB">
            <feFlood flood-opacity="0" result="BackgroundImageFix"/>
            <feBlend mode="normal" in="SourceGraphic" in2="BackgroundImageFix" result="shape"/>
            <feColorMatrix in="SourceAlpha" type="matrix" values="0 0 0 0 0 0 0 0 0 0 0 0 0 0 0 0 0 0 127 0" result="hardAlpha"/>
            <feOffset dx="2" dy="4"/>
            <feGaussianBlur stdDeviation="4"/>
            <feComposite in2="hardAlpha" operator="arithmetic" k2="-1" k3="1"/>
            <feColorMatrix type="matrix" values="0 0 0 0 1 0 0 0 0 1 0 0 0 0 1 0 0 0 0.65 0"/>
            <feBlend mode="normal" in2="shape" result="effect1_innerShadow_687_4714"/>
            <feColorMatrix in="SourceAlpha" type="matrix" values="0 0 0 0 0 0 0 0 0 0 0 0 0 0 0 0 0 0 127 0" result="hardAlpha"/>
            <feOffset dy="-4"/>
            <feGaussianBlur stdDeviation="2"/>
            <feComposite in2="hardAlpha" operator="arithmetic" k2="-1" k3="1"/>
            <feColorMatrix type="matrix" values="0 0 0 0 0 0 0 0 0 0 0 0 0 0 0 0 0 0 0.25 0"/>
            <feBlend mode="normal" in2="effect1_innerShadow_687_4714" result="effect2_innerShadow_687_4714"/>
        </filter>
        <linearGradient id="paint0_linear_687_4714" x1="60.2188" y1="38.4375" x2="60.2188" y2="48.6875" gradientUnits="userSpaceOnUse">
            <stop stop-color="#7E79F0"/>
            <stop offset="1" stop-color="#080284"/>
        </linearGradient>
        <linearGradient id="paint1_linear_687_4714" x1="41" y1="15.375" x2="41" y2="71.75" gradientUnits="userSpaceOnUse">
            <stop stop-color="#7E79F0"/>
            <stop offset="1" stop-color="#080284"/>
        </linearGradient>
        <clipPath id="clip0_687_4714">
            <rect width="82" height="82" fill="white"/>
        </clipPath>
    </defs>
</svg>
