<svg width="16" height="16" viewBox="0 0 16 16" fill="none"
    xmlns="http://www.w3.org/2000/svg">
    <path d="M15.4994 8.65833C15.3683 10.0768 14.836 11.4287 13.9646 12.5557C13.0933 13.6826 11.919 14.5382 10.5792 15.0221C9.23936 15.5061 7.78942 15.5984 6.39901 15.2884C5.00861 14.9784 3.73526 14.2788 2.72795 13.2715C1.72064 12.2642 1.02105 10.9908 0.711019 9.60042C0.400992 8.21001 0.49336 6.76007 0.977313 5.42025C1.46127 4.08042 2.31679 2.90614 3.44377 2.03479C4.57076 1.16345 5.92259 0.631088 7.3411 0.5C6.51061 1.62356 6.11097 3.00787 6.21487 4.40118C6.31877 5.79448 6.91931 7.10422 7.90726 8.09217C8.89521 9.08012 10.2049 9.68065 11.5983 9.78456C12.9916 9.88846 14.3759 9.48882 15.4994 8.65833Z" fill="#1E264A"/>
</svg>
