<svg width="77" height="89" viewBox="0 0 77 89" fill="none" xmlns="http://www.w3.org/2000/svg">
<path d="M18.1457 52.5082C18.6947 64.4397 28.5056 70.1728 39.8378 65.3712C51.17 60.5697 60.0472 46.9312 59.5048 35.0186C58.9624 23.1061 49.1776 17.4485 37.8127 22.1556C26.4477 26.8628 17.5844 40.6022 18.1457 52.5082ZM18.1204 15.6009L24.1855 10.3008C24.8975 9.6728 25.7553 9.58654 26.2291 10.099L32.0118 16.4055C33.7228 15.3259 35.5138 14.3787 37.3693 13.5724C38.5213 13.0985 39.6989 12.6897 40.8967 12.3478L45.8188 1.56333C45.9868 1.16197 46.2584 0.812481 46.6057 0.55066C46.953 0.288839 47.3636 0.124068 47.7955 0.07314L54.1559 0.12868C54.3339 0.137376 54.5077 0.186423 54.6641 0.272059C54.8206 0.357696 54.9555 0.477706 55.0589 0.623086C55.1623 0.768465 55.2314 0.935345 55.261 1.11127C55.2905 1.2872 55.2798 1.46761 55.2297 1.63875L53.7987 11.8246C56.5098 12.5469 59.0102 13.9053 61.0927 15.7871L69.8936 10.0873C70.6581 9.61032 71.4486 9.69551 71.7977 10.3359L74.6507 15.6921C74.7874 16.087 74.8099 16.5124 74.7157 16.9194C74.6214 17.3264 74.4141 17.6984 74.1177 17.9926L66.9963 26.1558C67.4087 27.876 67.6573 29.6316 67.7385 31.3986C67.7967 33.0932 67.7359 34.7897 67.5564 36.4756L75.2545 38.4361C75.9261 38.6049 76.2325 39.3659 75.91 40.3241L73.65 47.8785C73.5284 48.304 73.3001 48.6914 72.9869 49.0038C72.6736 49.3161 72.2858 49.5432 71.8601 49.6634L63.0037 51.4898C61.2112 55.0513 59.0182 58.3963 56.4673 61.4597L58.7812 70.1339C58.8642 70.5784 58.8272 71.037 58.6738 71.4622C58.5204 71.8874 58.2563 72.2637 57.9087 72.5524L51.8624 77.8459C51.1504 78.4739 50.2926 78.5602 49.8188 78.0477L44.2157 71.9539C42.9267 72.7063 41.594 73.3809 40.2246 73.9741C38.6136 74.6828 36.9483 75.2609 35.2447 75.703L30.2357 86.6023C30.0727 87.0075 29.8038 87.3613 29.4572 87.6268C29.1106 87.8923 28.699 88.0597 28.2655 88.1114L21.9052 88.0558C21.1663 88.0585 20.7286 87.4065 20.8502 86.5392L22.4504 75.2579C20.1861 74.4353 18.1118 73.1619 16.3528 71.5147L6.22396 78.0775C5.44065 78.561 4.6436 78.4569 4.31987 77.8289L1.46695 72.4727C1.33019 72.0778 1.30766 71.6524 1.40195 71.2453C1.49623 70.8383 1.7035 70.4663 1.99988 70.1721L10.4774 60.3747C10.1863 58.9632 10.014 57.5299 9.9621 56.0898C9.90937 54.7322 9.93853 53.3727 10.0495 52.0187L0.786869 49.6917C0.115299 49.5229 -0.191163 48.7619 0.131418 47.8037L2.39138 40.2494C2.5203 39.8228 2.75216 39.4346 3.06644 39.1189C3.38073 38.8032 3.7678 38.5696 4.19361 38.439L14.4991 36.3421C16.0138 33.2759 17.8393 30.3736 19.9469 27.6811L17.3676 17.9988C17.27 17.5681 17.2883 17.1193 17.4205 16.698C17.5527 16.2768 17.7942 15.8982 18.1204 15.6009V15.6009Z" fill="url(#paint0_linear_16_13802)"/>
<defs>
<linearGradient id="paint0_linear_16_13802" x1="25.4295" y1="7.79563" x2="50.6185" y2="80.3511" gradientUnits="userSpaceOnUse">
<stop stop-color="white"/>
<stop offset="0.94" stop-color="#E5DEF1"/>
</linearGradient>
</defs>
</svg>
