<svg width="16" height="18" viewBox="0 0 16 18" fill="none" xmlns="http://www.w3.org/2000/svg">
<path d="M14.6663 16.5V14.8333C14.6663 13.9493 14.3152 13.1014 13.69 12.4763C13.0649 11.8512 12.2171 11.5 11.333 11.5H4.66634C3.78229 11.5 2.93444 11.8512 2.30932 12.4763C1.6842 13.1014 1.33301 13.9493 1.33301 14.8333V16.5" stroke="url(#paint0_linear_0_1)" stroke-width="2" stroke-linecap="round" stroke-linejoin="round"/>
<path d="M8.00033 8.16667C9.84127 8.16667 11.3337 6.67428 11.3337 4.83333C11.3337 2.99238 9.84127 1.5 8.00033 1.5C6.15938 1.5 4.66699 2.99238 4.66699 4.83333C4.66699 6.67428 6.15938 8.16667 8.00033 8.16667Z" stroke="url(#paint1_linear_0_1)" stroke-width="2" stroke-linecap="round" stroke-linejoin="round"/>
<defs>
<linearGradient id="paint0_linear_0_1" x1="7.99967" y1="11.5" x2="7.99967" y2="16.5" gradientUnits="userSpaceOnUse">
<stop stop-color="white"/>
<stop offset="1" stop-color="#A6FFFB"/>
</linearGradient>
<linearGradient id="paint1_linear_0_1" x1="8.00033" y1="1.5" x2="8.00033" y2="8.16667" gradientUnits="userSpaceOnUse">
<stop stop-color="white"/>
<stop offset="1" stop-color="#A6FFFB"/>
</linearGradient>
</defs>
</svg>
