<svg width="70" height="70" viewBox="0 0 70 70" fill="none"
    xmlns="http://www.w3.org/2000/svg">
    <g clip-path="url(#clip0_687_4585)" filter="url(#filter0_ii_687_4585)">
        <path d="M22.1856 5.43853C22.4838 4.94075 22.9676 4.58182 23.5304 4.4407C24.0932 4.29957 24.6891 4.38782 25.1869 4.68603C25.6847 4.98423 26.0436 5.46796 26.1847 6.0308C26.3258 6.59365 26.2376 7.1895 25.9394 7.68728L14.8006 26.2504H55.1994L44.0562 7.68728C43.758 7.1895 43.6698 6.59365 43.8109 6.0308C43.952 5.46796 44.311 4.98423 44.8088 4.68603C45.3065 4.38782 45.9024 4.29957 46.4652 4.4407C47.0281 4.58182 47.5118 4.94075 47.81 5.43853L60.3006 26.2504H67.8125C68.3927 26.2504 68.9491 26.4809 69.3593 26.8911C69.7695 27.3013 70 27.8577 70 28.4379V37.1879C70 37.7681 69.7695 38.3245 69.3593 38.7347C68.9491 39.1449 68.3927 39.3754 67.8125 39.3754H65.625V61.2504C65.625 63.5711 64.7031 65.7966 63.0622 67.4376C61.4212 69.0785 59.1956 70.0004 56.875 70.0004H13.125C10.8044 70.0004 8.57876 69.0785 6.93782 67.4376C5.29687 65.7966 4.375 63.5711 4.375 61.2504V39.3754H2.1875C1.60734 39.3754 1.05094 39.1449 0.640704 38.7347C0.230468 38.3245 0 37.7681 0 37.1879V28.4379C0 27.8577 0.230468 27.3013 0.640704 26.8911C1.05094 26.4809 1.60734 26.2504 2.1875 26.2504H9.69938L22.1813 5.43853H22.1856ZM15.3125 45.9379C15.3125 45.3577 15.082 44.8013 14.6718 44.3911C14.2616 43.9809 13.7052 43.7504 13.125 43.7504C12.5448 43.7504 11.9884 43.9809 11.5782 44.3911C11.168 44.8013 10.9375 45.3577 10.9375 45.9379V59.0629C10.9375 59.6431 11.168 60.1995 11.5782 60.6097C11.9884 61.0199 12.5448 61.2504 13.125 61.2504C13.7052 61.2504 14.2616 61.0199 14.6718 60.6097C15.082 60.1995 15.3125 59.6431 15.3125 59.0629V45.9379ZM26.25 45.9379C26.25 45.3577 26.0195 44.8013 25.6093 44.3911C25.1991 43.9809 24.6427 43.7504 24.0625 43.7504C23.4823 43.7504 22.9259 43.9809 22.5157 44.3911C22.1055 44.8013 21.875 45.3577 21.875 45.9379V59.0629C21.875 59.6431 22.1055 60.1995 22.5157 60.6097C22.9259 61.0199 23.4823 61.2504 24.0625 61.2504C24.6427 61.2504 25.1991 61.0199 25.6093 60.6097C26.0195 60.1995 26.25 59.6431 26.25 59.0629V45.9379ZM37.1875 45.9379C37.1875 45.3577 36.957 44.8013 36.5468 44.3911C36.1366 43.9809 35.5802 43.7504 35 43.7504C34.4198 43.7504 33.8634 43.9809 33.4532 44.3911C33.043 44.8013 32.8125 45.3577 32.8125 45.9379V59.0629C32.8125 59.6431 33.043 60.1995 33.4532 60.6097C33.8634 61.0199 34.4198 61.2504 35 61.2504C35.5802 61.2504 36.1366 61.0199 36.5468 60.6097C36.957 60.1995 37.1875 59.6431 37.1875 59.0629V45.9379ZM48.125 45.9379C48.125 45.3577 47.8945 44.8013 47.4843 44.3911C47.0741 43.9809 46.5177 43.7504 45.9375 43.7504C45.3573 43.7504 44.8009 43.9809 44.3907 44.3911C43.9805 44.8013 43.75 45.3577 43.75 45.9379V59.0629C43.75 59.6431 43.9805 60.1995 44.3907 60.6097C44.8009 61.0199 45.3573 61.2504 45.9375 61.2504C46.5177 61.2504 47.0741 61.0199 47.4843 60.6097C47.8945 60.1995 48.125 59.6431 48.125 59.0629V45.9379ZM59.0625 45.9379C59.0625 45.3577 58.832 44.8013 58.4218 44.3911C58.0116 43.9809 57.4552 43.7504 56.875 43.7504C56.2948 43.7504 55.7384 43.9809 55.3282 44.3911C54.918 44.8013 54.6875 45.3577 54.6875 45.9379V59.0629C54.6875 59.6431 54.918 60.1995 55.3282 60.6097C55.7384 61.0199 56.2948 61.2504 56.875 61.2504C57.4552 61.2504 58.0116 61.0199 58.4218 60.6097C58.832 60.1995 59.0625 59.6431 59.0625 59.0629V45.9379Z" fill="url(#paint0_linear_687_4585)"/>
    </g>
    <defs>
        <filter id="filter0_ii_687_4585" x="0" y="-4" width="72" height="78" filterUnits="userSpaceOnUse" color-interpolation-filters="sRGB">
            <feFlood flood-opacity="0" result="BackgroundImageFix"/>
            <feBlend mode="normal" in="SourceGraphic" in2="BackgroundImageFix" result="shape"/>
            <feColorMatrix in="SourceAlpha" type="matrix" values="0 0 0 0 0 0 0 0 0 0 0 0 0 0 0 0 0 0 127 0" result="hardAlpha"/>
            <feOffset dx="2" dy="4"/>
            <feGaussianBlur stdDeviation="4"/>
            <feComposite in2="hardAlpha" operator="arithmetic" k2="-1" k3="1"/>
            <feColorMatrix type="matrix" values="0 0 0 0 1 0 0 0 0 1 0 0 0 0 1 0 0 0 0.65 0"/>
            <feBlend mode="normal" in2="shape" result="effect1_innerShadow_687_4585"/>
            <feColorMatrix in="SourceAlpha" type="matrix" values="0 0 0 0 0 0 0 0 0 0 0 0 0 0 0 0 0 0 127 0" result="hardAlpha"/>
            <feOffset dy="-4"/>
            <feGaussianBlur stdDeviation="2"/>
            <feComposite in2="hardAlpha" operator="arithmetic" k2="-1" k3="1"/>
            <feColorMatrix type="matrix" values="0 0 0 0 0 0 0 0 0 0 0 0 0 0 0 0 0 0 0.25 0"/>
            <feBlend mode="normal" in2="effect1_innerShadow_687_4585" result="effect2_innerShadow_687_4585"/>
        </filter>
        <linearGradient id="paint0_linear_687_4585" x1="35" y1="4.375" x2="35" y2="70.0004" gradientUnits="userSpaceOnUse">
            <stop stop-color="#E534ED"/>
            <stop offset="1" stop-color="#6F0174"/>
        </linearGradient>
        <clipPath id="clip0_687_4585">
            <rect width="70" height="70" fill="white"/>
        </clipPath>
    </defs>
</svg>
