<svg width="70" height="70" viewBox="0 0 70 70" fill="none"
    xmlns="http://www.w3.org/2000/svg">
    <g clip-path="url(#clip0_687_4553)" filter="url(#filter0_ii_687_4553)">
        <path fill-rule="evenodd" clip-rule="evenodd" d="M8.75 0C6.42936 0 4.20376 0.921873 2.56282 2.56282C0.921873 4.20376 0 6.42936 0 8.75H70C70 6.42936 69.0781 4.20376 67.4372 2.56282C65.7962 0.921873 63.5706 0 61.25 0L8.75 0ZM0 61.25V13.125H70V61.25C70 63.5706 69.0781 65.7962 67.4372 67.4372C65.7962 69.0781 63.5706 70 61.25 70H8.75C6.42936 70 4.20376 69.0781 2.56282 67.4372C0.921873 65.7962 0 63.5706 0 61.25ZM52.5 26.25C52.5 27.4103 52.9609 28.5231 53.7814 29.3436C54.6019 30.1641 55.7147 30.625 56.875 30.625C58.0353 30.625 59.1481 30.1641 59.9686 29.3436C60.7891 28.5231 61.25 27.4103 61.25 26.25C61.25 25.0897 60.7891 23.9769 59.9686 23.1564C59.1481 22.3359 58.0353 21.875 56.875 21.875C55.7147 21.875 54.6019 22.3359 53.7814 23.1564C52.9609 23.9769 52.5 25.0897 52.5 26.25ZM21.875 39.375C21.875 40.5353 22.3359 41.6481 23.1564 42.4686C23.9769 43.2891 25.0897 43.75 26.25 43.75C27.4103 43.75 28.5231 43.2891 29.3436 42.4686C30.1641 41.6481 30.625 40.5353 30.625 39.375C30.625 38.2147 30.1641 37.1019 29.3436 36.2814C28.5231 35.4609 27.4103 35 26.25 35C25.0897 35 23.9769 35.4609 23.1564 36.2814C22.3359 37.1019 21.875 38.2147 21.875 39.375ZM43.75 30.625C42.5897 30.625 41.4769 30.1641 40.6564 29.3436C39.8359 28.5231 39.375 27.4103 39.375 26.25C39.375 25.0897 39.8359 23.9769 40.6564 23.1564C41.4769 22.3359 42.5897 21.875 43.75 21.875C44.9103 21.875 46.0231 22.3359 46.8436 23.1564C47.6641 23.9769 48.125 25.0897 48.125 26.25C48.125 27.4103 47.6641 28.5231 46.8436 29.3436C46.0231 30.1641 44.9103 30.625 43.75 30.625ZM8.75 39.375C8.75 40.5353 9.21094 41.6481 10.0314 42.4686C10.8519 43.2891 11.9647 43.75 13.125 43.75C14.2853 43.75 15.3981 43.2891 16.2186 42.4686C17.0391 41.6481 17.5 40.5353 17.5 39.375C17.5 38.2147 17.0391 37.1019 16.2186 36.2814C15.3981 35.4609 14.2853 35 13.125 35C11.9647 35 10.8519 35.4609 10.0314 36.2814C9.21094 37.1019 8.75 38.2147 8.75 39.375V39.375Z" fill="url(#paint0_linear_687_4553)"/>
    </g>
    <defs>
        <filter id="filter0_ii_687_4553" x="0" y="-4" width="72" height="78" filterUnits="userSpaceOnUse" color-interpolation-filters="sRGB">
            <feFlood flood-opacity="0" result="BackgroundImageFix"/>
            <feBlend mode="normal" in="SourceGraphic" in2="BackgroundImageFix" result="shape"/>
            <feColorMatrix in="SourceAlpha" type="matrix" values="0 0 0 0 0 0 0 0 0 0 0 0 0 0 0 0 0 0 127 0" result="hardAlpha"/>
            <feOffset dx="2" dy="4"/>
            <feGaussianBlur stdDeviation="4"/>
            <feComposite in2="hardAlpha" operator="arithmetic" k2="-1" k3="1"/>
            <feColorMatrix type="matrix" values="0 0 0 0 1 0 0 0 0 1 0 0 0 0 1 0 0 0 0.65 0"/>
            <feBlend mode="normal" in2="shape" result="effect1_innerShadow_687_4553"/>
            <feColorMatrix in="SourceAlpha" type="matrix" values="0 0 0 0 0 0 0 0 0 0 0 0 0 0 0 0 0 0 127 0" result="hardAlpha"/>
            <feOffset dy="-4"/>
            <feGaussianBlur stdDeviation="2"/>
            <feComposite in2="hardAlpha" operator="arithmetic" k2="-1" k3="1"/>
            <feColorMatrix type="matrix" values="0 0 0 0 0 0 0 0 0 0 0 0 0 0 0 0 0 0 0.25 0"/>
            <feBlend mode="normal" in2="effect1_innerShadow_687_4553" result="effect2_innerShadow_687_4553"/>
        </filter>
        <linearGradient id="paint0_linear_687_4553" x1="35" y1="0" x2="35" y2="70" gradientUnits="userSpaceOnUse">
            <stop stop-color="#7B8CDA"/>
            <stop offset="1" stop-color="#101D58"/>
        </linearGradient>
        <clipPath id="clip0_687_4553">
            <rect width="70" height="70" fill="white"/>
        </clipPath>
    </defs>
</svg>
