<svg width="70" height="70" viewBox="0 0 70 70" fill="none" xmlns="http://www.w3.org/2000/svg">
<g filter="url(#filter0_ii_497_1460)">
<path d="M70 35C70 44.2826 66.3125 53.185 59.7487 59.7487C53.185 66.3125 44.2826 70 35 70C25.7174 70 16.815 66.3125 10.2513 59.7487C3.68749 53.185 0 44.2826 0 35C0 25.7174 3.68749 16.815 10.2513 10.2513C16.815 3.68749 25.7174 0 35 0C44.2826 0 53.185 3.68749 59.7487 10.2513C66.3125 16.815 70 25.7174 70 35ZM52.6312 21.7437C52.3187 21.4323 51.9466 21.1871 51.5372 21.0228C51.1278 20.8585 50.6894 20.7784 50.2483 20.7874C49.8072 20.7964 49.3724 20.8943 48.97 21.0751C48.5676 21.256 48.2058 21.5161 47.9062 21.84L32.7119 41.1994L23.555 32.0381C22.933 31.4585 22.1103 31.143 21.2602 31.158C20.4101 31.173 19.5991 31.5173 18.9979 32.1185C18.3967 32.7197 18.0524 33.5308 18.0374 34.3808C18.0224 35.2309 18.3379 36.0536 18.9175 36.6756L30.4937 48.2562C30.8056 48.5675 31.177 48.8128 31.5857 48.9775C31.9944 49.1421 32.4321 49.2228 32.8726 49.2146C33.3132 49.2065 33.7476 49.1096 34.1499 48.93C34.5522 48.7503 34.9143 48.4914 35.2144 48.1688L52.6794 26.3375C53.2748 25.7184 53.6037 24.8906 53.5955 24.0317C53.5873 23.1728 53.2427 22.3514 52.6356 21.7437H52.6312Z" fill="url(#paint0_linear_497_1460)"/>
</g>
<defs>
<filter id="filter0_ii_497_1460" x="0" y="-4" width="70" height="79" filterUnits="userSpaceOnUse" color-interpolation-filters="sRGB">
<feFlood flood-opacity="0" result="BackgroundImageFix"/>
<feBlend mode="normal" in="SourceGraphic" in2="BackgroundImageFix" result="shape"/>
<feColorMatrix in="SourceAlpha" type="matrix" values="0 0 0 0 0 0 0 0 0 0 0 0 0 0 0 0 0 0 127 0" result="hardAlpha"/>
<feOffset dy="6"/>
<feGaussianBlur stdDeviation="2.5"/>
<feComposite in2="hardAlpha" operator="arithmetic" k2="-1" k3="1"/>
<feColorMatrix type="matrix" values="0 0 0 0 1 0 0 0 0 1 0 0 0 0 1 0 0 0 0.71 0"/>
<feBlend mode="normal" in2="shape" result="effect1_innerShadow_497_1460"/>
<feColorMatrix in="SourceAlpha" type="matrix" values="0 0 0 0 0 0 0 0 0 0 0 0 0 0 0 0 0 0 127 0" result="hardAlpha"/>
<feOffset dy="-4"/>
<feGaussianBlur stdDeviation="3"/>
<feComposite in2="hardAlpha" operator="arithmetic" k2="-1" k3="1"/>
<feColorMatrix type="matrix" values="0 0 0 0 0 0 0 0 0 0 0 0 0 0 0 0 0 0 0.25 0"/>
<feBlend mode="normal" in2="effect1_innerShadow_497_1460" result="effect2_innerShadow_497_1460"/>
</filter>
<linearGradient id="paint0_linear_497_1460" x1="35" y1="0" x2="66.5918" y2="86.3604" gradientUnits="userSpaceOnUse">
<stop stop-color="#D24BD9"/>
<stop offset="1" stop-color="#F38C16"/>
</linearGradient>
</defs>
</svg>
