<svg width="70" height="62" viewBox="0 0 70 62" fill="none"
    xmlns="http://www.w3.org/2000/svg">
    <path d="M8.75 0.375C6.42936 0.375 4.20376 1.29687 2.56282 2.93782C0.921872 4.57876 0 6.80436 0 9.125L0 52.875C0 55.1956 0.921872 57.4212 2.56282 59.0622C4.20376 60.7031 6.42936 61.625 8.75 61.625H61.25C63.5706 61.625 65.7962 60.7031 67.4372 59.0622C69.0781 57.4212 70 55.1956 70 52.875V9.125C70 6.80436 69.0781 4.57876 67.4372 2.93782C65.7962 1.29687 63.5706 0.375 61.25 0.375H8.75ZM61.25 4.75C62.4103 4.75 63.5231 5.21094 64.3436 6.03141C65.1641 6.85188 65.625 7.96468 65.625 9.125V15.5H4.375V9.125C4.375 7.96468 4.83594 6.85188 5.65641 6.03141C6.47688 5.21094 7.58968 4.75 8.75 4.75H61.25ZM4.375 52.875V22.25H21.875V57.25H8.75C7.58968 57.25 6.47688 56.7891 5.65641 55.9686C4.83594 55.1481 4.375 54.0353 4.375 52.875ZM32 57.25V22.25H65.625V52.875C65.625 54.0353 65.1641 55.1481 64.3436 55.9686C63.5231 56.7891 62.4103 57.25 61.25 57.25H32Z" fill="url(#paint0_linear_687_4522)"/>
    <defs>
        <linearGradient id="paint0_linear_687_4522" x1="35" y1="0.375" x2="35" y2="61.625" gradientUnits="userSpaceOnUse">
            <stop stop-color="#00FF94"/>
            <stop offset="1" stop-color="#2DFA5A"/>
        </linearGradient>
    </defs>
</svg>
