<svg width="38" height="41" viewBox="0 0 38 41" fill="none" xmlns="http://www.w3.org/2000/svg">
<path fill-rule="evenodd" clip-rule="evenodd" d="M14.9885 6.61219L4.70932 7.89708L4.70932 18.4172H14.9885L14.9885 6.61219ZM19.1002 6.09823V18.4172L33.491 18.4172V4.29937L19.1002 6.09823ZM14.9885 22.5289H4.70932L4.70932 33.049L14.9885 34.3339V22.5289ZM19.1002 34.8479L19.1002 22.5289L33.491 22.5289V36.6467L19.1002 34.8479ZM0.597656 7.89708L0.597656 20.4731L0.597656 33.049C0.597656 35.1227 2.14173 36.8718 4.19933 37.129L34.1363 40.8711C35.9769 41.1011 37.6027 39.6659 37.6027 37.8111V20.4731V3.13497C37.6027 1.28012 35.9769 -0.15502 34.1363 0.0750487L4.19933 3.81718C2.14173 4.07438 0.597656 5.82349 0.597656 7.89708Z" fill="#081139"/>
</svg>
