<svg width="67" height="57" viewBox="0 0 67 57" fill="none" xmlns="http://www.w3.org/2000/svg">
<path d="M61.1085 8.16412C54.3924 -0.44533 10.4329 -4.0878 4.02203 6.50832C-2.38881 17.1044 -1.47259 44.4997 9.21216 51.8743C19.8969 59.2488 61.1108 58.8282 64.7732 49.5563C68.4356 40.2844 67.8247 16.7736 61.1085 8.16412Z" fill="url(#paint0_linear_0_1)"/>
<path d="M44.0014 32.9201V35.9201C44.0025 36.1986 43.9455 36.4743 43.8339 36.7294C43.7223 36.9846 43.5587 37.2137 43.3535 37.402C43.1483 37.5902 42.906 37.7336 42.6421 37.8228C42.3783 37.912 42.0988 37.9452 41.8214 37.9201C38.7442 37.5857 35.7884 36.5342 33.1914 34.8501C30.7752 33.3148 28.7267 31.2663 27.1914 28.8501C25.5014 26.2413 24.4496 23.2711 24.1214 20.1801C24.0964 19.9036 24.1293 19.6249 24.2179 19.3617C24.3065 19.0986 24.449 18.8568 24.6362 18.6517C24.8234 18.4466 25.0512 18.2828 25.3052 18.1706C25.5592 18.0584 25.8337 18.0004 26.1114 18.0001H29.1114C29.5967 17.9953 30.0672 18.1672 30.4352 18.4836C30.8031 18.8001 31.0435 19.2395 31.1114 19.7201C31.238 20.6802 31.4728 21.6228 31.8114 22.5301C31.9459 22.888 31.9751 23.277 31.8953 23.651C31.8155 24.0249 31.6303 24.3682 31.3614 24.6401L30.0914 25.9101C31.515 28.4136 33.5879 30.4865 36.0914 31.9101L37.3614 30.6401C37.6333 30.3712 37.9766 30.1859 38.3505 30.1062C38.7245 30.0264 39.1135 30.0556 39.4714 30.1901C40.3787 30.5286 41.3213 30.7635 42.2814 30.8901C42.7672 30.9586 43.2108 31.2033 43.5279 31.5776C43.8451 31.9519 44.0136 32.4297 44.0014 32.9201Z" stroke="#152982" stroke-width="2" stroke-linecap="round" stroke-linejoin="round"/>
<defs>
<linearGradient id="paint0_linear_0_1" x1="15" y1="-1.97078e-06" x2="67" y2="34" gradientUnits="userSpaceOnUse">
<stop stop-color="#F8F8F8"/>
<stop offset="1" stop-color="#EAEAEA"/>
</linearGradient>
</defs>
</svg>
