<svg width="58" height="51" viewBox="0 0 58 51" fill="none" xmlns="http://www.w3.org/2000/svg">
<g filter="url(#filter0_d_1077_10805)">
<path d="M47.6274 7.5614C43.0523 1.69664 13.1071 -0.784609 8.74006 6.43346C4.37299 13.6515 4.99712 32.3132 12.2756 37.3367C19.554 42.3603 47.6289 42.0737 50.1237 35.7577C52.6185 29.4417 52.2024 13.4262 47.6274 7.5614Z" fill="url(#paint0_linear_1077_10805)"/>
</g>
<g clip-path="url(#clip0_1077_10805)">
<path d="M22.7998 21.5851C23.0384 22.3874 23.3364 23.1901 23.7536 23.9329C23.9326 24.2597 24.1116 24.5866 24.4396 24.7946L24.6182 24.8836C25.0955 24.9726 25.3638 24.5866 25.5425 24.2597C25.7822 23.6969 25.9913 23.1216 26.1687 22.5363C26.1984 22.4173 26.2284 22.3283 26.258 22.2094C26.3219 22.0049 26.3716 21.7964 26.407 21.5851L28.5238 15.9394C28.9636 15.351 29.5353 14.8731 30.1933 14.544C30.8301 14.1868 31.5497 14.002 32.2804 14.008C33.34 14.0115 34.3681 14.3671 35.2021 15.0186C36.6017 16.0599 37.4081 18.1382 37.4081 18.1382C37.5272 18.4099 37.588 18.7034 37.5867 18.9999C37.5808 19.2736 37.5305 19.5445 37.4378 19.8022C37.3174 20.0473 37.1676 20.2769 36.9916 20.4859C36.813 20.6639 36.5744 20.8424 36.3061 20.9314C36.0483 21.0265 35.776 21.0769 35.5012 21.0802C35.1999 21.0856 34.9023 21.014 34.6366 20.8723C34.3683 20.7533 34.1296 20.5454 33.921 20.3374C33.9211 20.3335 33.9204 20.3296 33.919 20.326C33.9175 20.3223 33.9154 20.319 33.9126 20.3162C33.9098 20.3134 33.9065 20.3112 33.9029 20.3097C33.8992 20.3082 33.8953 20.3075 33.8914 20.3075C33.7641 20.1197 33.6539 19.921 33.5622 19.7136C33.451 19.4571 33.3215 19.2088 33.1746 18.9708C33.0853 18.8519 33.0256 18.7329 32.9363 18.6144C32.872 18.4952 32.7799 18.3932 32.6676 18.317C32.459 18.1685 32.2207 18.1091 32.0121 18.228L31.9821 18.2575C31.7438 18.406 31.5944 18.7329 31.4751 19.0003C31.1471 19.7136 30.9681 20.4268 30.7595 21.1996C30.7286 21.3491 30.6988 21.4974 30.6702 21.6446L29.7772 24.4972L28.555 27.2014C28.1077 27.7662 27.5411 28.2415 26.8855 28.5385C26.2296 28.8654 25.514 29.0139 24.7984 29.0438C21.7874 29.1033 20.3862 26.4007 20.3862 26.4007C18.6856 23.606 18.179 19.9211 18.0597 18.7325C18.0261 18.5962 18.0062 18.4569 18 18.3166C18 17.9602 18.0893 17.5758 18.2979 17.2765C18.4764 16.95 18.7456 16.6819 19.0732 16.5041C19.4312 16.3257 19.7888 16.2663 20.1764 16.2663C20.534 16.2663 20.862 16.3852 21.1904 16.5636C21.422 16.7016 21.6244 16.8832 21.7862 17.0985C22.0545 17.4844 22.1438 17.9897 22.1739 18.4651C22.2899 19.5213 22.4986 20.5653 22.7978 21.5851H22.7998Z" fill="url(#paint1_linear_1077_10805)"/>
<path d="M22.7998 21.5851C23.0384 22.3874 23.3364 23.1901 23.7536 23.9329C23.9326 24.2597 24.1116 24.5866 24.4396 24.7946L24.6182 24.8836C25.0955 24.9726 25.3638 24.5866 25.5425 24.2597C25.7822 23.6969 25.9913 23.1216 26.1687 22.5363C26.1984 22.4173 26.2284 22.3283 26.258 22.2094C26.3219 22.0049 26.3716 21.7964 26.407 21.5851L28.5238 15.9394C28.9636 15.351 29.5353 14.8731 30.1933 14.544C30.8301 14.1868 31.5497 14.002 32.2804 14.008C33.34 14.0115 34.3681 14.3671 35.2021 15.0186C36.6017 16.0599 37.4081 18.1382 37.4081 18.1382C37.5272 18.4099 37.588 18.7034 37.5867 18.9999C37.5808 19.2736 37.5305 19.5445 37.4378 19.8022C37.3174 20.0473 37.1676 20.2769 36.9916 20.4859C36.813 20.6639 36.5744 20.8424 36.3061 20.9314C36.0483 21.0265 35.776 21.0769 35.5012 21.0802C35.1999 21.0856 34.9023 21.014 34.6366 20.8723C34.3683 20.7533 34.1296 20.5454 33.921 20.3374C33.9211 20.3335 33.9204 20.3296 33.919 20.326C33.9175 20.3223 33.9154 20.319 33.9126 20.3162C33.9098 20.3134 33.9065 20.3112 33.9029 20.3097C33.8992 20.3082 33.8953 20.3075 33.8914 20.3075C33.7641 20.1197 33.6539 19.921 33.5622 19.7136C33.451 19.4571 33.3215 19.2088 33.1746 18.9708C33.0853 18.8519 33.0256 18.7329 32.9363 18.6144C32.872 18.4952 32.7799 18.3932 32.6676 18.317C32.459 18.1685 32.2207 18.1091 32.0121 18.228L31.9821 18.2575C31.7438 18.406 31.5944 18.7329 31.4751 19.0003C31.1471 19.7136 30.9681 20.4268 30.7595 21.1996C30.7286 21.3491 30.6988 21.4974 30.6702 21.6446L29.7772 24.4972L28.555 27.2014C28.1077 27.7662 27.5411 28.2415 26.8855 28.5385C26.2296 28.8654 25.514 29.0139 24.7984 29.0438C21.7874 29.1033 20.3862 26.4007 20.3862 26.4007C18.6856 23.606 18.179 19.9211 18.0597 18.7325C18.0261 18.5962 18.0062 18.4569 18 18.3166C18 17.9602 18.0893 17.5758 18.2979 17.2765C18.4764 16.95 18.7456 16.6819 19.0732 16.5041C19.4312 16.3257 19.7888 16.2663 20.1764 16.2663C20.534 16.2663 20.862 16.3852 21.1904 16.5636C21.422 16.7016 21.6244 16.8832 21.7862 17.0985C22.0545 17.4844 22.1438 17.9897 22.1739 18.4651C22.2899 19.5213 22.4986 20.5653 22.7978 21.5851H22.7998Z" fill="url(#paint2_radial_1077_10805)"/>
<path d="M22.7998 21.5851C23.0384 22.3874 23.3364 23.1901 23.7536 23.9329C23.9326 24.2597 24.1116 24.5866 24.4396 24.7946L24.6182 24.8836C25.0955 24.9726 25.3638 24.5866 25.5425 24.2597C25.7822 23.6969 25.9913 23.1216 26.1687 22.5363C26.1984 22.4173 26.2284 22.3283 26.258 22.2094C26.3219 22.0049 26.3716 21.7964 26.407 21.5851L28.5238 15.9394C28.9636 15.351 29.5353 14.8731 30.1933 14.544C30.8301 14.1868 31.5497 14.002 32.2804 14.008C33.34 14.0115 34.3681 14.3671 35.2021 15.0186C36.6017 16.0599 37.4081 18.1382 37.4081 18.1382C37.5272 18.4099 37.588 18.7034 37.5867 18.9999C37.5808 19.2736 37.5305 19.5445 37.4378 19.8022C37.3174 20.0473 37.1676 20.2769 36.9916 20.4859C36.813 20.6639 36.5744 20.8424 36.3061 20.9314C36.0483 21.0265 35.776 21.0769 35.5012 21.0802C35.1999 21.0856 34.9023 21.014 34.6366 20.8723C34.3683 20.7533 34.1296 20.5454 33.921 20.3374C33.9211 20.3335 33.9204 20.3296 33.919 20.326C33.9175 20.3223 33.9154 20.319 33.9126 20.3162C33.9098 20.3134 33.9065 20.3112 33.9029 20.3097C33.8992 20.3082 33.8953 20.3075 33.8914 20.3075C33.7641 20.1197 33.6539 19.921 33.5622 19.7136C33.451 19.4571 33.3215 19.2088 33.1746 18.9708C33.0853 18.8519 33.0256 18.7329 32.9363 18.6144C32.872 18.4952 32.7799 18.3932 32.6676 18.317C32.459 18.1685 32.2207 18.1091 32.0121 18.228L31.9821 18.2575C31.7438 18.406 31.5944 18.7329 31.4751 19.0003C31.1471 19.7136 30.9681 20.4268 30.7595 21.1996C30.7286 21.3491 30.6988 21.4974 30.6702 21.6446L29.7772 24.4972L28.555 27.2014C28.1077 27.7662 27.5411 28.2415 26.8855 28.5385C26.2296 28.8654 25.514 29.0139 24.7984 29.0438C21.7874 29.1033 20.3862 26.4007 20.3862 26.4007C18.6856 23.606 18.179 19.9211 18.0597 18.7325C18.0261 18.5962 18.0062 18.4569 18 18.3166C18 17.9602 18.0893 17.5758 18.2979 17.2765C18.4764 16.95 18.7456 16.6819 19.0732 16.5041C19.4312 16.3257 19.7888 16.2663 20.1764 16.2663C20.534 16.2663 20.862 16.3852 21.1904 16.5636C21.422 16.7016 21.6244 16.8832 21.7862 17.0985C22.0545 17.4844 22.1438 17.9897 22.1739 18.4651C22.2899 19.5213 22.4986 20.5653 22.7978 21.5851H22.7998Z" fill="url(#paint3_radial_1077_10805)"/>
<path d="M22.7998 21.5851C23.0384 22.3874 23.3364 23.1901 23.7536 23.9329C23.9326 24.2597 24.1116 24.5866 24.4396 24.7946L24.6182 24.8836C25.0955 24.9726 25.3638 24.5866 25.5425 24.2597C25.7822 23.6969 25.9913 23.1216 26.1687 22.5363C26.1984 22.4173 26.2284 22.3283 26.258 22.2094C26.3219 22.0049 26.3716 21.7964 26.407 21.5851L28.5238 15.9394C28.9636 15.351 29.5353 14.8731 30.1933 14.544C30.8301 14.1868 31.5497 14.002 32.2804 14.008C33.34 14.0115 34.3681 14.3671 35.2021 15.0186C36.6017 16.0599 37.4081 18.1382 37.4081 18.1382C37.5272 18.4099 37.588 18.7034 37.5867 18.9999C37.5808 19.2736 37.5305 19.5445 37.4378 19.8022C37.3174 20.0473 37.1676 20.2769 36.9916 20.4859C36.813 20.6639 36.5744 20.8424 36.3061 20.9314C36.0483 21.0265 35.776 21.0769 35.5012 21.0802C35.1999 21.0856 34.9023 21.014 34.6366 20.8723C34.3683 20.7533 34.1296 20.5454 33.921 20.3374C33.9211 20.3335 33.9204 20.3296 33.919 20.326C33.9175 20.3223 33.9154 20.319 33.9126 20.3162C33.9098 20.3134 33.9065 20.3112 33.9029 20.3097C33.8992 20.3082 33.8953 20.3075 33.8914 20.3075C33.7641 20.1197 33.6539 19.921 33.5622 19.7136C33.451 19.4571 33.3215 19.2088 33.1746 18.9708C33.0853 18.8519 33.0256 18.7329 32.9363 18.6144C32.872 18.4952 32.7799 18.3932 32.6676 18.317C32.459 18.1685 32.2207 18.1091 32.0121 18.228L31.9821 18.2575C31.7438 18.406 31.5944 18.7329 31.4751 19.0003C31.1471 19.7136 30.9681 20.4268 30.7595 21.1996C30.7286 21.3491 30.6988 21.4974 30.6702 21.6446L29.7772 24.4972L28.555 27.2014C28.1077 27.7662 27.5411 28.2415 26.8855 28.5385C26.2296 28.8654 25.514 29.0139 24.7984 29.0438C21.7874 29.1033 20.3862 26.4007 20.3862 26.4007C18.6856 23.606 18.179 19.9211 18.0597 18.7325C18.0261 18.5962 18.0062 18.4569 18 18.3166C18 17.9602 18.0893 17.5758 18.2979 17.2765C18.4764 16.95 18.7456 16.6819 19.0732 16.5041C19.4312 16.3257 19.7888 16.2663 20.1764 16.2663C20.534 16.2663 20.862 16.3852 21.1904 16.5636C21.422 16.7016 21.6244 16.8832 21.7862 17.0985C22.0545 17.4844 22.1438 17.9897 22.1739 18.4651C22.2899 19.5213 22.4986 20.5653 22.7978 21.5851H22.7998Z" fill="url(#paint4_radial_1077_10805)"/>
<path d="M22.7998 21.5851C23.0384 22.3874 23.3364 23.1901 23.7536 23.9329C23.9326 24.2597 24.1116 24.5866 24.4396 24.7946L24.6182 24.8836C25.0955 24.9726 25.3638 24.5866 25.5425 24.2597C25.7822 23.6969 25.9913 23.1216 26.1687 22.5363C26.1984 22.4173 26.2284 22.3283 26.258 22.2094C26.3219 22.0049 26.3716 21.7964 26.407 21.5851L28.5238 15.9394C28.9636 15.351 29.5353 14.8731 30.1933 14.544C30.8301 14.1868 31.5497 14.002 32.2804 14.008C33.34 14.0115 34.3681 14.3671 35.2021 15.0186C36.6017 16.0599 37.4081 18.1382 37.4081 18.1382C37.5272 18.4099 37.588 18.7034 37.5867 18.9999C37.5808 19.2736 37.5305 19.5445 37.4378 19.8022C37.3174 20.0473 37.1676 20.2769 36.9916 20.4859C36.813 20.6639 36.5744 20.8424 36.3061 20.9314C36.0483 21.0265 35.776 21.0769 35.5012 21.0802C35.1999 21.0856 34.9023 21.014 34.6366 20.8723C34.3683 20.7533 34.1296 20.5454 33.921 20.3374C33.9211 20.3335 33.9204 20.3296 33.919 20.326C33.9175 20.3223 33.9154 20.319 33.9126 20.3162C33.9098 20.3134 33.9065 20.3112 33.9029 20.3097C33.8992 20.3082 33.8953 20.3075 33.8914 20.3075C33.7641 20.1197 33.6539 19.921 33.5622 19.7136C33.451 19.4571 33.3215 19.2088 33.1746 18.9708C33.0853 18.8519 33.0256 18.7329 32.9363 18.6144C32.872 18.4952 32.7799 18.3932 32.6676 18.317C32.459 18.1685 32.2207 18.1091 32.0121 18.228L31.9821 18.2575C31.7438 18.406 31.5944 18.7329 31.4751 19.0003C31.1471 19.7136 30.9681 20.4268 30.7595 21.1996C30.7286 21.3491 30.6988 21.4974 30.6702 21.6446L29.7772 24.4972L28.555 27.2014C28.1077 27.7662 27.5411 28.2415 26.8855 28.5385C26.2296 28.8654 25.514 29.0139 24.7984 29.0438C21.7874 29.1033 20.3862 26.4007 20.3862 26.4007C18.6856 23.606 18.179 19.9211 18.0597 18.7325C18.0261 18.5962 18.0062 18.4569 18 18.3166C18 17.9602 18.0893 17.5758 18.2979 17.2765C18.4764 16.95 18.7456 16.6819 19.0732 16.5041C19.4312 16.3257 19.7888 16.2663 20.1764 16.2663C20.534 16.2663 20.862 16.3852 21.1904 16.5636C21.422 16.7016 21.6244 16.8832 21.7862 17.0985C22.0545 17.4844 22.1438 17.9897 22.1739 18.4651C22.2899 19.5213 22.4986 20.5653 22.7978 21.5851H22.7998Z" fill="url(#paint5_radial_1077_10805)"/>
<path d="M22.7998 21.5851C23.0384 22.3874 23.3364 23.1901 23.7536 23.9329C23.9326 24.2597 24.1116 24.5866 24.4396 24.7946L24.6182 24.8836C25.0955 24.9726 25.3638 24.5866 25.5425 24.2597C25.7822 23.6969 25.9913 23.1216 26.1687 22.5363C26.1984 22.4173 26.2284 22.3283 26.258 22.2094C26.3219 22.0049 26.3716 21.7964 26.407 21.5851L28.5238 15.9394C28.9636 15.351 29.5353 14.8731 30.1933 14.544C30.8301 14.1868 31.5497 14.002 32.2804 14.008C33.34 14.0115 34.3681 14.3671 35.2021 15.0186C36.6017 16.0599 37.4081 18.1382 37.4081 18.1382C37.5272 18.4099 37.588 18.7034 37.5867 18.9999C37.5808 19.2736 37.5305 19.5445 37.4378 19.8022C37.3174 20.0473 37.1676 20.2769 36.9916 20.4859C36.813 20.6639 36.5744 20.8424 36.3061 20.9314C36.0483 21.0265 35.776 21.0769 35.5012 21.0802C35.1999 21.0856 34.9023 21.014 34.6366 20.8723C34.3683 20.7533 34.1296 20.5454 33.921 20.3374C33.9211 20.3335 33.9204 20.3296 33.919 20.326C33.9175 20.3223 33.9154 20.319 33.9126 20.3162C33.9098 20.3134 33.9065 20.3112 33.9029 20.3097C33.8992 20.3082 33.8953 20.3075 33.8914 20.3075C33.7641 20.1197 33.6539 19.921 33.5622 19.7136C33.451 19.4571 33.3215 19.2088 33.1746 18.9708C33.0853 18.8519 33.0256 18.7329 32.9363 18.6144C32.872 18.4952 32.7799 18.3932 32.6676 18.317C32.459 18.1685 32.2207 18.1091 32.0121 18.228L31.9821 18.2575C31.7438 18.406 31.5944 18.7329 31.4751 19.0003C31.1471 19.7136 30.9681 20.4268 30.7595 21.1996C30.7286 21.3491 30.6988 21.4974 30.6702 21.6446L29.7772 24.4972L28.555 27.2014C28.1077 27.7662 27.5411 28.2415 26.8855 28.5385C26.2296 28.8654 25.514 29.0139 24.7984 29.0438C21.7874 29.1033 20.3862 26.4007 20.3862 26.4007C18.6856 23.606 18.179 19.9211 18.0597 18.7325C18.0261 18.5962 18.0062 18.4569 18 18.3166C18 17.9602 18.0893 17.5758 18.2979 17.2765C18.4764 16.95 18.7456 16.6819 19.0732 16.5041C19.4312 16.3257 19.7888 16.2663 20.1764 16.2663C20.534 16.2663 20.862 16.3852 21.1904 16.5636C21.422 16.7016 21.6244 16.8832 21.7862 17.0985C22.0545 17.4844 22.1438 17.9897 22.1739 18.4651C22.2899 19.5213 22.4986 20.5653 22.7978 21.5851H22.7998Z" fill="url(#paint6_radial_1077_10805)"/>
<path d="M22.7998 21.5851C23.0384 22.3874 23.3364 23.1901 23.7536 23.9329C23.9326 24.2597 24.1116 24.5866 24.4396 24.7946L24.6182 24.8836C25.0955 24.9726 25.3638 24.5866 25.5425 24.2597C25.7822 23.6969 25.9913 23.1216 26.1687 22.5363C26.1984 22.4173 26.2284 22.3283 26.258 22.2094C26.3219 22.0049 26.3716 21.7964 26.407 21.5851L28.5238 15.9394C28.9636 15.351 29.5353 14.8731 30.1933 14.544C30.8301 14.1868 31.5497 14.002 32.2804 14.008C33.34 14.0115 34.3681 14.3671 35.2021 15.0186C36.6017 16.0599 37.4081 18.1382 37.4081 18.1382C37.5272 18.4099 37.588 18.7034 37.5867 18.9999C37.5808 19.2736 37.5305 19.5445 37.4378 19.8022C37.3174 20.0473 37.1676 20.2769 36.9916 20.4859C36.813 20.6639 36.5744 20.8424 36.3061 20.9314C36.0483 21.0265 35.776 21.0769 35.5012 21.0802C35.1999 21.0856 34.9023 21.014 34.6366 20.8723C34.3683 20.7533 34.1296 20.5454 33.921 20.3374C33.9211 20.3335 33.9204 20.3296 33.919 20.326C33.9175 20.3223 33.9154 20.319 33.9126 20.3162C33.9098 20.3134 33.9065 20.3112 33.9029 20.3097C33.8992 20.3082 33.8953 20.3075 33.8914 20.3075C33.7641 20.1197 33.6539 19.921 33.5622 19.7136C33.451 19.4571 33.3215 19.2088 33.1746 18.9708C33.0853 18.8519 33.0256 18.7329 32.9363 18.6144C32.872 18.4952 32.7799 18.3932 32.6676 18.317C32.459 18.1685 32.2207 18.1091 32.0121 18.228L31.9821 18.2575C31.7438 18.406 31.5944 18.7329 31.4751 19.0003C31.1471 19.7136 30.9681 20.4268 30.7595 21.1996C30.7286 21.3491 30.6988 21.4974 30.6702 21.6446L29.7772 24.4972L28.555 27.2014C28.1077 27.7662 27.5411 28.2415 26.8855 28.5385C26.2296 28.8654 25.514 29.0139 24.7984 29.0438C21.7874 29.1033 20.3862 26.4007 20.3862 26.4007C18.6856 23.606 18.179 19.9211 18.0597 18.7325C18.0261 18.5962 18.0062 18.4569 18 18.3166C18 17.9602 18.0893 17.5758 18.2979 17.2765C18.4764 16.95 18.7456 16.6819 19.0732 16.5041C19.4312 16.3257 19.7888 16.2663 20.1764 16.2663C20.534 16.2663 20.862 16.3852 21.1904 16.5636C21.422 16.7016 21.6244 16.8832 21.7862 17.0985C22.0545 17.4844 22.1438 17.9897 22.1739 18.4651C22.2899 19.5213 22.4986 20.5653 22.7978 21.5851H22.7998Z" fill="url(#paint7_radial_1077_10805)"/>
<path d="M22.7998 21.5851C23.0384 22.3874 23.3364 23.1901 23.7536 23.9329C23.9326 24.2597 24.1116 24.5866 24.4396 24.7946L24.6182 24.8836C25.0955 24.9726 25.3638 24.5866 25.5425 24.2597C25.7822 23.6969 25.9913 23.1216 26.1687 22.5363C26.1984 22.4173 26.2284 22.3283 26.258 22.2094C26.3219 22.0049 26.3716 21.7964 26.407 21.5851L28.5238 15.9394C28.9636 15.351 29.5353 14.8731 30.1933 14.544C30.8301 14.1868 31.5497 14.002 32.2804 14.008C33.34 14.0115 34.3681 14.3671 35.2021 15.0186C36.6017 16.0599 37.4081 18.1382 37.4081 18.1382C37.5272 18.4099 37.588 18.7034 37.5867 18.9999C37.5808 19.2736 37.5305 19.5445 37.4378 19.8022C37.3174 20.0473 37.1676 20.2769 36.9916 20.4859C36.813 20.6639 36.5744 20.8424 36.3061 20.9314C36.0483 21.0265 35.776 21.0769 35.5012 21.0802C35.1999 21.0856 34.9023 21.014 34.6366 20.8723C34.3683 20.7533 34.1296 20.5454 33.921 20.3374C33.9211 20.3335 33.9204 20.3296 33.919 20.326C33.9175 20.3223 33.9154 20.319 33.9126 20.3162C33.9098 20.3134 33.9065 20.3112 33.9029 20.3097C33.8992 20.3082 33.8953 20.3075 33.8914 20.3075C33.7641 20.1197 33.6539 19.921 33.5622 19.7136C33.451 19.4571 33.3215 19.2088 33.1746 18.9708C33.0853 18.8519 33.0256 18.7329 32.9363 18.6144C32.872 18.4952 32.7799 18.3932 32.6676 18.317C32.459 18.1685 32.2207 18.1091 32.0121 18.228L31.9821 18.2575C31.7438 18.406 31.5944 18.7329 31.4751 19.0003C31.1471 19.7136 30.9681 20.4268 30.7595 21.1996C30.7286 21.3491 30.6988 21.4974 30.6702 21.6446L29.7772 24.4972L28.555 27.2014C28.1077 27.7662 27.5411 28.2415 26.8855 28.5385C26.2296 28.8654 25.514 29.0139 24.7984 29.0438C21.7874 29.1033 20.3862 26.4007 20.3862 26.4007C18.6856 23.606 18.179 19.9211 18.0597 18.7325C18.0261 18.5962 18.0062 18.4569 18 18.3166C18 17.9602 18.0893 17.5758 18.2979 17.2765C18.4764 16.95 18.7456 16.6819 19.0732 16.5041C19.4312 16.3257 19.7888 16.2663 20.1764 16.2663C20.534 16.2663 20.862 16.3852 21.1904 16.5636C21.422 16.7016 21.6244 16.8832 21.7862 17.0985C22.0545 17.4844 22.1438 17.9897 22.1739 18.4651C22.2899 19.5213 22.4986 20.5653 22.7978 21.5851H22.7998Z" fill="url(#paint8_radial_1077_10805)"/>
<path d="M22.7998 21.5851C23.0384 22.3874 23.3364 23.1901 23.7536 23.9329C23.9326 24.2597 24.1116 24.5866 24.4396 24.7946L24.6182 24.8836C25.0955 24.9726 25.3638 24.5866 25.5425 24.2597C25.7822 23.6969 25.9913 23.1216 26.1687 22.5363C26.1984 22.4173 26.2284 22.3283 26.258 22.2094C26.3219 22.0049 26.3716 21.7964 26.407 21.5851L28.5238 15.9394C28.9636 15.351 29.5353 14.8731 30.1933 14.544C30.8301 14.1868 31.5497 14.002 32.2804 14.008C33.34 14.0115 34.3681 14.3671 35.2021 15.0186C36.6017 16.0599 37.4081 18.1382 37.4081 18.1382C37.5272 18.4099 37.588 18.7034 37.5867 18.9999C37.5808 19.2736 37.5305 19.5445 37.4378 19.8022C37.3174 20.0473 37.1676 20.2769 36.9916 20.4859C36.813 20.6639 36.5744 20.8424 36.3061 20.9314C36.0483 21.0265 35.776 21.0769 35.5012 21.0802C35.1999 21.0856 34.9023 21.014 34.6366 20.8723C34.3683 20.7533 34.1296 20.5454 33.921 20.3374C33.9211 20.3335 33.9204 20.3296 33.919 20.326C33.9175 20.3223 33.9154 20.319 33.9126 20.3162C33.9098 20.3134 33.9065 20.3112 33.9029 20.3097C33.8992 20.3082 33.8953 20.3075 33.8914 20.3075C33.7641 20.1197 33.6539 19.921 33.5622 19.7136C33.451 19.4571 33.3215 19.2088 33.1746 18.9708C33.0853 18.8519 33.0256 18.7329 32.9363 18.6144C32.872 18.4952 32.7799 18.3932 32.6676 18.317C32.459 18.1685 32.2207 18.1091 32.0121 18.228L31.9821 18.2575C31.7438 18.406 31.5944 18.7329 31.4751 19.0003C31.1471 19.7136 30.9681 20.4268 30.7595 21.1996C30.7286 21.3491 30.6988 21.4974 30.6702 21.6446L29.7772 24.4972L28.555 27.2014C28.1077 27.7662 27.5411 28.2415 26.8855 28.5385C26.2296 28.8654 25.514 29.0139 24.7984 29.0438C21.7874 29.1033 20.3862 26.4007 20.3862 26.4007C18.6856 23.606 18.179 19.9211 18.0597 18.7325C18.0261 18.5962 18.0062 18.4569 18 18.3166C18 17.9602 18.0893 17.5758 18.2979 17.2765C18.4764 16.95 18.7456 16.6819 19.0732 16.5041C19.4312 16.3257 19.7888 16.2663 20.1764 16.2663C20.534 16.2663 20.862 16.3852 21.1904 16.5636C21.422 16.7016 21.6244 16.8832 21.7862 17.0985C22.0545 17.4844 22.1438 17.9897 22.1739 18.4651C22.2899 19.5213 22.4986 20.5653 22.7978 21.5851H22.7998Z" fill="url(#paint9_radial_1077_10805)"/>
<path d="M22.7998 21.5851C23.0384 22.3874 23.3364 23.1901 23.7536 23.9329C23.9326 24.2597 24.1116 24.5866 24.4396 24.7946L24.6182 24.8836C25.0955 24.9726 25.3638 24.5866 25.5425 24.2597C25.7822 23.6969 25.9913 23.1216 26.1687 22.5363C26.1984 22.4173 26.2284 22.3283 26.258 22.2094C26.3219 22.0049 26.3716 21.7964 26.407 21.5851L28.5238 15.9394C28.9636 15.351 29.5353 14.8731 30.1933 14.544C30.8301 14.1868 31.5497 14.002 32.2804 14.008C33.34 14.0115 34.3681 14.3671 35.2021 15.0186C36.6017 16.0599 37.4081 18.1382 37.4081 18.1382C37.5272 18.4099 37.588 18.7034 37.5867 18.9999C37.5808 19.2736 37.5305 19.5445 37.4378 19.8022C37.3174 20.0473 37.1676 20.2769 36.9916 20.4859C36.813 20.6639 36.5744 20.8424 36.3061 20.9314C36.0483 21.0265 35.776 21.0769 35.5012 21.0802C35.1999 21.0856 34.9023 21.014 34.6366 20.8723C34.3683 20.7533 34.1296 20.5454 33.921 20.3374C33.9211 20.3335 33.9204 20.3296 33.919 20.326C33.9175 20.3223 33.9154 20.319 33.9126 20.3162C33.9098 20.3134 33.9065 20.3112 33.9029 20.3097C33.8992 20.3082 33.8953 20.3075 33.8914 20.3075C33.7641 20.1197 33.6539 19.921 33.5622 19.7136C33.451 19.4571 33.3215 19.2088 33.1746 18.9708C33.0853 18.8519 33.0256 18.7329 32.9363 18.6144C32.872 18.4952 32.7799 18.3932 32.6676 18.317C32.459 18.1685 32.2207 18.1091 32.0121 18.228L31.9821 18.2575C31.7438 18.406 31.5944 18.7329 31.4751 19.0003C31.1471 19.7136 30.9681 20.4268 30.7595 21.1996C30.7286 21.3491 30.6988 21.4974 30.6702 21.6446L29.7772 24.4972L28.555 27.2014C28.1077 27.7662 27.5411 28.2415 26.8855 28.5385C26.2296 28.8654 25.514 29.0139 24.7984 29.0438C21.7874 29.1033 20.3862 26.4007 20.3862 26.4007C18.6856 23.606 18.179 19.9211 18.0597 18.7325C18.0261 18.5962 18.0062 18.4569 18 18.3166C18 17.9602 18.0893 17.5758 18.2979 17.2765C18.4764 16.95 18.7456 16.6819 19.0732 16.5041C19.4312 16.3257 19.7888 16.2663 20.1764 16.2663C20.534 16.2663 20.862 16.3852 21.1904 16.5636C21.422 16.7016 21.6244 16.8832 21.7862 17.0985C22.0545 17.4844 22.1438 17.9897 22.1739 18.4651C22.2899 19.5213 22.4986 20.5653 22.7978 21.5851H22.7998Z" fill="url(#paint10_radial_1077_10805)"/>
<path d="M22.7998 21.5851C23.0384 22.3874 23.3364 23.1901 23.7536 23.9329C23.9326 24.2597 24.1116 24.5866 24.4396 24.7946L24.6182 24.8836C25.0955 24.9726 25.3638 24.5866 25.5425 24.2597C25.7822 23.6969 25.9913 23.1216 26.1687 22.5363C26.1984 22.4173 26.2284 22.3283 26.258 22.2094C26.3219 22.0049 26.3716 21.7964 26.407 21.5851L28.5238 15.9394C28.9636 15.351 29.5353 14.8731 30.1933 14.544C30.8301 14.1868 31.5497 14.002 32.2804 14.008C33.34 14.0115 34.3681 14.3671 35.2021 15.0186C36.6017 16.0599 37.4081 18.1382 37.4081 18.1382C37.5272 18.4099 37.588 18.7034 37.5867 18.9999C37.5808 19.2736 37.5305 19.5445 37.4378 19.8022C37.3174 20.0473 37.1676 20.2769 36.9916 20.4859C36.813 20.6639 36.5744 20.8424 36.3061 20.9314C36.0483 21.0265 35.776 21.0769 35.5012 21.0802C35.1999 21.0856 34.9023 21.014 34.6366 20.8723C34.3683 20.7533 34.1296 20.5454 33.921 20.3374C33.9211 20.3335 33.9204 20.3296 33.919 20.326C33.9175 20.3223 33.9154 20.319 33.9126 20.3162C33.9098 20.3134 33.9065 20.3112 33.9029 20.3097C33.8992 20.3082 33.8953 20.3075 33.8914 20.3075C33.7641 20.1197 33.6539 19.921 33.5622 19.7136C33.451 19.4571 33.3215 19.2088 33.1746 18.9708C33.0853 18.8519 33.0256 18.7329 32.9363 18.6144C32.872 18.4952 32.7799 18.3932 32.6676 18.317C32.459 18.1685 32.2207 18.1091 32.0121 18.228L31.9821 18.2575C31.7438 18.406 31.5944 18.7329 31.4751 19.0003C31.1471 19.7136 30.9681 20.4268 30.7595 21.1996C30.7286 21.3491 30.6988 21.4974 30.6702 21.6446L29.7772 24.4972L28.555 27.2014C28.1077 27.7662 27.5411 28.2415 26.8855 28.5385C26.2296 28.8654 25.514 29.0139 24.7984 29.0438C21.7874 29.1033 20.3862 26.4007 20.3862 26.4007C18.6856 23.606 18.179 19.9211 18.0597 18.7325C18.0261 18.5962 18.0062 18.4569 18 18.3166C18 17.9602 18.0893 17.5758 18.2979 17.2765C18.4764 16.95 18.7456 16.6819 19.0732 16.5041C19.4312 16.3257 19.7888 16.2663 20.1764 16.2663C20.534 16.2663 20.862 16.3852 21.1904 16.5636C21.422 16.7016 21.6244 16.8832 21.7862 17.0985C22.0545 17.4844 22.1438 17.9897 22.1739 18.4651C22.2899 19.5213 22.4986 20.5653 22.7978 21.5851H22.7998Z" fill="url(#paint11_radial_1077_10805)"/>
<path d="M22.7998 21.5851C23.0384 22.3874 23.3364 23.1901 23.7536 23.9329C23.9326 24.2597 24.1116 24.5866 24.4396 24.7946L24.6182 24.8836C25.0955 24.9726 25.3638 24.5866 25.5425 24.2597C25.7822 23.6969 25.9913 23.1216 26.1687 22.5363C26.1984 22.4173 26.2284 22.3283 26.258 22.2094C26.3219 22.0049 26.3716 21.7964 26.407 21.5851L28.5238 15.9394C28.9636 15.351 29.5353 14.8731 30.1933 14.544C30.8301 14.1868 31.5497 14.002 32.2804 14.008C33.34 14.0115 34.3681 14.3671 35.2021 15.0186C36.6017 16.0599 37.4081 18.1382 37.4081 18.1382C37.5272 18.4099 37.588 18.7034 37.5867 18.9999C37.5808 19.2736 37.5305 19.5445 37.4378 19.8022C37.3174 20.0473 37.1676 20.2769 36.9916 20.4859C36.813 20.6639 36.5744 20.8424 36.3061 20.9314C36.0483 21.0265 35.776 21.0769 35.5012 21.0802C35.1999 21.0856 34.9023 21.014 34.6366 20.8723C34.3683 20.7533 34.1296 20.5454 33.921 20.3374C33.9211 20.3335 33.9204 20.3296 33.919 20.326C33.9175 20.3223 33.9154 20.319 33.9126 20.3162C33.9098 20.3134 33.9065 20.3112 33.9029 20.3097C33.8992 20.3082 33.8953 20.3075 33.8914 20.3075C33.7641 20.1197 33.6539 19.921 33.5622 19.7136C33.451 19.4571 33.3215 19.2088 33.1746 18.9708C33.0853 18.8519 33.0256 18.7329 32.9363 18.6144C32.872 18.4952 32.7799 18.3932 32.6676 18.317C32.459 18.1685 32.2207 18.1091 32.0121 18.228L31.9821 18.2575C31.7438 18.406 31.5944 18.7329 31.4751 19.0003C31.1471 19.7136 30.9681 20.4268 30.7595 21.1996C30.7286 21.3491 30.6988 21.4974 30.6702 21.6446L29.7772 24.4972L28.555 27.2014C28.1077 27.7662 27.5411 28.2415 26.8855 28.5385C26.2296 28.8654 25.514 29.0139 24.7984 29.0438C21.7874 29.1033 20.3862 26.4007 20.3862 26.4007C18.6856 23.606 18.179 19.9211 18.0597 18.7325C18.0261 18.5962 18.0062 18.4569 18 18.3166C18 17.9602 18.0893 17.5758 18.2979 17.2765C18.4764 16.95 18.7456 16.6819 19.0732 16.5041C19.4312 16.3257 19.7888 16.2663 20.1764 16.2663C20.534 16.2663 20.862 16.3852 21.1904 16.5636C21.422 16.7016 21.6244 16.8832 21.7862 17.0985C22.0545 17.4844 22.1438 17.9897 22.1739 18.4651C22.2899 19.5213 22.4986 20.5653 22.7978 21.5851H22.7998Z" fill="url(#paint12_radial_1077_10805)"/>
<path d="M22.7998 21.5851C23.0384 22.3874 23.3364 23.1901 23.7536 23.9329C23.9326 24.2597 24.1116 24.5866 24.4396 24.7946L24.6182 24.8836C25.0955 24.9726 25.3638 24.5866 25.5425 24.2597C25.7822 23.6969 25.9913 23.1216 26.1687 22.5363C26.1984 22.4173 26.2284 22.3283 26.258 22.2094C26.3219 22.0049 26.3716 21.7964 26.407 21.5851L28.5238 15.9394C28.9636 15.351 29.5353 14.8731 30.1933 14.544C30.8301 14.1868 31.5497 14.002 32.2804 14.008C33.34 14.0115 34.3681 14.3671 35.2021 15.0186C36.6017 16.0599 37.4081 18.1382 37.4081 18.1382C37.5272 18.4099 37.588 18.7034 37.5867 18.9999C37.5808 19.2736 37.5305 19.5445 37.4378 19.8022C37.3174 20.0473 37.1676 20.2769 36.9916 20.4859C36.813 20.6639 36.5744 20.8424 36.3061 20.9314C36.0483 21.0265 35.776 21.0769 35.5012 21.0802C35.1999 21.0856 34.9023 21.014 34.6366 20.8723C34.3683 20.7533 34.1296 20.5454 33.921 20.3374C33.9211 20.3335 33.9204 20.3296 33.919 20.326C33.9175 20.3223 33.9154 20.319 33.9126 20.3162C33.9098 20.3134 33.9065 20.3112 33.9029 20.3097C33.8992 20.3082 33.8953 20.3075 33.8914 20.3075C33.7641 20.1197 33.6539 19.921 33.5622 19.7136C33.451 19.4571 33.3215 19.2088 33.1746 18.9708C33.0853 18.8519 33.0256 18.7329 32.9363 18.6144C32.872 18.4952 32.7799 18.3932 32.6676 18.317C32.459 18.1685 32.2207 18.1091 32.0121 18.228L31.9821 18.2575C31.7438 18.406 31.5944 18.7329 31.4751 19.0003C31.1471 19.7136 30.9681 20.4268 30.7595 21.1996C30.7286 21.3491 30.6988 21.4974 30.6702 21.6446L29.7772 24.4972L28.555 27.2014C28.1077 27.7662 27.5411 28.2415 26.8855 28.5385C26.2296 28.8654 25.514 29.0139 24.7984 29.0438C21.7874 29.1033 20.3862 26.4007 20.3862 26.4007C18.6856 23.606 18.179 19.9211 18.0597 18.7325C18.0261 18.5962 18.0062 18.4569 18 18.3166C18 17.9602 18.0893 17.5758 18.2979 17.2765C18.4764 16.95 18.7456 16.6819 19.0732 16.5041C19.4312 16.3257 19.7888 16.2663 20.1764 16.2663C20.534 16.2663 20.862 16.3852 21.1904 16.5636C21.422 16.7016 21.6244 16.8832 21.7862 17.0985C22.0545 17.4844 22.1438 17.9897 22.1739 18.4651C22.2899 19.5213 22.4986 20.5653 22.7978 21.5851H22.7998Z" fill="url(#paint13_radial_1077_10805)"/>
<path d="M22.7998 21.5851C23.0384 22.3874 23.3364 23.1901 23.7536 23.9329C23.9326 24.2597 24.1116 24.5866 24.4396 24.7946L24.6182 24.8836C25.0955 24.9726 25.3638 24.5866 25.5425 24.2597C25.7822 23.6969 25.9913 23.1216 26.1687 22.5363C26.1984 22.4173 26.2284 22.3283 26.258 22.2094C26.3219 22.0049 26.3716 21.7964 26.407 21.5851L28.5238 15.9394C28.9636 15.351 29.5353 14.8731 30.1933 14.544C30.8301 14.1868 31.5497 14.002 32.2804 14.008C33.34 14.0115 34.3681 14.3671 35.2021 15.0186C36.6017 16.0599 37.4081 18.1382 37.4081 18.1382C37.5272 18.4099 37.588 18.7034 37.5867 18.9999C37.5808 19.2736 37.5305 19.5445 37.4378 19.8022C37.3174 20.0473 37.1676 20.2769 36.9916 20.4859C36.813 20.6639 36.5744 20.8424 36.3061 20.9314C36.0483 21.0265 35.776 21.0769 35.5012 21.0802C35.1999 21.0856 34.9023 21.014 34.6366 20.8723C34.3683 20.7533 34.1296 20.5454 33.921 20.3374C33.9211 20.3335 33.9204 20.3296 33.919 20.326C33.9175 20.3223 33.9154 20.319 33.9126 20.3162C33.9098 20.3134 33.9065 20.3112 33.9029 20.3097C33.8992 20.3082 33.8953 20.3075 33.8914 20.3075C33.7641 20.1197 33.6539 19.921 33.5622 19.7136C33.451 19.4571 33.3215 19.2088 33.1746 18.9708C33.0853 18.8519 33.0256 18.7329 32.9363 18.6144C32.872 18.4952 32.7799 18.3932 32.6676 18.317C32.459 18.1685 32.2207 18.1091 32.0121 18.228L31.9821 18.2575C31.7438 18.406 31.5944 18.7329 31.4751 19.0003C31.1471 19.7136 30.9681 20.4268 30.7595 21.1996C30.7286 21.3491 30.6988 21.4974 30.6702 21.6446L29.7772 24.4972L28.555 27.2014C28.1077 27.7662 27.5411 28.2415 26.8855 28.5385C26.2296 28.8654 25.514 29.0139 24.7984 29.0438C21.7874 29.1033 20.3862 26.4007 20.3862 26.4007C18.6856 23.606 18.179 19.9211 18.0597 18.7325C18.0261 18.5962 18.0062 18.4569 18 18.3166C18 17.9602 18.0893 17.5758 18.2979 17.2765C18.4764 16.95 18.7456 16.6819 19.0732 16.5041C19.4312 16.3257 19.7888 16.2663 20.1764 16.2663C20.534 16.2663 20.862 16.3852 21.1904 16.5636C21.422 16.7016 21.6244 16.8832 21.7862 17.0985C22.0545 17.4844 22.1438 17.9897 22.1739 18.4651C22.2899 19.5213 22.4986 20.5653 22.7978 21.5851H22.7998Z" fill="url(#paint14_radial_1077_10805)"/>
<path d="M22.7998 21.5851C23.0384 22.3874 23.3364 23.1901 23.7536 23.9329C23.9326 24.2597 24.1116 24.5866 24.4396 24.7946L24.6182 24.8836C25.0955 24.9726 25.3638 24.5866 25.5425 24.2597C25.7822 23.6969 25.9913 23.1216 26.1687 22.5363C26.1984 22.4173 26.2284 22.3283 26.258 22.2094C26.3219 22.0049 26.3716 21.7964 26.407 21.5851L28.5238 15.9394C28.9636 15.351 29.5353 14.8731 30.1933 14.544C30.8301 14.1868 31.5497 14.002 32.2804 14.008C33.34 14.0115 34.3681 14.3671 35.2021 15.0186C36.6017 16.0599 37.4081 18.1382 37.4081 18.1382C37.5272 18.4099 37.588 18.7034 37.5867 18.9999C37.5808 19.2736 37.5305 19.5445 37.4378 19.8022C37.3174 20.0473 37.1676 20.2769 36.9916 20.4859C36.813 20.6639 36.5744 20.8424 36.3061 20.9314C36.0483 21.0265 35.776 21.0769 35.5012 21.0802C35.1999 21.0856 34.9023 21.014 34.6366 20.8723C34.3683 20.7533 34.1296 20.5454 33.921 20.3374C33.9211 20.3335 33.9204 20.3296 33.919 20.326C33.9175 20.3223 33.9154 20.319 33.9126 20.3162C33.9098 20.3134 33.9065 20.3112 33.9029 20.3097C33.8992 20.3082 33.8953 20.3075 33.8914 20.3075C33.7641 20.1197 33.6539 19.921 33.5622 19.7136C33.451 19.4571 33.3215 19.2088 33.1746 18.9708C33.0853 18.8519 33.0256 18.7329 32.9363 18.6144C32.872 18.4952 32.7799 18.3932 32.6676 18.317C32.459 18.1685 32.2207 18.1091 32.0121 18.228L31.9821 18.2575C31.7438 18.406 31.5944 18.7329 31.4751 19.0003C31.1471 19.7136 30.9681 20.4268 30.7595 21.1996C30.7286 21.3491 30.6988 21.4974 30.6702 21.6446L29.7772 24.4972L28.555 27.2014C28.1077 27.7662 27.5411 28.2415 26.8855 28.5385C26.2296 28.8654 25.514 29.0139 24.7984 29.0438C21.7874 29.1033 20.3862 26.4007 20.3862 26.4007C18.6856 23.606 18.179 19.9211 18.0597 18.7325C18.0261 18.5962 18.0062 18.4569 18 18.3166C18 17.9602 18.0893 17.5758 18.2979 17.2765C18.4764 16.95 18.7456 16.6819 19.0732 16.5041C19.4312 16.3257 19.7888 16.2663 20.1764 16.2663C20.534 16.2663 20.862 16.3852 21.1904 16.5636C21.422 16.7016 21.6244 16.8832 21.7862 17.0985C22.0545 17.4844 22.1438 17.9897 22.1739 18.4651C22.2899 19.5213 22.4986 20.5653 22.7978 21.5851H22.7998Z" fill="url(#paint15_radial_1077_10805)"/>
<path d="M22.7998 21.5851C23.0384 22.3874 23.3364 23.1901 23.7536 23.9329C23.9326 24.2597 24.1116 24.5866 24.4396 24.7946L24.6182 24.8836C25.0955 24.9726 25.3638 24.5866 25.5425 24.2597C25.7822 23.6969 25.9913 23.1216 26.1687 22.5363C26.1984 22.4173 26.2284 22.3283 26.258 22.2094C26.3219 22.0049 26.3716 21.7964 26.407 21.5851L28.5238 15.9394C28.9636 15.351 29.5353 14.8731 30.1933 14.544C30.8301 14.1868 31.5497 14.002 32.2804 14.008C33.34 14.0115 34.3681 14.3671 35.2021 15.0186C36.6017 16.0599 37.4081 18.1382 37.4081 18.1382C37.5272 18.4099 37.588 18.7034 37.5867 18.9999C37.5808 19.2736 37.5305 19.5445 37.4378 19.8022C37.3174 20.0473 37.1676 20.2769 36.9916 20.4859C36.813 20.6639 36.5744 20.8424 36.3061 20.9314C36.0483 21.0265 35.776 21.0769 35.5012 21.0802C35.1999 21.0856 34.9023 21.014 34.6366 20.8723C34.3683 20.7533 34.1296 20.5454 33.921 20.3374C33.9211 20.3335 33.9204 20.3296 33.919 20.326C33.9175 20.3223 33.9154 20.319 33.9126 20.3162C33.9098 20.3134 33.9065 20.3112 33.9029 20.3097C33.8992 20.3082 33.8953 20.3075 33.8914 20.3075C33.7641 20.1197 33.6539 19.921 33.5622 19.7136C33.451 19.4571 33.3215 19.2088 33.1746 18.9708C33.0853 18.8519 33.0256 18.7329 32.9363 18.6144C32.872 18.4952 32.7799 18.3932 32.6676 18.317C32.459 18.1685 32.2207 18.1091 32.0121 18.228L31.9821 18.2575C31.7438 18.406 31.5944 18.7329 31.4751 19.0003C31.1471 19.7136 30.9681 20.4268 30.7595 21.1996C30.7286 21.3491 30.6988 21.4974 30.6702 21.6446L29.7772 24.4972L28.555 27.2014C28.1077 27.7662 27.5411 28.2415 26.8855 28.5385C26.2296 28.8654 25.514 29.0139 24.7984 29.0438C21.7874 29.1033 20.3862 26.4007 20.3862 26.4007C18.6856 23.606 18.179 19.9211 18.0597 18.7325C18.0261 18.5962 18.0062 18.4569 18 18.3166C18 17.9602 18.0893 17.5758 18.2979 17.2765C18.4764 16.95 18.7456 16.6819 19.0732 16.5041C19.4312 16.3257 19.7888 16.2663 20.1764 16.2663C20.534 16.2663 20.862 16.3852 21.1904 16.5636C21.422 16.7016 21.6244 16.8832 21.7862 17.0985C22.0545 17.4844 22.1438 17.9897 22.1739 18.4651C22.2899 19.5213 22.4986 20.5653 22.7978 21.5851H22.7998Z" fill="url(#paint16_radial_1077_10805)"/>
<path d="M22.7998 21.5851C23.0384 22.3874 23.3364 23.1901 23.7536 23.9329C23.9326 24.2597 24.1116 24.5866 24.4396 24.7946L24.6182 24.8836C25.0955 24.9726 25.3638 24.5866 25.5425 24.2597C25.7822 23.6969 25.9913 23.1216 26.1687 22.5363C26.1984 22.4173 26.2284 22.3283 26.258 22.2094C26.3219 22.0049 26.3716 21.7964 26.407 21.5851L28.5238 15.9394C28.9636 15.351 29.5353 14.8731 30.1933 14.544C30.8301 14.1868 31.5497 14.002 32.2804 14.008C33.34 14.0115 34.3681 14.3671 35.2021 15.0186C36.6017 16.0599 37.4081 18.1382 37.4081 18.1382C37.5272 18.4099 37.588 18.7034 37.5867 18.9999C37.5808 19.2736 37.5305 19.5445 37.4378 19.8022C37.3174 20.0473 37.1676 20.2769 36.9916 20.4859C36.813 20.6639 36.5744 20.8424 36.3061 20.9314C36.0483 21.0265 35.776 21.0769 35.5012 21.0802C35.1999 21.0856 34.9023 21.014 34.6366 20.8723C34.3683 20.7533 34.1296 20.5454 33.921 20.3374C33.9211 20.3335 33.9204 20.3296 33.919 20.326C33.9175 20.3223 33.9154 20.319 33.9126 20.3162C33.9098 20.3134 33.9065 20.3112 33.9029 20.3097C33.8992 20.3082 33.8953 20.3075 33.8914 20.3075C33.7641 20.1197 33.6539 19.921 33.5622 19.7136C33.451 19.4571 33.3215 19.2088 33.1746 18.9708C33.0853 18.8519 33.0256 18.7329 32.9363 18.6144C32.872 18.4952 32.7799 18.3932 32.6676 18.317C32.459 18.1685 32.2207 18.1091 32.0121 18.228L31.9821 18.2575C31.7438 18.406 31.5944 18.7329 31.4751 19.0003C31.1471 19.7136 30.9681 20.4268 30.7595 21.1996C30.7286 21.3491 30.6988 21.4974 30.6702 21.6446L29.7772 24.4972L28.555 27.2014C28.1077 27.7662 27.5411 28.2415 26.8855 28.5385C26.2296 28.8654 25.514 29.0139 24.7984 29.0438C21.7874 29.1033 20.3862 26.4007 20.3862 26.4007C18.6856 23.606 18.179 19.9211 18.0597 18.7325C18.0261 18.5962 18.0062 18.4569 18 18.3166C18 17.9602 18.0893 17.5758 18.2979 17.2765C18.4764 16.95 18.7456 16.6819 19.0732 16.5041C19.4312 16.3257 19.7888 16.2663 20.1764 16.2663C20.534 16.2663 20.862 16.3852 21.1904 16.5636C21.422 16.7016 21.6244 16.8832 21.7862 17.0985C22.0545 17.4844 22.1438 17.9897 22.1739 18.4651C22.2899 19.5213 22.4986 20.5653 22.7978 21.5851H22.7998Z" fill="url(#paint17_linear_1077_10805)"/>
<path d="M22.7998 21.5851C23.0384 22.3874 23.3364 23.1901 23.7536 23.9329C23.9326 24.2597 24.1116 24.5866 24.4396 24.7946L24.6182 24.8836C25.0955 24.9726 25.3638 24.5866 25.5425 24.2597C25.7822 23.6969 25.9913 23.1216 26.1687 22.5363C26.1984 22.4173 26.2284 22.3283 26.258 22.2094C26.3219 22.0049 26.3716 21.7964 26.407 21.5851L28.5238 15.9394C28.9636 15.351 29.5353 14.8731 30.1933 14.544C30.8301 14.1868 31.5497 14.002 32.2804 14.008C33.34 14.0115 34.3681 14.3671 35.2021 15.0186C36.6017 16.0599 37.4081 18.1382 37.4081 18.1382C37.5272 18.4099 37.588 18.7034 37.5867 18.9999C37.5808 19.2736 37.5305 19.5445 37.4378 19.8022C37.3174 20.0473 37.1676 20.2769 36.9916 20.4859C36.813 20.6639 36.5744 20.8424 36.3061 20.9314C36.0483 21.0265 35.776 21.0769 35.5012 21.0802C35.1999 21.0856 34.9023 21.014 34.6366 20.8723C34.3683 20.7533 34.1296 20.5454 33.921 20.3374C33.9211 20.3335 33.9204 20.3296 33.919 20.326C33.9175 20.3223 33.9154 20.319 33.9126 20.3162C33.9098 20.3134 33.9065 20.3112 33.9029 20.3097C33.8992 20.3082 33.8953 20.3075 33.8914 20.3075C33.7641 20.1197 33.6539 19.921 33.5622 19.7136C33.451 19.4571 33.3215 19.2088 33.1746 18.9708C33.0853 18.8519 33.0256 18.7329 32.9363 18.6144C32.872 18.4952 32.7799 18.3932 32.6676 18.317C32.459 18.1685 32.2207 18.1091 32.0121 18.228L31.9821 18.2575C31.7438 18.406 31.5944 18.7329 31.4751 19.0003C31.1471 19.7136 30.9681 20.4268 30.7595 21.1996C30.7286 21.3491 30.6988 21.4974 30.6702 21.6446L29.7772 24.4972L28.555 27.2014C28.1077 27.7662 27.5411 28.2415 26.8855 28.5385C26.2296 28.8654 25.514 29.0139 24.7984 29.0438C21.7874 29.1033 20.3862 26.4007 20.3862 26.4007C18.6856 23.606 18.179 19.9211 18.0597 18.7325C18.0261 18.5962 18.0062 18.4569 18 18.3166C18 17.9602 18.0893 17.5758 18.2979 17.2765C18.4764 16.95 18.7456 16.6819 19.0732 16.5041C19.4312 16.3257 19.7888 16.2663 20.1764 16.2663C20.534 16.2663 20.862 16.3852 21.1904 16.5636C21.422 16.7016 21.6244 16.8832 21.7862 17.0985C22.0545 17.4844 22.1438 17.9897 22.1739 18.4651C22.2899 19.5213 22.4986 20.5653 22.7978 21.5851H22.7998Z" fill="url(#paint18_linear_1077_10805)"/>
<path d="M22.7998 21.5851C23.0384 22.3874 23.3364 23.1901 23.7536 23.9329C23.9326 24.2597 24.1116 24.5866 24.4396 24.7946L24.6182 24.8836C25.0955 24.9726 25.3638 24.5866 25.5425 24.2597C25.7822 23.6969 25.9913 23.1216 26.1687 22.5363C26.1984 22.4173 26.2284 22.3283 26.258 22.2094C26.3219 22.0049 26.3716 21.7964 26.407 21.5851L28.5238 15.9394C28.9636 15.351 29.5353 14.8731 30.1933 14.544C30.8301 14.1868 31.5497 14.002 32.2804 14.008C33.34 14.0115 34.3681 14.3671 35.2021 15.0186C36.6017 16.0599 37.4081 18.1382 37.4081 18.1382C37.5272 18.4099 37.588 18.7034 37.5867 18.9999C37.5808 19.2736 37.5305 19.5445 37.4378 19.8022C37.3174 20.0473 37.1676 20.2769 36.9916 20.4859C36.813 20.6639 36.5744 20.8424 36.3061 20.9314C36.0483 21.0265 35.776 21.0769 35.5012 21.0802C35.1999 21.0856 34.9023 21.014 34.6366 20.8723C34.3683 20.7533 34.1296 20.5454 33.921 20.3374C33.9211 20.3335 33.9204 20.3296 33.919 20.326C33.9175 20.3223 33.9154 20.319 33.9126 20.3162C33.9098 20.3134 33.9065 20.3112 33.9029 20.3097C33.8992 20.3082 33.8953 20.3075 33.8914 20.3075C33.7641 20.1197 33.6539 19.921 33.5622 19.7136C33.451 19.4571 33.3215 19.2088 33.1746 18.9708C33.0853 18.8519 33.0256 18.7329 32.9363 18.6144C32.872 18.4952 32.7799 18.3932 32.6676 18.317C32.459 18.1685 32.2207 18.1091 32.0121 18.228L31.9821 18.2575C31.7438 18.406 31.5944 18.7329 31.4751 19.0003C31.1471 19.7136 30.9681 20.4268 30.7595 21.1996C30.7286 21.3491 30.6988 21.4974 30.6702 21.6446L29.7772 24.4972L28.555 27.2014C28.1077 27.7662 27.5411 28.2415 26.8855 28.5385C26.2296 28.8654 25.514 29.0139 24.7984 29.0438C21.7874 29.1033 20.3862 26.4007 20.3862 26.4007C18.6856 23.606 18.179 19.9211 18.0597 18.7325C18.0261 18.5962 18.0062 18.4569 18 18.3166C18 17.9602 18.0893 17.5758 18.2979 17.2765C18.4764 16.95 18.7456 16.6819 19.0732 16.5041C19.4312 16.3257 19.7888 16.2663 20.1764 16.2663C20.534 16.2663 20.862 16.3852 21.1904 16.5636C21.422 16.7016 21.6244 16.8832 21.7862 17.0985C22.0545 17.4844 22.1438 17.9897 22.1739 18.4651C22.2899 19.5213 22.4986 20.5653 22.7978 21.5851H22.7998Z" fill="url(#paint19_linear_1077_10805)"/>
<path d="M22.7998 21.5851C23.0384 22.3874 23.3364 23.1901 23.7536 23.9329C23.9326 24.2597 24.1116 24.5866 24.4396 24.7946L24.6182 24.8836C25.0955 24.9726 25.3638 24.5866 25.5425 24.2597C25.7822 23.6969 25.9913 23.1216 26.1687 22.5363C26.1984 22.4173 26.2284 22.3283 26.258 22.2094C26.3219 22.0049 26.3716 21.7964 26.407 21.5851L28.5238 15.9394C28.9636 15.351 29.5353 14.8731 30.1933 14.544C30.8301 14.1868 31.5497 14.002 32.2804 14.008C33.34 14.0115 34.3681 14.3671 35.2021 15.0186C36.6017 16.0599 37.4081 18.1382 37.4081 18.1382C37.5272 18.4099 37.588 18.7034 37.5867 18.9999C37.5808 19.2736 37.5305 19.5445 37.4378 19.8022C37.3174 20.0473 37.1676 20.2769 36.9916 20.4859C36.813 20.6639 36.5744 20.8424 36.3061 20.9314C36.0483 21.0265 35.776 21.0769 35.5012 21.0802C35.1999 21.0856 34.9023 21.014 34.6366 20.8723C34.3683 20.7533 34.1296 20.5454 33.921 20.3374C33.9211 20.3335 33.9204 20.3296 33.919 20.326C33.9175 20.3223 33.9154 20.319 33.9126 20.3162C33.9098 20.3134 33.9065 20.3112 33.9029 20.3097C33.8992 20.3082 33.8953 20.3075 33.8914 20.3075C33.7641 20.1197 33.6539 19.921 33.5622 19.7136C33.451 19.4571 33.3215 19.2088 33.1746 18.9708C33.0853 18.8519 33.0256 18.7329 32.9363 18.6144C32.872 18.4952 32.7799 18.3932 32.6676 18.317C32.459 18.1685 32.2207 18.1091 32.0121 18.228L31.9821 18.2575C31.7438 18.406 31.5944 18.7329 31.4751 19.0003C31.1471 19.7136 30.9681 20.4268 30.7595 21.1996C30.7286 21.3491 30.6988 21.4974 30.6702 21.6446L29.7772 24.4972L28.555 27.2014C28.1077 27.7662 27.5411 28.2415 26.8855 28.5385C26.2296 28.8654 25.514 29.0139 24.7984 29.0438C21.7874 29.1033 20.3862 26.4007 20.3862 26.4007C18.6856 23.606 18.179 19.9211 18.0597 18.7325C18.0261 18.5962 18.0062 18.4569 18 18.3166C18 17.9602 18.0893 17.5758 18.2979 17.2765C18.4764 16.95 18.7456 16.6819 19.0732 16.5041C19.4312 16.3257 19.7888 16.2663 20.1764 16.2663C20.534 16.2663 20.862 16.3852 21.1904 16.5636C21.422 16.7016 21.6244 16.8832 21.7862 17.0985C22.0545 17.4844 22.1438 17.9897 22.1739 18.4651C22.2899 19.5213 22.4986 20.5653 22.7978 21.5851H22.7998Z" fill="url(#paint20_linear_1077_10805)"/>
<path d="M27.1523 19.4756L28.4938 15.8798C28.9335 15.2909 29.5052 14.8126 30.1633 14.4832C30.8267 14.1757 31.5485 14.0135 32.2801 14.0078C33.3396 14.0114 34.3678 14.367 35.2018 15.0184C36.6014 16.0597 37.4078 18.1381 37.4078 18.1381C37.5269 18.4098 37.5877 18.7033 37.5864 18.9998C37.5805 19.2735 37.5302 19.5444 37.4375 19.8021C37.3171 20.0471 37.1673 20.2767 36.9913 20.4858C36.8127 20.6638 36.5741 20.8422 36.3058 20.9312C36.048 21.0264 35.7757 21.0767 35.5009 21.0801C35.1996 21.0854 34.902 21.0138 34.6363 20.8721C34.368 20.7532 34.1293 20.5453 33.9207 20.3373C33.9208 20.3334 33.9201 20.3295 33.9187 20.3258C33.9172 20.3222 33.915 20.3188 33.9123 20.316C33.9095 20.3132 33.9062 20.311 33.9026 20.3095C33.8989 20.3081 33.895 20.3073 33.8911 20.3074C33.7638 20.1196 33.6536 19.9208 33.5619 19.7134C33.4507 19.4569 33.3212 19.2087 33.1743 18.9707C33.085 18.8517 33.0253 18.7328 32.936 18.6142C32.8717 18.495 32.7796 18.393 32.6673 18.3169C32.4587 18.1684 32.2204 18.1089 32.0118 18.2279L31.9818 18.2574C31.7435 18.4059 31.5941 18.7328 31.4748 19.0002C31.1468 19.7134 30.9678 20.4267 30.7592 21.1994C30.7283 21.3489 30.6985 21.4973 30.6699 21.6445L29.7769 24.4971L27.1523 19.4756Z" fill="url(#paint21_linear_1077_10805)"/>
<path d="M36.9309 16.2665C36.7604 16.2699 36.5906 16.2899 36.4239 16.326C36.8095 16.8868 37.1391 17.484 37.4078 18.1089C37.5269 18.3806 37.5878 18.6741 37.5864 18.9706C37.5805 19.2443 37.5302 19.5152 37.4375 19.7729C37.3171 20.0179 37.1673 20.2473 36.9913 20.4562C36.8078 20.6642 36.5707 20.8184 36.3058 20.9021C36.0479 20.9969 35.7757 21.0471 35.5009 21.0505C35.1433 21.0505 34.7556 20.9615 34.4573 20.7536L34.2487 21.5558C33.861 22.8634 33.5927 23.3388 33.5927 23.3388C33.4437 23.6905 33.2641 24.0287 33.0561 24.3494C32.9072 24.5573 32.7282 24.7653 32.4899 24.8547C32.4027 24.879 32.3121 24.889 32.2216 24.8842C32.1252 24.8821 32.0317 24.8511 31.9533 24.7952C31.7929 24.6648 31.6609 24.503 31.5657 24.3198C31.4543 24.1176 31.3547 23.9092 31.2673 23.6956C31.0876 23.2509 30.7908 22.1502 30.7908 22.1502L30.4929 20.9911L30.1945 19.8324L29.9859 19.0597C29.4477 17.0707 28.6725 16.0881 28.6725 16.0881C28.0762 15.2264 27.2116 14.6025 26.2281 14.2461C25.0972 13.8298 23.9027 14.0677 23.9027 14.0677C22.0242 14.4241 21.0415 15.7021 20.623 16.326C20.8321 16.3854 21.0107 16.4449 21.1897 16.5654C21.4213 16.7029 21.6239 16.884 21.7859 17.0987C22.0542 17.4847 22.1435 17.99 22.1736 18.4653C22.2975 19.4986 22.4968 20.5215 22.7698 21.5259C23.3957 19.4165 24.171 18.4358 24.171 18.4358C24.2473 18.3241 24.3495 18.2323 24.469 18.1684C24.5322 18.1311 24.6041 18.1106 24.6776 18.1089C24.7969 18.1089 24.9459 18.1385 25.0356 18.1979C25.0652 18.1979 25.0652 18.2279 25.0952 18.2279C25.1919 18.3201 25.2816 18.4193 25.3635 18.5248C25.5125 18.8222 25.6615 19.0896 25.7808 19.4165C26.0195 20.0699 26.2281 20.9021 26.2281 20.9021L26.8244 23.2793C27.2713 24.9118 27.6293 25.6861 27.6293 25.6861C28.5535 27.7959 29.9547 28.3902 29.9547 28.3902C30.6472 28.7494 31.4104 28.9523 32.1904 28.9846C32.9323 29.0176 33.6707 28.8637 34.3372 28.5372C35.0632 28.1692 35.7032 27.6526 36.2153 27.0213C36.5433 26.6353 37.0498 25.6842 37.0498 25.6842C37.6082 24.589 38.0384 23.4334 38.3321 22.2403C38.5367 21.4979 38.696 20.7437 38.809 19.982C38.8687 19.5957 38.9283 19.2392 38.958 18.8529C39.0226 18.4981 39.0125 18.1338 38.9283 17.7832C38.8983 17.7237 38.8983 17.6642 38.8687 17.6048C38.6879 17.1638 38.3619 16.7973 37.9444 16.5654C37.6461 16.3555 37.2885 16.2665 36.9309 16.2665Z" fill="url(#paint22_linear_1077_10805)"/>
<path d="M36.9309 16.2665C36.7604 16.2699 36.5906 16.2899 36.4239 16.326C36.8095 16.8868 37.1391 17.484 37.4078 18.1089C37.5269 18.3806 37.5878 18.6741 37.5864 18.9706C37.5805 19.2443 37.5302 19.5152 37.4375 19.7729C37.3171 20.0179 37.1673 20.2473 36.9913 20.4562C36.8078 20.6642 36.5707 20.8184 36.3058 20.9021C36.0479 20.9969 35.7757 21.0471 35.5009 21.0505C35.1433 21.0505 34.7556 20.9615 34.4573 20.7536L34.2487 21.5558C33.861 22.8634 33.5927 23.3388 33.5927 23.3388C33.4437 23.6905 33.2641 24.0287 33.0561 24.3494C32.9072 24.5573 32.7282 24.7653 32.4899 24.8547C32.4027 24.879 32.3121 24.889 32.2216 24.8842C32.1252 24.8821 32.0317 24.8511 31.9533 24.7952C31.7929 24.6648 31.6609 24.503 31.5657 24.3198C31.4543 24.1176 31.3547 23.9092 31.2673 23.6956C31.0876 23.2509 30.7908 22.1502 30.7908 22.1502L30.4929 20.9911L30.1945 19.8324L29.9859 19.0597C29.4477 17.0707 28.6725 16.0881 28.6725 16.0881C28.0762 15.2264 27.2116 14.6025 26.2281 14.2461C25.0972 13.8298 23.9027 14.0677 23.9027 14.0677C22.0242 14.4241 21.0415 15.7021 20.623 16.326C20.8321 16.3854 21.0107 16.4449 21.1897 16.5654C21.4213 16.7029 21.6239 16.884 21.7859 17.0987C22.0542 17.4847 22.1435 17.99 22.1736 18.4653C22.2975 19.4986 22.4968 20.5215 22.7698 21.5259C23.3957 19.4165 24.171 18.4358 24.171 18.4358C24.2473 18.3241 24.3495 18.2323 24.469 18.1684C24.5322 18.1311 24.6041 18.1106 24.6776 18.1089C24.7969 18.1089 24.9459 18.1385 25.0356 18.1979C25.0652 18.1979 25.0652 18.2279 25.0952 18.2279C25.1919 18.3201 25.2816 18.4193 25.3635 18.5248C25.5125 18.8222 25.6615 19.0896 25.7808 19.4165C26.0195 20.0699 26.2281 20.9021 26.2281 20.9021L26.8244 23.2793C27.2713 24.9118 27.6293 25.6861 27.6293 25.6861C28.5535 27.7959 29.9547 28.3902 29.9547 28.3902C30.6472 28.7494 31.4104 28.9523 32.1904 28.9846C32.9323 29.0176 33.6707 28.8637 34.3372 28.5372C35.0632 28.1692 35.7032 27.6526 36.2153 27.0213C36.5433 26.6353 37.0498 25.6842 37.0498 25.6842C37.6082 24.589 38.0384 23.4334 38.3321 22.2403C38.5367 21.4979 38.696 20.7437 38.809 19.982C38.8687 19.5957 38.9283 19.2392 38.958 18.8529C39.0226 18.4981 39.0125 18.1338 38.9283 17.7832C38.8983 17.7237 38.8983 17.6642 38.8687 17.6048C38.6879 17.1638 38.3619 16.7973 37.9444 16.5654C37.6461 16.3555 37.2885 16.2665 36.9309 16.2665Z" fill="url(#paint23_radial_1077_10805)"/>
<path d="M36.9309 16.2665C36.7604 16.2699 36.5906 16.2899 36.4239 16.326C36.8095 16.8868 37.1391 17.484 37.4078 18.1089C37.5269 18.3806 37.5878 18.6741 37.5864 18.9706C37.5805 19.2443 37.5302 19.5152 37.4375 19.7729C37.3171 20.0179 37.1673 20.2473 36.9913 20.4562C36.8078 20.6642 36.5707 20.8184 36.3058 20.9021C36.0479 20.9969 35.7757 21.0471 35.5009 21.0505C35.1433 21.0505 34.7556 20.9615 34.4573 20.7536L34.2487 21.5558C33.861 22.8634 33.5927 23.3388 33.5927 23.3388C33.4437 23.6905 33.2641 24.0287 33.0561 24.3494C32.9072 24.5573 32.7282 24.7653 32.4899 24.8547C32.4027 24.879 32.3121 24.889 32.2216 24.8842C32.1252 24.8821 32.0317 24.8511 31.9533 24.7952C31.7929 24.6648 31.6609 24.503 31.5657 24.3198C31.4543 24.1176 31.3547 23.9092 31.2673 23.6956C31.0876 23.2509 30.7908 22.1502 30.7908 22.1502L30.4929 20.9911L30.1945 19.8324L29.9859 19.0597C29.4477 17.0707 28.6725 16.0881 28.6725 16.0881C28.0762 15.2264 27.2116 14.6025 26.2281 14.2461C25.0972 13.8298 23.9027 14.0677 23.9027 14.0677C22.0242 14.4241 21.0415 15.7021 20.623 16.326C20.8321 16.3854 21.0107 16.4449 21.1897 16.5654C21.4213 16.7029 21.6239 16.884 21.7859 17.0987C22.0542 17.4847 22.1435 17.99 22.1736 18.4653C22.2975 19.4986 22.4968 20.5215 22.7698 21.5259C23.3957 19.4165 24.171 18.4358 24.171 18.4358C24.2473 18.3241 24.3495 18.2323 24.469 18.1684C24.5322 18.1311 24.6041 18.1106 24.6776 18.1089C24.7969 18.1089 24.9459 18.1385 25.0356 18.1979C25.0652 18.1979 25.0652 18.2279 25.0952 18.2279C25.1919 18.3201 25.2816 18.4193 25.3635 18.5248C25.5125 18.8222 25.6615 19.0896 25.7808 19.4165C26.0195 20.0699 26.2281 20.9021 26.2281 20.9021L26.8244 23.2793C27.2713 24.9118 27.6293 25.6861 27.6293 25.6861C28.5535 27.7959 29.9547 28.3902 29.9547 28.3902C30.6472 28.7494 31.4104 28.9523 32.1904 28.9846C32.9323 29.0176 33.6707 28.8637 34.3372 28.5372C35.0632 28.1692 35.7032 27.6526 36.2153 27.0213C36.5433 26.6353 37.0498 25.6842 37.0498 25.6842C37.6082 24.589 38.0384 23.4334 38.3321 22.2403C38.5367 21.4979 38.696 20.7437 38.809 19.982C38.8687 19.5957 38.9283 19.2392 38.958 18.8529C39.0226 18.4981 39.0125 18.1338 38.9283 17.7832C38.8983 17.7237 38.8983 17.6642 38.8687 17.6048C38.6879 17.1638 38.3619 16.7973 37.9444 16.5654C37.6461 16.3555 37.2885 16.2665 36.9309 16.2665Z" fill="url(#paint24_radial_1077_10805)"/>
<path d="M36.9309 16.2665C36.7604 16.2699 36.5906 16.2899 36.4239 16.326C36.8095 16.8868 37.1391 17.484 37.4078 18.1089C37.5269 18.3806 37.5878 18.6741 37.5864 18.9706C37.5805 19.2443 37.5302 19.5152 37.4375 19.7729C37.3171 20.0179 37.1673 20.2473 36.9913 20.4562C36.8078 20.6642 36.5707 20.8184 36.3058 20.9021C36.0479 20.9969 35.7757 21.0471 35.5009 21.0505C35.1433 21.0505 34.7556 20.9615 34.4573 20.7536L34.2487 21.5558C33.861 22.8634 33.5927 23.3388 33.5927 23.3388C33.4437 23.6905 33.2641 24.0287 33.0561 24.3494C32.9072 24.5573 32.7282 24.7653 32.4899 24.8547C32.4027 24.879 32.3121 24.889 32.2216 24.8842C32.1252 24.8821 32.0317 24.8511 31.9533 24.7952C31.7929 24.6648 31.6609 24.503 31.5657 24.3198C31.4543 24.1176 31.3547 23.9092 31.2673 23.6956C31.0876 23.2509 30.7908 22.1502 30.7908 22.1502L30.4929 20.9911L30.1945 19.8324L29.9859 19.0597C29.4477 17.0707 28.6725 16.0881 28.6725 16.0881C28.0762 15.2264 27.2116 14.6025 26.2281 14.2461C25.0972 13.8298 23.9027 14.0677 23.9027 14.0677C22.0242 14.4241 21.0415 15.7021 20.623 16.326C20.8321 16.3854 21.0107 16.4449 21.1897 16.5654C21.4213 16.7029 21.6239 16.884 21.7859 17.0987C22.0542 17.4847 22.1435 17.99 22.1736 18.4653C22.2975 19.4986 22.4968 20.5215 22.7698 21.5259C23.3957 19.4165 24.171 18.4358 24.171 18.4358C24.2473 18.3241 24.3495 18.2323 24.469 18.1684C24.5322 18.1311 24.6041 18.1106 24.6776 18.1089C24.7969 18.1089 24.9459 18.1385 25.0356 18.1979C25.0652 18.1979 25.0652 18.2279 25.0952 18.2279C25.1919 18.3201 25.2816 18.4193 25.3635 18.5248C25.5125 18.8222 25.6615 19.0896 25.7808 19.4165C26.0195 20.0699 26.2281 20.9021 26.2281 20.9021L26.8244 23.2793C27.2713 24.9118 27.6293 25.6861 27.6293 25.6861C28.5535 27.7959 29.9547 28.3902 29.9547 28.3902C30.6472 28.7494 31.4104 28.9523 32.1904 28.9846C32.9323 29.0176 33.6707 28.8637 34.3372 28.5372C35.0632 28.1692 35.7032 27.6526 36.2153 27.0213C36.5433 26.6353 37.0498 25.6842 37.0498 25.6842C37.6082 24.589 38.0384 23.4334 38.3321 22.2403C38.5367 21.4979 38.696 20.7437 38.809 19.982C38.8687 19.5957 38.9283 19.2392 38.958 18.8529C39.0226 18.4981 39.0125 18.1338 38.9283 17.7832C38.8983 17.7237 38.8983 17.6642 38.8687 17.6048C38.6879 17.1638 38.3619 16.7973 37.9444 16.5654C37.6461 16.3555 37.2885 16.2665 36.9309 16.2665Z" fill="url(#paint25_radial_1077_10805)"/>
<path d="M36.9309 16.2665C36.7604 16.2699 36.5906 16.2899 36.4239 16.326C36.8095 16.8868 37.1391 17.484 37.4078 18.1089C37.5269 18.3806 37.5878 18.6741 37.5864 18.9706C37.5805 19.2443 37.5302 19.5152 37.4375 19.7729C37.3171 20.0179 37.1673 20.2473 36.9913 20.4562C36.8078 20.6642 36.5707 20.8184 36.3058 20.9021C36.0479 20.9969 35.7757 21.0471 35.5009 21.0505C35.1433 21.0505 34.7556 20.9615 34.4573 20.7536L34.2487 21.5558C33.861 22.8634 33.5927 23.3388 33.5927 23.3388C33.4437 23.6905 33.2641 24.0287 33.0561 24.3494C32.9072 24.5573 32.7282 24.7653 32.4899 24.8547C32.4027 24.879 32.3121 24.889 32.2216 24.8842C32.1252 24.8821 32.0317 24.8511 31.9533 24.7952C31.7929 24.6648 31.6609 24.503 31.5657 24.3198C31.4543 24.1176 31.3547 23.9092 31.2673 23.6956C31.0876 23.2509 30.7908 22.1502 30.7908 22.1502L30.4929 20.9911L30.1945 19.8324L29.9859 19.0597C29.4477 17.0707 28.6725 16.0881 28.6725 16.0881C28.0762 15.2264 27.2116 14.6025 26.2281 14.2461C25.0972 13.8298 23.9027 14.0677 23.9027 14.0677C22.0242 14.4241 21.0415 15.7021 20.623 16.326C20.8321 16.3854 21.0107 16.4449 21.1897 16.5654C21.4213 16.7029 21.6239 16.884 21.7859 17.0987C22.0542 17.4847 22.1435 17.99 22.1736 18.4653C22.2975 19.4986 22.4968 20.5215 22.7698 21.5259C23.3957 19.4165 24.171 18.4358 24.171 18.4358C24.2473 18.3241 24.3495 18.2323 24.469 18.1684C24.5322 18.1311 24.6041 18.1106 24.6776 18.1089C24.7969 18.1089 24.9459 18.1385 25.0356 18.1979C25.0652 18.1979 25.0652 18.2279 25.0952 18.2279C25.1919 18.3201 25.2816 18.4193 25.3635 18.5248C25.5125 18.8222 25.6615 19.0896 25.7808 19.4165C26.0195 20.0699 26.2281 20.9021 26.2281 20.9021L26.8244 23.2793C27.2713 24.9118 27.6293 25.6861 27.6293 25.6861C28.5535 27.7959 29.9547 28.3902 29.9547 28.3902C30.6472 28.7494 31.4104 28.9523 32.1904 28.9846C32.9323 29.0176 33.6707 28.8637 34.3372 28.5372C35.0632 28.1692 35.7032 27.6526 36.2153 27.0213C36.5433 26.6353 37.0498 25.6842 37.0498 25.6842C37.6082 24.589 38.0384 23.4334 38.3321 22.2403C38.5367 21.4979 38.696 20.7437 38.809 19.982C38.8687 19.5957 38.9283 19.2392 38.958 18.8529C39.0226 18.4981 39.0125 18.1338 38.9283 17.7832C38.8983 17.7237 38.8983 17.6642 38.8687 17.6048C38.6879 17.1638 38.3619 16.7973 37.9444 16.5654C37.6461 16.3555 37.2885 16.2665 36.9309 16.2665Z" fill="url(#paint26_radial_1077_10805)"/>
<path d="M36.9309 16.2665C36.7604 16.2699 36.5906 16.2899 36.4239 16.326C36.8095 16.8868 37.1391 17.484 37.4078 18.1089C37.5269 18.3806 37.5878 18.6741 37.5864 18.9706C37.5805 19.2443 37.5302 19.5152 37.4375 19.7729C37.3171 20.0179 37.1673 20.2473 36.9913 20.4562C36.8078 20.6642 36.5707 20.8184 36.3058 20.9021C36.0479 20.9969 35.7757 21.0471 35.5009 21.0505C35.1433 21.0505 34.7556 20.9615 34.4573 20.7536L34.2487 21.5558C33.861 22.8634 33.5927 23.3388 33.5927 23.3388C33.4437 23.6905 33.2641 24.0287 33.0561 24.3494C32.9072 24.5573 32.7282 24.7653 32.4899 24.8547C32.4027 24.879 32.3121 24.889 32.2216 24.8842C32.1252 24.8821 32.0317 24.8511 31.9533 24.7952C31.7929 24.6648 31.6609 24.503 31.5657 24.3198C31.4543 24.1176 31.3547 23.9092 31.2673 23.6956C31.0876 23.2509 30.7908 22.1502 30.7908 22.1502L30.4929 20.9911L30.1945 19.8324L29.9859 19.0597C29.4477 17.0707 28.6725 16.0881 28.6725 16.0881C28.0762 15.2264 27.2116 14.6025 26.2281 14.2461C25.0972 13.8298 23.9027 14.0677 23.9027 14.0677C22.0242 14.4241 21.0415 15.7021 20.623 16.326C20.8321 16.3854 21.0107 16.4449 21.1897 16.5654C21.4213 16.7029 21.6239 16.884 21.7859 17.0987C22.0542 17.4847 22.1435 17.99 22.1736 18.4653C22.2975 19.4986 22.4968 20.5215 22.7698 21.5259C23.3957 19.4165 24.171 18.4358 24.171 18.4358C24.2473 18.3241 24.3495 18.2323 24.469 18.1684C24.5322 18.1311 24.6041 18.1106 24.6776 18.1089C24.7969 18.1089 24.9459 18.1385 25.0356 18.1979C25.0652 18.1979 25.0652 18.2279 25.0952 18.2279C25.1919 18.3201 25.2816 18.4193 25.3635 18.5248C25.5125 18.8222 25.6615 19.0896 25.7808 19.4165C26.0195 20.0699 26.2281 20.9021 26.2281 20.9021L26.8244 23.2793C27.2713 24.9118 27.6293 25.6861 27.6293 25.6861C28.5535 27.7959 29.9547 28.3902 29.9547 28.3902C30.6472 28.7494 31.4104 28.9523 32.1904 28.9846C32.9323 29.0176 33.6707 28.8637 34.3372 28.5372C35.0632 28.1692 35.7032 27.6526 36.2153 27.0213C36.5433 26.6353 37.0498 25.6842 37.0498 25.6842C37.6082 24.589 38.0384 23.4334 38.3321 22.2403C38.5367 21.4979 38.696 20.7437 38.809 19.982C38.8687 19.5957 38.9283 19.2392 38.958 18.8529C39.0226 18.4981 39.0125 18.1338 38.9283 17.7832C38.8983 17.7237 38.8983 17.6642 38.8687 17.6048C38.6879 17.1638 38.3619 16.7973 37.9444 16.5654C37.6461 16.3555 37.2885 16.2665 36.9309 16.2665Z" fill="url(#paint27_radial_1077_10805)"/>
<path d="M36.9309 16.2665C36.7604 16.2699 36.5906 16.2899 36.4239 16.326C36.8095 16.8868 37.1391 17.484 37.4078 18.1089C37.5269 18.3806 37.5878 18.6741 37.5864 18.9706C37.5805 19.2443 37.5302 19.5152 37.4375 19.7729C37.3171 20.0179 37.1673 20.2473 36.9913 20.4562C36.8078 20.6642 36.5707 20.8184 36.3058 20.9021C36.0479 20.9969 35.7757 21.0471 35.5009 21.0505C35.1433 21.0505 34.7556 20.9615 34.4573 20.7536L34.2487 21.5558C33.861 22.8634 33.5927 23.3388 33.5927 23.3388C33.4437 23.6905 33.2641 24.0287 33.0561 24.3494C32.9072 24.5573 32.7282 24.7653 32.4899 24.8547C32.4027 24.879 32.3121 24.889 32.2216 24.8842C32.1252 24.8821 32.0317 24.8511 31.9533 24.7952C31.7929 24.6648 31.6609 24.503 31.5657 24.3198C31.4543 24.1176 31.3547 23.9092 31.2673 23.6956C31.0876 23.2509 30.7908 22.1502 30.7908 22.1502L30.4929 20.9911L30.1945 19.8324L29.9859 19.0597C29.4477 17.0707 28.6725 16.0881 28.6725 16.0881C28.0762 15.2264 27.2116 14.6025 26.2281 14.2461C25.0972 13.8298 23.9027 14.0677 23.9027 14.0677C22.0242 14.4241 21.0415 15.7021 20.623 16.326C20.8321 16.3854 21.0107 16.4449 21.1897 16.5654C21.4213 16.7029 21.6239 16.884 21.7859 17.0987C22.0542 17.4847 22.1435 17.99 22.1736 18.4653C22.2975 19.4986 22.4968 20.5215 22.7698 21.5259C23.3957 19.4165 24.171 18.4358 24.171 18.4358C24.2473 18.3241 24.3495 18.2323 24.469 18.1684C24.5322 18.1311 24.6041 18.1106 24.6776 18.1089C24.7969 18.1089 24.9459 18.1385 25.0356 18.1979C25.0652 18.1979 25.0652 18.2279 25.0952 18.2279C25.1919 18.3201 25.2816 18.4193 25.3635 18.5248C25.5125 18.8222 25.6615 19.0896 25.7808 19.4165C26.0195 20.0699 26.2281 20.9021 26.2281 20.9021L26.8244 23.2793C27.2713 24.9118 27.6293 25.6861 27.6293 25.6861C28.5535 27.7959 29.9547 28.3902 29.9547 28.3902C30.6472 28.7494 31.4104 28.9523 32.1904 28.9846C32.9323 29.0176 33.6707 28.8637 34.3372 28.5372C35.0632 28.1692 35.7032 27.6526 36.2153 27.0213C36.5433 26.6353 37.0498 25.6842 37.0498 25.6842C37.6082 24.589 38.0384 23.4334 38.3321 22.2403C38.5367 21.4979 38.696 20.7437 38.809 19.982C38.8687 19.5957 38.9283 19.2392 38.958 18.8529C39.0226 18.4981 39.0125 18.1338 38.9283 17.7832C38.8983 17.7237 38.8983 17.6642 38.8687 17.6048C38.6879 17.1638 38.3619 16.7973 37.9444 16.5654C37.6461 16.3555 37.2885 16.2665 36.9309 16.2665Z" fill="url(#paint28_radial_1077_10805)"/>
<path d="M36.9309 16.2665C36.7604 16.2699 36.5906 16.2899 36.4239 16.326C36.8095 16.8868 37.1391 17.484 37.4078 18.1089C37.5269 18.3806 37.5878 18.6741 37.5864 18.9706C37.5805 19.2443 37.5302 19.5152 37.4375 19.7729C37.3171 20.0179 37.1673 20.2473 36.9913 20.4562C36.8078 20.6642 36.5707 20.8184 36.3058 20.9021C36.0479 20.9969 35.7757 21.0471 35.5009 21.0505C35.1433 21.0505 34.7556 20.9615 34.4573 20.7536L34.2487 21.5558C33.861 22.8634 33.5927 23.3388 33.5927 23.3388C33.4437 23.6905 33.2641 24.0287 33.0561 24.3494C32.9072 24.5573 32.7282 24.7653 32.4899 24.8547C32.4027 24.879 32.3121 24.889 32.2216 24.8842C32.1252 24.8821 32.0317 24.8511 31.9533 24.7952C31.7929 24.6648 31.6609 24.503 31.5657 24.3198C31.4543 24.1176 31.3547 23.9092 31.2673 23.6956C31.0876 23.2509 30.7908 22.1502 30.7908 22.1502L30.4929 20.9911L30.1945 19.8324L29.9859 19.0597C29.4477 17.0707 28.6725 16.0881 28.6725 16.0881C28.0762 15.2264 27.2116 14.6025 26.2281 14.2461C25.0972 13.8298 23.9027 14.0677 23.9027 14.0677C22.0242 14.4241 21.0415 15.7021 20.623 16.326C20.8321 16.3854 21.0107 16.4449 21.1897 16.5654C21.4213 16.7029 21.6239 16.884 21.7859 17.0987C22.0542 17.4847 22.1435 17.99 22.1736 18.4653C22.2975 19.4986 22.4968 20.5215 22.7698 21.5259C23.3957 19.4165 24.171 18.4358 24.171 18.4358C24.2473 18.3241 24.3495 18.2323 24.469 18.1684C24.5322 18.1311 24.6041 18.1106 24.6776 18.1089C24.7969 18.1089 24.9459 18.1385 25.0356 18.1979C25.0652 18.1979 25.0652 18.2279 25.0952 18.2279C25.1919 18.3201 25.2816 18.4193 25.3635 18.5248C25.5125 18.8222 25.6615 19.0896 25.7808 19.4165C26.0195 20.0699 26.2281 20.9021 26.2281 20.9021L26.8244 23.2793C27.2713 24.9118 27.6293 25.6861 27.6293 25.6861C28.5535 27.7959 29.9547 28.3902 29.9547 28.3902C30.6472 28.7494 31.4104 28.9523 32.1904 28.9846C32.9323 29.0176 33.6707 28.8637 34.3372 28.5372C35.0632 28.1692 35.7032 27.6526 36.2153 27.0213C36.5433 26.6353 37.0498 25.6842 37.0498 25.6842C37.6082 24.589 38.0384 23.4334 38.3321 22.2403C38.5367 21.4979 38.696 20.7437 38.809 19.982C38.8687 19.5957 38.9283 19.2392 38.958 18.8529C39.0226 18.4981 39.0125 18.1338 38.9283 17.7832C38.8983 17.7237 38.8983 17.6642 38.8687 17.6048C38.6879 17.1638 38.3619 16.7973 37.9444 16.5654C37.6461 16.3555 37.2885 16.2665 36.9309 16.2665Z" fill="url(#paint29_radial_1077_10805)"/>
<path d="M36.9309 16.2665C36.7604 16.2699 36.5906 16.2899 36.4239 16.326C36.8095 16.8868 37.1391 17.484 37.4078 18.1089C37.5269 18.3806 37.5878 18.6741 37.5864 18.9706C37.5805 19.2443 37.5302 19.5152 37.4375 19.7729C37.3171 20.0179 37.1673 20.2473 36.9913 20.4562C36.8078 20.6642 36.5707 20.8184 36.3058 20.9021C36.0479 20.9969 35.7757 21.0471 35.5009 21.0505C35.1433 21.0505 34.7556 20.9615 34.4573 20.7536L34.2487 21.5558C33.861 22.8634 33.5927 23.3388 33.5927 23.3388C33.4437 23.6905 33.2641 24.0287 33.0561 24.3494C32.9072 24.5573 32.7282 24.7653 32.4899 24.8547C32.4027 24.879 32.3121 24.889 32.2216 24.8842C32.1252 24.8821 32.0317 24.8511 31.9533 24.7952C31.7929 24.6648 31.6609 24.503 31.5657 24.3198C31.4543 24.1176 31.3547 23.9092 31.2673 23.6956C31.0876 23.2509 30.7908 22.1502 30.7908 22.1502L30.4929 20.9911L30.1945 19.8324L29.9859 19.0597C29.4477 17.0707 28.6725 16.0881 28.6725 16.0881C28.0762 15.2264 27.2116 14.6025 26.2281 14.2461C25.0972 13.8298 23.9027 14.0677 23.9027 14.0677C22.0242 14.4241 21.0415 15.7021 20.623 16.326C20.8321 16.3854 21.0107 16.4449 21.1897 16.5654C21.4213 16.7029 21.6239 16.884 21.7859 17.0987C22.0542 17.4847 22.1435 17.99 22.1736 18.4653C22.2975 19.4986 22.4968 20.5215 22.7698 21.5259C23.3957 19.4165 24.171 18.4358 24.171 18.4358C24.2473 18.3241 24.3495 18.2323 24.469 18.1684C24.5322 18.1311 24.6041 18.1106 24.6776 18.1089C24.7969 18.1089 24.9459 18.1385 25.0356 18.1979C25.0652 18.1979 25.0652 18.2279 25.0952 18.2279C25.1919 18.3201 25.2816 18.4193 25.3635 18.5248C25.5125 18.8222 25.6615 19.0896 25.7808 19.4165C26.0195 20.0699 26.2281 20.9021 26.2281 20.9021L26.8244 23.2793C27.2713 24.9118 27.6293 25.6861 27.6293 25.6861C28.5535 27.7959 29.9547 28.3902 29.9547 28.3902C30.6472 28.7494 31.4104 28.9523 32.1904 28.9846C32.9323 29.0176 33.6707 28.8637 34.3372 28.5372C35.0632 28.1692 35.7032 27.6526 36.2153 27.0213C36.5433 26.6353 37.0498 25.6842 37.0498 25.6842C37.6082 24.589 38.0384 23.4334 38.3321 22.2403C38.5367 21.4979 38.696 20.7437 38.809 19.982C38.8687 19.5957 38.9283 19.2392 38.958 18.8529C39.0226 18.4981 39.0125 18.1338 38.9283 17.7832C38.8983 17.7237 38.8983 17.6642 38.8687 17.6048C38.6879 17.1638 38.3619 16.7973 37.9444 16.5654C37.6461 16.3555 37.2885 16.2665 36.9309 16.2665Z" fill="url(#paint30_radial_1077_10805)"/>
<path d="M36.9309 16.2665C36.7604 16.2699 36.5906 16.2899 36.4239 16.326C36.8095 16.8868 37.1391 17.484 37.4078 18.1089C37.5269 18.3806 37.5878 18.6741 37.5864 18.9706C37.5805 19.2443 37.5302 19.5152 37.4375 19.7729C37.3171 20.0179 37.1673 20.2473 36.9913 20.4562C36.8078 20.6642 36.5707 20.8184 36.3058 20.9021C36.0479 20.9969 35.7757 21.0471 35.5009 21.0505C35.1433 21.0505 34.7556 20.9615 34.4573 20.7536L34.2487 21.5558C33.861 22.8634 33.5927 23.3388 33.5927 23.3388C33.4437 23.6905 33.2641 24.0287 33.0561 24.3494C32.9072 24.5573 32.7282 24.7653 32.4899 24.8547C32.4027 24.879 32.3121 24.889 32.2216 24.8842C32.1252 24.8821 32.0317 24.8511 31.9533 24.7952C31.7929 24.6648 31.6609 24.503 31.5657 24.3198C31.4543 24.1176 31.3547 23.9092 31.2673 23.6956C31.0876 23.2509 30.7908 22.1502 30.7908 22.1502L30.4929 20.9911L30.1945 19.8324L29.9859 19.0597C29.4477 17.0707 28.6725 16.0881 28.6725 16.0881C28.0762 15.2264 27.2116 14.6025 26.2281 14.2461C25.0972 13.8298 23.9027 14.0677 23.9027 14.0677C22.0242 14.4241 21.0415 15.7021 20.623 16.326C20.8321 16.3854 21.0107 16.4449 21.1897 16.5654C21.4213 16.7029 21.6239 16.884 21.7859 17.0987C22.0542 17.4847 22.1435 17.99 22.1736 18.4653C22.2975 19.4986 22.4968 20.5215 22.7698 21.5259C23.3957 19.4165 24.171 18.4358 24.171 18.4358C24.2473 18.3241 24.3495 18.2323 24.469 18.1684C24.5322 18.1311 24.6041 18.1106 24.6776 18.1089C24.7969 18.1089 24.9459 18.1385 25.0356 18.1979C25.0652 18.1979 25.0652 18.2279 25.0952 18.2279C25.1919 18.3201 25.2816 18.4193 25.3635 18.5248C25.5125 18.8222 25.6615 19.0896 25.7808 19.4165C26.0195 20.0699 26.2281 20.9021 26.2281 20.9021L26.8244 23.2793C27.2713 24.9118 27.6293 25.6861 27.6293 25.6861C28.5535 27.7959 29.9547 28.3902 29.9547 28.3902C30.6472 28.7494 31.4104 28.9523 32.1904 28.9846C32.9323 29.0176 33.6707 28.8637 34.3372 28.5372C35.0632 28.1692 35.7032 27.6526 36.2153 27.0213C36.5433 26.6353 37.0498 25.6842 37.0498 25.6842C37.6082 24.589 38.0384 23.4334 38.3321 22.2403C38.5367 21.4979 38.696 20.7437 38.809 19.982C38.8687 19.5957 38.9283 19.2392 38.958 18.8529C39.0226 18.4981 39.0125 18.1338 38.9283 17.7832C38.8983 17.7237 38.8983 17.6642 38.8687 17.6048C38.6879 17.1638 38.3619 16.7973 37.9444 16.5654C37.6461 16.3555 37.2885 16.2665 36.9309 16.2665Z" fill="url(#paint31_radial_1077_10805)"/>
<path d="M36.9309 16.2665C36.7604 16.2699 36.5906 16.2899 36.4239 16.326C36.8095 16.8868 37.1391 17.484 37.4078 18.1089C37.5269 18.3806 37.5878 18.6741 37.5864 18.9706C37.5805 19.2443 37.5302 19.5152 37.4375 19.7729C37.3171 20.0179 37.1673 20.2473 36.9913 20.4562C36.8078 20.6642 36.5707 20.8184 36.3058 20.9021C36.0479 20.9969 35.7757 21.0471 35.5009 21.0505C35.1433 21.0505 34.7556 20.9615 34.4573 20.7536L34.2487 21.5558C33.861 22.8634 33.5927 23.3388 33.5927 23.3388C33.4437 23.6905 33.2641 24.0287 33.0561 24.3494C32.9072 24.5573 32.7282 24.7653 32.4899 24.8547C32.4027 24.879 32.3121 24.889 32.2216 24.8842C32.1252 24.8821 32.0317 24.8511 31.9533 24.7952C31.7929 24.6648 31.6609 24.503 31.5657 24.3198C31.4543 24.1176 31.3547 23.9092 31.2673 23.6956C31.0876 23.2509 30.7908 22.1502 30.7908 22.1502L30.4929 20.9911L30.1945 19.8324L29.9859 19.0597C29.4477 17.0707 28.6725 16.0881 28.6725 16.0881C28.0762 15.2264 27.2116 14.6025 26.2281 14.2461C25.0972 13.8298 23.9027 14.0677 23.9027 14.0677C22.0242 14.4241 21.0415 15.7021 20.623 16.326C20.8321 16.3854 21.0107 16.4449 21.1897 16.5654C21.4213 16.7029 21.6239 16.884 21.7859 17.0987C22.0542 17.4847 22.1435 17.99 22.1736 18.4653C22.2975 19.4986 22.4968 20.5215 22.7698 21.5259C23.3957 19.4165 24.171 18.4358 24.171 18.4358C24.2473 18.3241 24.3495 18.2323 24.469 18.1684C24.5322 18.1311 24.6041 18.1106 24.6776 18.1089C24.7969 18.1089 24.9459 18.1385 25.0356 18.1979C25.0652 18.1979 25.0652 18.2279 25.0952 18.2279C25.1919 18.3201 25.2816 18.4193 25.3635 18.5248C25.5125 18.8222 25.6615 19.0896 25.7808 19.4165C26.0195 20.0699 26.2281 20.9021 26.2281 20.9021L26.8244 23.2793C27.2713 24.9118 27.6293 25.6861 27.6293 25.6861C28.5535 27.7959 29.9547 28.3902 29.9547 28.3902C30.6472 28.7494 31.4104 28.9523 32.1904 28.9846C32.9323 29.0176 33.6707 28.8637 34.3372 28.5372C35.0632 28.1692 35.7032 27.6526 36.2153 27.0213C36.5433 26.6353 37.0498 25.6842 37.0498 25.6842C37.6082 24.589 38.0384 23.4334 38.3321 22.2403C38.5367 21.4979 38.696 20.7437 38.809 19.982C38.8687 19.5957 38.9283 19.2392 38.958 18.8529C39.0226 18.4981 39.0125 18.1338 38.9283 17.7832C38.8983 17.7237 38.8983 17.6642 38.8687 17.6048C38.6879 17.1638 38.3619 16.7973 37.9444 16.5654C37.6461 16.3555 37.2885 16.2665 36.9309 16.2665Z" fill="url(#paint32_radial_1077_10805)"/>
<path d="M36.9309 16.2665C36.7604 16.2699 36.5906 16.2899 36.4239 16.326C36.8095 16.8868 37.1391 17.484 37.4078 18.1089C37.5269 18.3806 37.5878 18.6741 37.5864 18.9706C37.5805 19.2443 37.5302 19.5152 37.4375 19.7729C37.3171 20.0179 37.1673 20.2473 36.9913 20.4562C36.8078 20.6642 36.5707 20.8184 36.3058 20.9021C36.0479 20.9969 35.7757 21.0471 35.5009 21.0505C35.1433 21.0505 34.7556 20.9615 34.4573 20.7536L34.2487 21.5558C33.861 22.8634 33.5927 23.3388 33.5927 23.3388C33.4437 23.6905 33.2641 24.0287 33.0561 24.3494C32.9072 24.5573 32.7282 24.7653 32.4899 24.8547C32.4027 24.879 32.3121 24.889 32.2216 24.8842C32.1252 24.8821 32.0317 24.8511 31.9533 24.7952C31.7929 24.6648 31.6609 24.503 31.5657 24.3198C31.4543 24.1176 31.3547 23.9092 31.2673 23.6956C31.0876 23.2509 30.7908 22.1502 30.7908 22.1502L30.4929 20.9911L30.1945 19.8324L29.9859 19.0597C29.4477 17.0707 28.6725 16.0881 28.6725 16.0881C28.0762 15.2264 27.2116 14.6025 26.2281 14.2461C25.0972 13.8298 23.9027 14.0677 23.9027 14.0677C22.0242 14.4241 21.0415 15.7021 20.623 16.326C20.8321 16.3854 21.0107 16.4449 21.1897 16.5654C21.4213 16.7029 21.6239 16.884 21.7859 17.0987C22.0542 17.4847 22.1435 17.99 22.1736 18.4653C22.2975 19.4986 22.4968 20.5215 22.7698 21.5259C23.3957 19.4165 24.171 18.4358 24.171 18.4358C24.2473 18.3241 24.3495 18.2323 24.469 18.1684C24.5322 18.1311 24.6041 18.1106 24.6776 18.1089C24.7969 18.1089 24.9459 18.1385 25.0356 18.1979C25.0652 18.1979 25.0652 18.2279 25.0952 18.2279C25.1919 18.3201 25.2816 18.4193 25.3635 18.5248C25.5125 18.8222 25.6615 19.0896 25.7808 19.4165C26.0195 20.0699 26.2281 20.9021 26.2281 20.9021L26.8244 23.2793C27.2713 24.9118 27.6293 25.6861 27.6293 25.6861C28.5535 27.7959 29.9547 28.3902 29.9547 28.3902C30.6472 28.7494 31.4104 28.9523 32.1904 28.9846C32.9323 29.0176 33.6707 28.8637 34.3372 28.5372C35.0632 28.1692 35.7032 27.6526 36.2153 27.0213C36.5433 26.6353 37.0498 25.6842 37.0498 25.6842C37.6082 24.589 38.0384 23.4334 38.3321 22.2403C38.5367 21.4979 38.696 20.7437 38.809 19.982C38.8687 19.5957 38.9283 19.2392 38.958 18.8529C39.0226 18.4981 39.0125 18.1338 38.9283 17.7832C38.8983 17.7237 38.8983 17.6642 38.8687 17.6048C38.6879 17.1638 38.3619 16.7973 37.9444 16.5654C37.6461 16.3555 37.2885 16.2665 36.9309 16.2665Z" fill="url(#paint33_radial_1077_10805)"/>
<path d="M36.9309 16.2665C36.7604 16.2699 36.5906 16.2899 36.4239 16.326C36.8095 16.8868 37.1391 17.484 37.4078 18.1089C37.5269 18.3806 37.5878 18.6741 37.5864 18.9706C37.5805 19.2443 37.5302 19.5152 37.4375 19.7729C37.3171 20.0179 37.1673 20.2473 36.9913 20.4562C36.8078 20.6642 36.5707 20.8184 36.3058 20.9021C36.0479 20.9969 35.7757 21.0471 35.5009 21.0505C35.1433 21.0505 34.7556 20.9615 34.4573 20.7536L34.2487 21.5558C33.861 22.8634 33.5927 23.3388 33.5927 23.3388C33.4437 23.6905 33.2641 24.0287 33.0561 24.3494C32.9072 24.5573 32.7282 24.7653 32.4899 24.8547C32.4027 24.879 32.3121 24.889 32.2216 24.8842C32.1252 24.8821 32.0317 24.8511 31.9533 24.7952C31.7929 24.6648 31.6609 24.503 31.5657 24.3198C31.4543 24.1176 31.3547 23.9092 31.2673 23.6956C31.0876 23.2509 30.7908 22.1502 30.7908 22.1502L30.4929 20.9911L30.1945 19.8324L29.9859 19.0597C29.4477 17.0707 28.6725 16.0881 28.6725 16.0881C28.0762 15.2264 27.2116 14.6025 26.2281 14.2461C25.0972 13.8298 23.9027 14.0677 23.9027 14.0677C22.0242 14.4241 21.0415 15.7021 20.623 16.326C20.8321 16.3854 21.0107 16.4449 21.1897 16.5654C21.4213 16.7029 21.6239 16.884 21.7859 17.0987C22.0542 17.4847 22.1435 17.99 22.1736 18.4653C22.2975 19.4986 22.4968 20.5215 22.7698 21.5259C23.3957 19.4165 24.171 18.4358 24.171 18.4358C24.2473 18.3241 24.3495 18.2323 24.469 18.1684C24.5322 18.1311 24.6041 18.1106 24.6776 18.1089C24.7969 18.1089 24.9459 18.1385 25.0356 18.1979C25.0652 18.1979 25.0652 18.2279 25.0952 18.2279C25.1919 18.3201 25.2816 18.4193 25.3635 18.5248C25.5125 18.8222 25.6615 19.0896 25.7808 19.4165C26.0195 20.0699 26.2281 20.9021 26.2281 20.9021L26.8244 23.2793C27.2713 24.9118 27.6293 25.6861 27.6293 25.6861C28.5535 27.7959 29.9547 28.3902 29.9547 28.3902C30.6472 28.7494 31.4104 28.9523 32.1904 28.9846C32.9323 29.0176 33.6707 28.8637 34.3372 28.5372C35.0632 28.1692 35.7032 27.6526 36.2153 27.0213C36.5433 26.6353 37.0498 25.6842 37.0498 25.6842C37.6082 24.589 38.0384 23.4334 38.3321 22.2403C38.5367 21.4979 38.696 20.7437 38.809 19.982C38.8687 19.5957 38.9283 19.2392 38.958 18.8529C39.0226 18.4981 39.0125 18.1338 38.9283 17.7832C38.8983 17.7237 38.8983 17.6642 38.8687 17.6048C38.6879 17.1638 38.3619 16.7973 37.9444 16.5654C37.6461 16.3555 37.2885 16.2665 36.9309 16.2665Z" fill="url(#paint34_radial_1077_10805)"/>
<path d="M36.9309 16.2665C36.7604 16.2699 36.5906 16.2899 36.4239 16.326C36.8095 16.8868 37.1391 17.484 37.4078 18.1089C37.5269 18.3806 37.5878 18.6741 37.5864 18.9706C37.5805 19.2443 37.5302 19.5152 37.4375 19.7729C37.3171 20.0179 37.1673 20.2473 36.9913 20.4562C36.8078 20.6642 36.5707 20.8184 36.3058 20.9021C36.0479 20.9969 35.7757 21.0471 35.5009 21.0505C35.1433 21.0505 34.7556 20.9615 34.4573 20.7536L34.2487 21.5558C33.861 22.8634 33.5927 23.3388 33.5927 23.3388C33.4437 23.6905 33.2641 24.0287 33.0561 24.3494C32.9072 24.5573 32.7282 24.7653 32.4899 24.8547C32.4027 24.879 32.3121 24.889 32.2216 24.8842C32.1252 24.8821 32.0317 24.8511 31.9533 24.7952C31.7929 24.6648 31.6609 24.503 31.5657 24.3198C31.4543 24.1176 31.3547 23.9092 31.2673 23.6956C31.0876 23.2509 30.7908 22.1502 30.7908 22.1502L30.4929 20.9911L30.1945 19.8324L29.9859 19.0597C29.4477 17.0707 28.6725 16.0881 28.6725 16.0881C28.0762 15.2264 27.2116 14.6025 26.2281 14.2461C25.0972 13.8298 23.9027 14.0677 23.9027 14.0677C22.0242 14.4241 21.0415 15.7021 20.623 16.326C20.8321 16.3854 21.0107 16.4449 21.1897 16.5654C21.4213 16.7029 21.6239 16.884 21.7859 17.0987C22.0542 17.4847 22.1435 17.99 22.1736 18.4653C22.2975 19.4986 22.4968 20.5215 22.7698 21.5259C23.3957 19.4165 24.171 18.4358 24.171 18.4358C24.2473 18.3241 24.3495 18.2323 24.469 18.1684C24.5322 18.1311 24.6041 18.1106 24.6776 18.1089C24.7969 18.1089 24.9459 18.1385 25.0356 18.1979C25.0652 18.1979 25.0652 18.2279 25.0952 18.2279C25.1919 18.3201 25.2816 18.4193 25.3635 18.5248C25.5125 18.8222 25.6615 19.0896 25.7808 19.4165C26.0195 20.0699 26.2281 20.9021 26.2281 20.9021L26.8244 23.2793C27.2713 24.9118 27.6293 25.6861 27.6293 25.6861C28.5535 27.7959 29.9547 28.3902 29.9547 28.3902C30.6472 28.7494 31.4104 28.9523 32.1904 28.9846C32.9323 29.0176 33.6707 28.8637 34.3372 28.5372C35.0632 28.1692 35.7032 27.6526 36.2153 27.0213C36.5433 26.6353 37.0498 25.6842 37.0498 25.6842C37.6082 24.589 38.0384 23.4334 38.3321 22.2403C38.5367 21.4979 38.696 20.7437 38.809 19.982C38.8687 19.5957 38.9283 19.2392 38.958 18.8529C39.0226 18.4981 39.0125 18.1338 38.9283 17.7832C38.8983 17.7237 38.8983 17.6642 38.8687 17.6048C38.6879 17.1638 38.3619 16.7973 37.9444 16.5654C37.6461 16.3555 37.2885 16.2665 36.9309 16.2665Z" fill="url(#paint35_linear_1077_10805)"/>
</g>
<defs>
<filter id="filter0_d_1077_10805" x="0" y="0" width="57.6406" height="50.8281" filterUnits="userSpaceOnUse" color-interpolation-filters="sRGB">
<feFlood flood-opacity="0" result="BackgroundImageFix"/>
<feColorMatrix in="SourceAlpha" type="matrix" values="0 0 0 0 0 0 0 0 0 0 0 0 0 0 0 0 0 0 127 0" result="hardAlpha"/>
<feOffset dy="4"/>
<feGaussianBlur stdDeviation="3"/>
<feComposite in2="hardAlpha" operator="out"/>
<feColorMatrix type="matrix" values="0 0 0 0 0.595833 0 0 0 0 0.595833 0 0 0 0 0.595833 0 0 0 0.25 0"/>
<feBlend mode="normal" in2="BackgroundImageFix" result="effect1_dropShadow_1077_10805"/>
<feBlend mode="normal" in="SourceGraphic" in2="effect1_dropShadow_1077_10805" result="shape"/>
</filter>
<linearGradient id="paint0_linear_1077_10805" x1="16.2182" y1="2" x2="51.6406" y2="25.1608" gradientUnits="userSpaceOnUse">
<stop stop-color="#F8F8F8"/>
<stop offset="1" stop-color="#EAEAEA"/>
</linearGradient>
<linearGradient id="paint1_linear_1077_10805" x1="18.9511" y1="24.1478" x2="35.2794" y2="17.5261" gradientUnits="userSpaceOnUse">
<stop offset="0.13" stop-color="#30BAED"/>
<stop offset="0.34" stop-color="#2399A5"/>
<stop offset="0.45" stop-color="#209CA6"/>
<stop offset="0.51" stop-color="#24A4AA"/>
<stop offset="0.57" stop-color="#2CB4B0"/>
<stop offset="0.6" stop-color="#3CB7B1"/>
<stop offset="0.79" stop-color="#42B38E"/>
<stop offset="1" stop-color="#7CBB4B"/>
</linearGradient>
<radialGradient id="paint2_radial_1077_10805" cx="0" cy="0" r="1" gradientUnits="userSpaceOnUse" gradientTransform="translate(29.8536 20.2203) rotate(74.2759) scale(7.78363 5.93072)">
<stop stop-color="#237C61"/>
<stop offset="0.14" stop-color="#237C61" stop-opacity="0.81"/>
<stop offset="0.58" stop-color="#237C61" stop-opacity="0.23"/>
<stop offset="0.78" stop-color="#237C61" stop-opacity="0"/>
</radialGradient>
<radialGradient id="paint3_radial_1077_10805" cx="0" cy="0" r="1" gradientUnits="userSpaceOnUse" gradientTransform="translate(30.9928 19.7054) rotate(91.1359) scale(5.26023 4.01106)">
<stop stop-color="#237C61"/>
<stop offset="0.25" stop-color="#237C61" stop-opacity="0.7"/>
<stop offset="0.71" stop-color="#237C61" stop-opacity="0.2"/>
<stop offset="0.92" stop-color="#237C61" stop-opacity="0"/>
</radialGradient>
<radialGradient id="paint4_radial_1077_10805" cx="0" cy="0" r="1" gradientUnits="userSpaceOnUse" gradientTransform="translate(30.7898 19.9537) rotate(88.6076) scale(4.90429 3.4929)">
<stop stop-color="#237C61"/>
<stop offset="0.07" stop-color="#237C61" stop-opacity="0.9"/>
<stop offset="0.34" stop-color="#237C61" stop-opacity="0.51"/>
<stop offset="0.59" stop-color="#237C61" stop-opacity="0.23"/>
<stop offset="0.79" stop-color="#237C61" stop-opacity="0.06"/>
<stop offset="0.92" stop-color="#237C61" stop-opacity="0"/>
</radialGradient>
<radialGradient id="paint5_radial_1077_10805" cx="0" cy="0" r="1" gradientUnits="userSpaceOnUse" gradientTransform="translate(30.778 19.6893) rotate(88.5772) scale(3.95972 2.82231)">
<stop stop-color="#237C61"/>
<stop offset="0.36" stop-color="#237C61" stop-opacity="0.63"/>
<stop offset="0.92" stop-color="#237C61" stop-opacity="0"/>
</radialGradient>
<radialGradient id="paint6_radial_1077_10805" cx="0" cy="0" r="1" gradientUnits="userSpaceOnUse" gradientTransform="translate(31.0503 19.9525) rotate(88.5943) scale(3.15766 2.02661)">
<stop stop-color="#22745B"/>
<stop offset="0.15" stop-color="#22755B" stop-opacity="0.93"/>
<stop offset="0.38" stop-color="#22755D" stop-opacity="0.74"/>
<stop offset="0.67" stop-color="#20795E" stop-opacity="0.43"/>
<stop offset="1" stop-color="#237C61" stop-opacity="0"/>
</radialGradient>
<radialGradient id="paint7_radial_1077_10805" cx="0" cy="0" r="1" gradientUnits="userSpaceOnUse" gradientTransform="translate(31.4264 20.3597) rotate(23.7401) scale(5.09703 3.81265)">
<stop stop-color="#237B62"/>
<stop offset="0.36" stop-color="#237B62" stop-opacity="0.56"/>
<stop offset="0.72" stop-color="#237B62" stop-opacity="0.16"/>
<stop offset="0.9" stop-color="#237B62" stop-opacity="0"/>
</radialGradient>
<radialGradient id="paint8_radial_1077_10805" cx="0" cy="0" r="1" gradientUnits="userSpaceOnUse" gradientTransform="translate(29.7097 12.1821) rotate(35.1893) scale(6.79178 6.20442)">
<stop stop-color="#60BFB6"/>
<stop offset="0.07" stop-color="#5FBEB4" stop-opacity="0.9"/>
<stop offset="0.41" stop-color="#56BBAF" stop-opacity="0.42"/>
<stop offset="0.65" stop-color="#51BAAD" stop-opacity="0.12"/>
<stop offset="0.76" stop-color="#4DB9AC" stop-opacity="0"/>
</radialGradient>
<radialGradient id="paint9_radial_1077_10805" cx="0" cy="0" r="1" gradientUnits="userSpaceOnUse" gradientTransform="translate(-11140.6 -15098.7) rotate(35.1838) scale(1206.82 845.953)">
<stop stop-color="#60BFB6"/>
<stop offset="0.07" stop-color="#5FBEB4" stop-opacity="0.9"/>
<stop offset="0.41" stop-color="#56BBAF" stop-opacity="0.42"/>
<stop offset="0.65" stop-color="#51BAAD" stop-opacity="0.12"/>
<stop offset="0.76" stop-color="#4DB9AC" stop-opacity="0"/>
</radialGradient>
<radialGradient id="paint10_radial_1077_10805" cx="0" cy="0" r="1" gradientUnits="userSpaceOnUse" gradientTransform="translate(32.4073 21.771) rotate(101.005) scale(5.97789 7.41)">
<stop stop-color="#258067" stop-opacity="0.8"/>
<stop offset="0.06" stop-color="#2F8D71" stop-opacity="0.65"/>
<stop offset="0.21" stop-color="#3EA886" stop-opacity="0.37"/>
<stop offset="0.35" stop-color="#4FB692" stop-opacity="0.17"/>
<stop offset="0.47" stop-color="#5EBA99" stop-opacity="0.04"/>
<stop offset="0.56" stop-color="#62BC9A" stop-opacity="0"/>
</radialGradient>
<radialGradient id="paint11_radial_1077_10805" cx="0" cy="0" r="1" gradientUnits="userSpaceOnUse" gradientTransform="translate(29.0521 22.0468) rotate(-50.7242) scale(7.82198 8.45309)">
<stop stop-color="#197C8B"/>
<stop offset="0.04" stop-color="#197C8B" stop-opacity="0.93"/>
<stop offset="0.33" stop-color="#197F8E" stop-opacity="0.43"/>
<stop offset="0.54" stop-color="#1A8190" stop-opacity="0.12"/>
<stop offset="0.65" stop-color="#188391" stop-opacity="0"/>
</radialGradient>
<radialGradient id="paint12_radial_1077_10805" cx="0" cy="0" r="1" gradientUnits="userSpaceOnUse" gradientTransform="translate(28.6034 22.8636) rotate(-31.5806) scale(7.63816 6.02665)">
<stop offset="0.05" stop-color="#187E88"/>
<stop offset="0.11" stop-color="#1B7E8A" stop-opacity="0.8"/>
<stop offset="0.21" stop-color="#19808C" stop-opacity="0.52"/>
<stop offset="0.32" stop-color="#1A828E" stop-opacity="0.29"/>
<stop offset="0.42" stop-color="#1A8190" stop-opacity="0.13"/>
<stop offset="0.51" stop-color="#188391" stop-opacity="0.03"/>
<stop offset="0.6" stop-color="#188391" stop-opacity="0"/>
</radialGradient>
<radialGradient id="paint13_radial_1077_10805" cx="0" cy="0" r="1" gradientUnits="userSpaceOnUse" gradientTransform="translate(27.0426 22.7548) rotate(-130.637) scale(4.54729 3.58113)">
<stop offset="0.26" stop-color="#1A808B"/>
<stop offset="0.27" stop-color="#1A808B" stop-opacity="0.98"/>
<stop offset="0.38" stop-color="#18818D" stop-opacity="0.68"/>
<stop offset="0.5" stop-color="#1A828E" stop-opacity="0.43"/>
<stop offset="0.62" stop-color="#1A8190" stop-opacity="0.24"/>
<stop offset="0.74" stop-color="#188390" stop-opacity="0.11"/>
<stop offset="0.86" stop-color="#188391" stop-opacity="0.03"/>
<stop offset="1" stop-color="#188391" stop-opacity="0"/>
</radialGradient>
<radialGradient id="paint14_radial_1077_10805" cx="0" cy="0" r="1" gradientUnits="userSpaceOnUse" gradientTransform="translate(25.884 24.0485) rotate(-173.132) scale(4.27224 4.25864)">
<stop stop-color="#17666F"/>
<stop offset="0.11" stop-color="#15656F" stop-opacity="0.73"/>
<stop offset="0.27" stop-color="#15656F" stop-opacity="0.41"/>
<stop offset="0.42" stop-color="#16646F" stop-opacity="0.18"/>
<stop offset="0.55" stop-color="#16646F" stop-opacity="0.05"/>
<stop offset="0.66" stop-color="#16646F" stop-opacity="0"/>
</radialGradient>
<radialGradient id="paint15_radial_1077_10805" cx="0" cy="0" r="1" gradientUnits="userSpaceOnUse" gradientTransform="translate(25.822 24.6036) rotate(-119.407) scale(2.97932 2.5099)">
<stop offset="0.13" stop-color="#156B74"/>
<stop offset="0.24" stop-color="#16707A" stop-opacity="0.79"/>
<stop offset="0.45" stop-color="#177884" stop-opacity="0.45"/>
<stop offset="0.65" stop-color="#197D8A" stop-opacity="0.2"/>
<stop offset="0.82" stop-color="#19828F" stop-opacity="0.05"/>
<stop offset="0.95" stop-color="#188391" stop-opacity="0"/>
</radialGradient>
<radialGradient id="paint16_radial_1077_10805" cx="0" cy="0" r="1" gradientUnits="userSpaceOnUse" gradientTransform="translate(25.1522 23.3229) rotate(-55.8858) scale(2.80491 2.22553)">
<stop stop-color="#1B8E9C"/>
<stop offset="0.1" stop-color="#1B8E9C" stop-opacity="0.87"/>
<stop offset="0.41" stop-color="#1B8E9C" stop-opacity="0.5"/>
<stop offset="0.67" stop-color="#1B8E9C" stop-opacity="0.23"/>
<stop offset="0.88" stop-color="#1B8E9C" stop-opacity="0.06"/>
<stop offset="1" stop-color="#1B8E9C" stop-opacity="0"/>
</radialGradient>
<linearGradient id="paint17_linear_1077_10805" x1="19.9916" y1="13.6725" x2="27.1811" y2="20.3478" gradientUnits="userSpaceOnUse">
<stop offset="0.13" stop-color="#71C8DD"/>
<stop offset="0.27" stop-color="#70C7DD" stop-opacity="0.64"/>
<stop offset="0.4" stop-color="#70C7DC" stop-opacity="0.3"/>
<stop offset="0.49" stop-color="#70C7DC" stop-opacity="0.08"/>
<stop offset="0.54" stop-color="#70C7DC" stop-opacity="0"/>
</linearGradient>
<linearGradient id="paint18_linear_1077_10805" x1="15.9183" y1="24.5373" x2="24.3372" y2="22.1428" gradientUnits="userSpaceOnUse">
<stop stop-color="#70C7DC"/>
<stop offset="0.06" stop-color="#70C7DC" stop-opacity="0.88"/>
<stop offset="0.24" stop-color="#70C7DC" stop-opacity="0.51"/>
<stop offset="0.39" stop-color="#70C7DC" stop-opacity="0.23"/>
<stop offset="0.5" stop-color="#70C7DC" stop-opacity="0.06"/>
<stop offset="0.55" stop-color="#70C7DC" stop-opacity="0"/>
</linearGradient>
<linearGradient id="paint19_linear_1077_10805" x1="18.1509" y1="24.2454" x2="27.6362" y2="20.853" gradientUnits="userSpaceOnUse">
<stop stop-color="#5FC5E7"/>
<stop offset="0.04" stop-color="#5FC5E7" stop-opacity="0.88"/>
<stop offset="0.17" stop-color="#5FC5E7" stop-opacity="0.51"/>
<stop offset="0.27" stop-color="#5FC5E7" stop-opacity="0.23"/>
<stop offset="0.34" stop-color="#5FC5E7" stop-opacity="0.06"/>
<stop offset="0.38" stop-color="#5FC5E7" stop-opacity="0"/>
</linearGradient>
<linearGradient id="paint20_linear_1077_10805" x1="27.169" y1="19.3467" x2="32.4536" y2="27.9938" gradientUnits="userSpaceOnUse">
<stop offset="0.62" stop-color="#5FC5E7" stop-opacity="0"/>
<stop offset="0.66" stop-color="#5FC5E7" stop-opacity="0.06"/>
<stop offset="0.73" stop-color="#5FC5E7" stop-opacity="0.23"/>
<stop offset="0.83" stop-color="#5FC5E7" stop-opacity="0.51"/>
<stop offset="0.96" stop-color="#5FC5E7" stop-opacity="0.88"/>
<stop offset="1" stop-color="#5FC5E7"/>
</linearGradient>
<linearGradient id="paint21_linear_1077_10805" x1="33.078" y1="22.5731" x2="32.2487" y2="18.5113" gradientUnits="userSpaceOnUse">
<stop stop-color="#4BAE46"/>
<stop offset="0.11" stop-color="#4BAE46" stop-opacity="0.8"/>
<stop offset="0.27" stop-color="#4BAE46" stop-opacity="0.52"/>
<stop offset="0.43" stop-color="#4BAE46" stop-opacity="0.29"/>
<stop offset="0.58" stop-color="#4BAE46" stop-opacity="0.13"/>
<stop offset="0.7" stop-color="#4BAE46" stop-opacity="0.03"/>
<stop offset="0.8" stop-color="#4BAE46" stop-opacity="0"/>
</linearGradient>
<linearGradient id="paint22_linear_1077_10805" x1="21.4287" y1="18.3472" x2="38.9945" y2="24.1817" gradientUnits="userSpaceOnUse">
<stop stop-color="#3E61AB"/>
<stop offset="0.38" stop-color="#3D60AA"/>
<stop offset="0.74" stop-color="#3959A5"/>
<stop offset="1" stop-color="#4C72B7"/>
</linearGradient>
<radialGradient id="paint23_radial_1077_10805" cx="0" cy="0" r="1" gradientUnits="userSpaceOnUse" gradientTransform="translate(33.8293 21.0457) rotate(98.7107) scale(9.36432 6.19913)">
<stop stop-color="#204194"/>
<stop offset="0.4" stop-color="#204194" stop-opacity="0.42"/>
<stop offset="0.7" stop-color="#204194" stop-opacity="0"/>
</radialGradient>
<radialGradient id="paint24_radial_1077_10805" cx="0" cy="0" r="1" gradientUnits="userSpaceOnUse" gradientTransform="translate(5738.66 -14698.7) rotate(98.7182) scale(1151.94 623.065)">
<stop stop-color="#204194"/>
<stop offset="0.4" stop-color="#204194" stop-opacity="0.42"/>
<stop offset="0.7" stop-color="#204194" stop-opacity="0"/>
</radialGradient>
<radialGradient id="paint25_radial_1077_10805" cx="0" cy="0" r="1" gradientUnits="userSpaceOnUse" gradientTransform="translate(5040.55 -14927.8) rotate(98.6435) scale(1371.9 568.543)">
<stop stop-color="#204194"/>
<stop offset="0.4" stop-color="#204194" stop-opacity="0.42"/>
<stop offset="0.7" stop-color="#204194" stop-opacity="0"/>
</radialGradient>
<radialGradient id="paint26_radial_1077_10805" cx="0" cy="0" r="1" gradientUnits="userSpaceOnUse" gradientTransform="translate(32.6477 20.6222) rotate(83.0587) scale(8.18487 5.72886)">
<stop stop-color="#204194"/>
<stop offset="0.16" stop-color="#204194" stop-opacity="0.69"/>
<stop offset="0.33" stop-color="#204194" stop-opacity="0.4"/>
<stop offset="0.49" stop-color="#204194" stop-opacity="0.18"/>
<stop offset="0.61" stop-color="#204194" stop-opacity="0.05"/>
<stop offset="0.7" stop-color="#204194" stop-opacity="0"/>
</radialGradient>
<radialGradient id="paint27_radial_1077_10805" cx="0" cy="0" r="1" gradientUnits="userSpaceOnUse" gradientTransform="translate(34.0983 21.9075) rotate(74.5829) scale(7.86751 5.36554)">
<stop stop-color="#1F3D89"/>
<stop offset="0.37" stop-color="#1B3E92" stop-opacity="0.45"/>
<stop offset="0.7" stop-color="#204194" stop-opacity="0"/>
</radialGradient>
<radialGradient id="paint28_radial_1077_10805" cx="0" cy="0" r="1" gradientUnits="userSpaceOnUse" gradientTransform="translate(33.3702 24.0384) rotate(74.5947) scale(3.65631 3.48455)">
<stop stop-color="#1F3D89"/>
<stop offset="0.09" stop-color="#1E3D8C" stop-opacity="0.78"/>
<stop offset="0.22" stop-color="#1B3E92" stop-opacity="0.5"/>
<stop offset="0.35" stop-color="#1A3F92" stop-opacity="0.28"/>
<stop offset="0.47" stop-color="#1F4093" stop-opacity="0.13"/>
<stop offset="0.59" stop-color="#204194" stop-opacity="0.03"/>
<stop offset="0.7" stop-color="#204194" stop-opacity="0"/>
</radialGradient>
<radialGradient id="paint29_radial_1077_10805" cx="0" cy="0" r="1" gradientUnits="userSpaceOnUse" gradientTransform="translate(33.4608 24.6641) rotate(74.5947) scale(3.65631 3.48455)">
<stop stop-color="#204194" stop-opacity="0.8"/>
<stop offset="0.01" stop-color="#204194" stop-opacity="0.78"/>
<stop offset="0.24" stop-color="#204194" stop-opacity="0.45"/>
<stop offset="0.44" stop-color="#204194" stop-opacity="0.2"/>
<stop offset="0.6" stop-color="#204194" stop-opacity="0.05"/>
<stop offset="0.7" stop-color="#204194" stop-opacity="0"/>
</radialGradient>
<radialGradient id="paint30_radial_1077_10805" cx="0" cy="0" r="1" gradientUnits="userSpaceOnUse" gradientTransform="translate(24.3099 22.3726) rotate(66.9615) scale(8.73225 5.8086)">
<stop stop-color="#204194"/>
<stop offset="0.4" stop-color="#204194" stop-opacity="0.56"/>
<stop offset="0.48" stop-color="#204194" stop-opacity="0.43"/>
<stop offset="0.69" stop-color="#204194" stop-opacity="0.12"/>
<stop offset="0.79" stop-color="#204194" stop-opacity="0"/>
</radialGradient>
<radialGradient id="paint31_radial_1077_10805" cx="0" cy="0" r="1" gradientUnits="userSpaceOnUse" gradientTransform="translate(23.7784 20.4563) rotate(76.0473) scale(6.47475 4.28715)">
<stop stop-color="#204194"/>
<stop offset="0.06" stop-color="#204194" stop-opacity="0.88"/>
<stop offset="0.21" stop-color="#204194" stop-opacity="0.61"/>
<stop offset="0.36" stop-color="#204194" stop-opacity="0.39"/>
<stop offset="0.51" stop-color="#204194" stop-opacity="0.22"/>
<stop offset="0.67" stop-color="#204194" stop-opacity="0.1"/>
<stop offset="0.83" stop-color="#204194" stop-opacity="0.02"/>
<stop offset="1" stop-color="#204194" stop-opacity="0"/>
</radialGradient>
<radialGradient id="paint32_radial_1077_10805" cx="0" cy="0" r="1" gradientUnits="userSpaceOnUse" gradientTransform="translate(23.7784 20.4563) rotate(76.0473) scale(6.47475 4.28715)">
<stop stop-color="#224295"/>
<stop offset="0.06" stop-color="#224295" stop-opacity="0.87"/>
<stop offset="0.21" stop-color="#204295" stop-opacity="0.61"/>
<stop offset="0.36" stop-color="#214294" stop-opacity="0.39"/>
<stop offset="0.52" stop-color="#204194" stop-opacity="0.22"/>
<stop offset="0.67" stop-color="#204194" stop-opacity="0.1"/>
<stop offset="0.83" stop-color="#204194" stop-opacity="0.02"/>
<stop offset="1" stop-color="#204194" stop-opacity="0"/>
</radialGradient>
<radialGradient id="paint33_radial_1077_10805" cx="0" cy="0" r="1" gradientUnits="userSpaceOnUse" gradientTransform="translate(24.0073 19.7384) rotate(76.0448) scale(4.95404 3.28003)">
<stop stop-color="#1E3D8B"/>
<stop offset="0.03" stop-color="#1E3D8C" stop-opacity="0.95"/>
<stop offset="0.18" stop-color="#1D3D90" stop-opacity="0.66"/>
<stop offset="0.34" stop-color="#1B3E92" stop-opacity="0.42"/>
<stop offset="0.5" stop-color="#1E3F92" stop-opacity="0.24"/>
<stop offset="0.66" stop-color="#214093" stop-opacity="0.1"/>
<stop offset="0.82" stop-color="#204194" stop-opacity="0.03"/>
<stop offset="1" stop-color="#204194" stop-opacity="0"/>
</radialGradient>
<radialGradient id="paint34_radial_1077_10805" cx="0" cy="0" r="1" gradientUnits="userSpaceOnUse" gradientTransform="translate(24.8767 20.3022) rotate(87.1195) scale(3.91296 3.4574)">
<stop offset="0.04" stop-color="#3657A3" stop-opacity="0.6"/>
<stop offset="0.2" stop-color="#3657A3" stop-opacity="0.49"/>
<stop offset="0.52" stop-color="#3657A3" stop-opacity="0.2"/>
<stop offset="0.73" stop-color="#3657A3" stop-opacity="0"/>
</radialGradient>
<linearGradient id="paint35_linear_1077_10805" x1="32.844" y1="11.2119" x2="28.4295" y2="22.1602" gradientUnits="userSpaceOnUse">
<stop stop-color="#4369B0"/>
<stop offset="0.05" stop-color="#4369B0" stop-opacity="0.91"/>
<stop offset="0.16" stop-color="#4369B0" stop-opacity="0.66"/>
<stop offset="0.32" stop-color="#4369B0" stop-opacity="0.28"/>
<stop offset="0.43" stop-color="#4369B0" stop-opacity="0"/>
</linearGradient>
<clipPath id="clip0_1077_10805">
<rect width="21" height="15.0448" fill="white" transform="translate(18 14)"/>
</clipPath>
</defs>
</svg>
