<svg width="358" height="33" viewBox="0 0 358 33" fill="none" xmlns="http://www.w3.org/2000/svg">
<path d="M315.63 24.9998L315.63 26.4998L315.963 26.4998L316.264 26.3595L315.63 24.9998ZM2.01071e-06 24.9998C2.39696e-06 29.4181 3.58172 32.9998 8 32.9998C12.4183 32.9998 16 29.4181 16 24.9998C16 20.5815 12.4183 16.9998 8 16.9998C3.58172 16.9998 1.62445e-06 20.5815 2.01071e-06 24.9998ZM364.367 0.640279L314.997 23.6401L316.264 26.3595L365.633 3.35966L364.367 0.640279ZM315.63 23.4998L8 23.4998L8 26.4998L315.63 26.4998L315.63 23.4998Z" fill="url(#paint0_linear_1077_10735)"/>
<defs>
<linearGradient id="paint0_linear_1077_10735" x1="293.795" y1="-77.0001" x2="-0.572112" y2="-34.8117" gradientUnits="userSpaceOnUse">
<stop stop-color="#002FFF"/>
<stop offset="1" stop-color="#8613CC"/>
</linearGradient>
</defs>
</svg>
