<svg width="20" height="20" viewBox="0 0 20 20" fill="none" xmlns="http://www.w3.org/2000/svg">
<g filter="url(#filter0_ii_1077_10374)">
<path d="M18.3346 9.2355V10.0022C18.3336 11.7992 17.7517 13.5477 16.6757 14.987C15.5998 16.4263 14.0874 17.4792 12.3641 17.9888C10.6408 18.4983 8.79902 18.4371 7.11336 17.8143C5.4277 17.1916 3.98851 16.0406 3.01044 14.5331C2.03236 13.0255 1.56779 11.2422 1.68603 9.44909C1.80427 7.65597 2.49897 5.9491 3.66654 4.58306C4.8341 3.21702 6.41196 2.26498 8.16479 1.86895C9.91763 1.47292 11.7515 1.65411 13.393 2.3855" stroke="url(#paint0_linear_1077_10374)" stroke-width="2" stroke-linecap="round" stroke-linejoin="round"/>
<path d="M18.3333 3.33203L10 11.6737L7.5 9.1737" stroke="url(#paint1_linear_1077_10374)" stroke-width="2" stroke-linecap="round" stroke-linejoin="round"/>
</g>
<defs>
<filter id="filter0_ii_1077_10374" x="0" y="0" width="20" height="21" filterUnits="userSpaceOnUse" color-interpolation-filters="sRGB">
<feFlood flood-opacity="0" result="BackgroundImageFix"/>
<feBlend mode="normal" in="SourceGraphic" in2="BackgroundImageFix" result="shape"/>
<feColorMatrix in="SourceAlpha" type="matrix" values="0 0 0 0 0 0 0 0 0 0 0 0 0 0 0 0 0 0 127 0" result="hardAlpha"/>
<feOffset dy="1"/>
<feGaussianBlur stdDeviation="1"/>
<feComposite in2="hardAlpha" operator="arithmetic" k2="-1" k3="1"/>
<feColorMatrix type="matrix" values="0 0 0 0 1 0 0 0 0 1 0 0 0 0 1 0 0 0 1 0"/>
<feBlend mode="normal" in2="shape" result="effect1_innerShadow_1077_10374"/>
<feColorMatrix in="SourceAlpha" type="matrix" values="0 0 0 0 0 0 0 0 0 0 0 0 0 0 0 0 0 0 127 0" result="hardAlpha"/>
<feOffset/>
<feGaussianBlur stdDeviation="1"/>
<feComposite in2="hardAlpha" operator="arithmetic" k2="-1" k3="1"/>
<feColorMatrix type="matrix" values="0 0 0 0 0.453571 0 0 0 0 0 0 0 0 0 0.475 0 0 0 1 0"/>
<feBlend mode="normal" in2="effect1_innerShadow_1077_10374" result="effect2_innerShadow_1077_10374"/>
</filter>
<linearGradient id="paint0_linear_1077_10374" x1="10.0013" y1="1.66406" x2="10.0013" y2="18.3307" gradientUnits="userSpaceOnUse">
<stop stop-color="#910082"/>
<stop offset="1" stop-color="#E18AFF"/>
</linearGradient>
<linearGradient id="paint1_linear_1077_10374" x1="12.9167" y1="3.33203" x2="12.9167" y2="11.6737" gradientUnits="userSpaceOnUse">
<stop stop-color="#910082"/>
<stop offset="1" stop-color="#E18AFF"/>
</linearGradient>
</defs>
</svg>
